<?xml version="1.0" encoding="UTF-8"?>
<!--Generator: Apple Native CoreSVG 175-->
<!DOCTYPE svg
PUBLIC "-//W3C//DTD SVG 1.1//EN"
       "http://www.w3.org/Graphics/SVG/1.1/DTD/svg11.dtd">
<svg version="1.1" xmlns="http://www.w3.org/2000/svg" xmlns:xlink="http://www.w3.org/1999/xlink" width="3300" height="2200">
 <!--glyph: "uni100FAD.medium", point size: 100.0, font version: "17.0d11e1", template writer version: "65.1"-->
 <g id="Notes">
  <rect height="2200" id="artboard" style="fill:white;opacity:1" width="3300" x="0" y="0"/>
  <line style="fill:none;stroke:black;opacity:1;stroke-width:0.5;" x1="263" x2="3036" y1="292" y2="292"/>
  <text style="stroke:none;fill:black;font-family:sans-serif;font-size:13;font-weight:bold;" transform="matrix(1 0 0 1 263 322)">Weight/Scale Variations</text>
  <text style="stroke:none;fill:black;font-family:sans-serif;font-size:13;text-anchor:middle;" transform="matrix(1 0 0 1 559.711 322)">Ultralight</text>
  <text style="stroke:none;fill:black;font-family:sans-serif;font-size:13;text-anchor:middle;" transform="matrix(1 0 0 1 856.422 322)">Thin</text>
  <text style="stroke:none;fill:black;font-family:sans-serif;font-size:13;text-anchor:middle;" transform="matrix(1 0 0 1 1153.13 322)">Light</text>
  <text style="stroke:none;fill:black;font-family:sans-serif;font-size:13;text-anchor:middle;" transform="matrix(1 0 0 1 1449.84 322)">Regular</text>
  <text style="stroke:none;fill:black;font-family:sans-serif;font-size:13;text-anchor:middle;" transform="matrix(1 0 0 1 1746.56 322)">Medium</text>
  <text style="stroke:none;fill:black;font-family:sans-serif;font-size:13;text-anchor:middle;" transform="matrix(1 0 0 1 2043.27 322)">Semibold</text>
  <text style="stroke:none;fill:black;font-family:sans-serif;font-size:13;text-anchor:middle;" transform="matrix(1 0 0 1 2339.98 322)">Bold</text>
  <text style="stroke:none;fill:black;font-family:sans-serif;font-size:13;text-anchor:middle;" transform="matrix(1 0 0 1 2636.69 322)">Heavy</text>
  <text style="stroke:none;fill:black;font-family:sans-serif;font-size:13;text-anchor:middle;" transform="matrix(1 0 0 1 2933.4 322)">Black</text>
  <line style="fill:none;stroke:black;opacity:1;stroke-width:0.5;" x1="263" x2="3036" y1="1903" y2="1903"/>
  <g transform="matrix(1 0 0 1 263 1933)">
   <path d="M9.24805 0.830078Q10.8691 0.830078 12.2949 0.214844Q13.7207-0.400391 14.8096-1.49414Q15.8984-2.58789 16.5186-4.01367Q17.1387-5.43945 17.1387-7.05078Q17.1387-8.66211 16.5186-10.0879Q15.8984-11.5137 14.8047-12.6074Q13.7109-13.7012 12.2852-14.3164Q10.8594-14.9316 9.23828-14.9316Q7.62695-14.9316 6.20117-14.3164Q4.77539-13.7012 3.69141-12.6074Q2.60742-11.5137 1.9873-10.0879Q1.36719-8.66211 1.36719-7.05078Q1.36719-5.43945 1.9873-4.01367Q2.60742-2.58789 3.69629-1.49414Q4.78516-0.400391 6.21094 0.214844Q7.63672 0.830078 9.24805 0.830078ZM9.24805-0.654297Q7.91992-0.654297 6.7627-1.14746Q5.60547-1.64062 4.73145-2.51953Q3.85742-3.39844 3.36426-4.56055Q2.87109-5.72266 2.87109-7.05078Q2.87109-8.37891 3.35938-9.54102Q3.84766-10.7031 4.72168-11.582Q5.5957-12.4609 6.75293-12.9541Q7.91016-13.4473 9.23828-13.4473Q10.5762-13.4473 11.7334-12.9541Q12.8906-12.4609 13.7695-11.582Q14.6484-10.7031 15.1465-9.54102Q15.6445-8.37891 15.6445-7.05078Q15.6445-5.72266 15.1514-4.56055Q14.6582-3.39844 13.7842-2.51953Q12.9102-1.64062 11.748-1.14746Q10.5859-0.654297 9.24805-0.654297ZM5.6543-7.05078Q5.6543-6.72852 5.85938-6.52832Q6.06445-6.32812 6.40625-6.32812L8.51562-6.32812L8.51562-4.20898Q8.51562-3.88672 8.71094-3.67676Q8.90625-3.4668 9.23828-3.4668Q9.56055-3.4668 9.77051-3.67676Q9.98047-3.88672 9.98047-4.20898L9.98047-6.32812L12.0898-6.32812Q12.4219-6.32812 12.627-6.52832Q12.832-6.72852 12.832-7.05078Q12.832-7.38281 12.627-7.58789Q12.4219-7.79297 12.0898-7.79297L9.98047-7.79297L9.98047-9.90234Q9.98047-10.2344 9.77051-10.4443Q9.56055-10.6543 9.23828-10.6543Q8.90625-10.6543 8.71094-10.4443Q8.51562-10.2344 8.51562-9.90234L8.51562-7.79297L6.40625-7.79297Q6.06445-7.79297 5.85938-7.58789Q5.6543-7.38281 5.6543-7.05078Z"/>
  </g>
  <g transform="matrix(1 0 0 1 281.867 1933)">
   <path d="M11.709 2.91016Q13.75 2.91016 15.5518 2.12891Q17.3535 1.34766 18.7305-0.0292969Q20.1074-1.40625 20.8887-3.20801Q21.6699-5.00977 21.6699-7.05078Q21.6699-9.0918 20.8887-10.8936Q20.1074-12.6953 18.7305-14.0723Q17.3535-15.4492 15.5469-16.2305Q13.7402-17.0117 11.6992-17.0117Q9.6582-17.0117 7.85645-16.2305Q6.05469-15.4492 4.68262-14.0723Q3.31055-12.6953 2.5293-10.8936Q1.74805-9.0918 1.74805-7.05078Q1.74805-5.00977 2.5293-3.20801Q3.31055-1.40625 4.6875-0.0292969Q6.06445 1.34766 7.86621 2.12891Q9.66797 2.91016 11.709 2.91016ZM11.709 1.25Q9.98047 1.25 8.47656 0.605469Q6.97266-0.0390625 5.83496-1.17676Q4.69727-2.31445 4.05762-3.81836Q3.41797-5.32227 3.41797-7.05078Q3.41797-8.7793 4.05762-10.2832Q4.69727-11.7871 5.83008-12.9297Q6.96289-14.0723 8.4668-14.7119Q9.9707-15.3516 11.6992-15.3516Q13.4277-15.3516 14.9316-14.7119Q16.4355-14.0723 17.5781-12.9297Q18.7207-11.7871 19.3652-10.2832Q20.0098-8.7793 20.0098-7.05078Q20.0098-5.32227 19.3701-3.81836Q18.7305-2.31445 17.5928-1.17676Q16.4551-0.0390625 14.9463 0.605469Q13.4375 1.25 11.709 1.25ZM7.17773-7.05078Q7.17773-6.69922 7.41211-6.47461Q7.64648-6.25 8.01758-6.25L10.8887-6.25L10.8887-3.36914Q10.8887-2.99805 11.1133-2.76855Q11.3379-2.53906 11.6895-2.53906Q12.0605-2.53906 12.29-2.76855Q12.5195-2.99805 12.5195-3.36914L12.5195-6.25L15.4004-6.25Q15.7715-6.25 16.001-6.47461Q16.2305-6.69922 16.2305-7.05078Q16.2305-7.42188 16.001-7.65137Q15.7715-7.88086 15.4004-7.88086L12.5195-7.88086L12.5195-10.752Q12.5195-11.1328 12.29-11.3623Q12.0605-11.5918 11.6895-11.5918Q11.3379-11.5918 11.1133-11.3574Q10.8887-11.123 10.8887-10.752L10.8887-7.88086L8.01758-7.88086Q7.63672-7.88086 7.40723-7.65137Q7.17773-7.42188 7.17773-7.05078Z"/>
  </g>
  <g transform="matrix(1 0 0 1 305.646 1933)">
   <path d="M14.9707 5.66406Q17.0605 5.66406 18.96 5.01465Q20.8594 4.36523 22.4512 3.19336Q24.043 2.02148 25.2197 0.429688Q26.3965-1.16211 27.0459-3.06641Q27.6953-4.9707 27.6953-7.05078Q27.6953-9.14062 27.0459-11.04Q26.3965-12.9395 25.2197-14.5312Q24.043-16.123 22.4512-17.2998Q20.8594-18.4766 18.9551-19.126Q17.0508-19.7754 14.9609-19.7754Q12.8711-19.7754 10.9717-19.126Q9.07227-18.4766 7.48535-17.2998Q5.89844-16.123 4.72168-14.5312Q3.54492-12.9395 2.90039-11.04Q2.25586-9.14062 2.25586-7.05078Q2.25586-4.9707 2.90527-3.06641Q3.55469-1.16211 4.72656 0.429688Q5.89844 2.02148 7.49023 3.19336Q9.08203 4.36523 10.9814 5.01465Q12.8809 5.66406 14.9707 5.66406ZM14.9707 3.84766Q13.1641 3.84766 11.5283 3.2959Q9.89258 2.74414 8.53516 1.74805Q7.17773 0.751953 6.17676-0.610352Q5.17578-1.97266 4.62891-3.6084Q4.08203-5.24414 4.08203-7.05078Q4.08203-8.86719 4.62891-10.5029Q5.17578-12.1387 6.17188-13.501Q7.16797-14.8633 8.52539-15.8594Q9.88281-16.8555 11.5186-17.4023Q13.1543-17.9492 14.9609-17.9492Q16.7773-17.9492 18.4131-17.4023Q20.0488-16.8555 21.4111-15.8594Q22.7734-14.8633 23.7695-13.501Q24.7656-12.1387 25.3174-10.5029Q25.8691-8.86719 25.8691-7.05078Q25.8789-5.24414 25.332-3.6084Q24.7852-1.97266 23.7842-0.610352Q22.7832 0.751953 21.4209 1.74805Q20.0586 2.74414 18.4229 3.2959Q16.7871 3.84766 14.9707 3.84766ZM9.19922-7.05078Q9.19922-6.66992 9.45801-6.4209Q9.7168-6.17188 10.1172-6.17188L14.0625-6.17188L14.0625-2.2168Q14.0625-1.81641 14.3115-1.55762Q14.5605-1.29883 14.9512-1.29883Q15.3516-1.29883 15.6104-1.55273Q15.8691-1.80664 15.8691-2.2168L15.8691-6.17188L19.8242-6.17188Q20.2246-6.17188 20.4785-6.4209Q20.7324-6.66992 20.7324-7.05078Q20.7324-7.46094 20.4785-7.71484Q20.2246-7.96875 19.8242-7.96875L15.8691-7.96875L15.8691-11.9141Q15.8691-12.3242 15.6104-12.583Q15.3516-12.8418 14.9512-12.8418Q14.5605-12.8418 14.3115-12.583Q14.0625-12.3242 14.0625-11.9141L14.0625-7.96875L10.1172-7.96875Q9.70703-7.96875 9.45312-7.71484Q9.19922-7.46094 9.19922-7.05078Z"/>
  </g>
  <text style="stroke:none;fill:black;font-family:sans-serif;font-size:13;font-weight:bold;" transform="matrix(1 0 0 1 263 1953)">Design Variations</text>
  <text style="stroke:none;fill:black;font-family:sans-serif;font-size:13;" transform="matrix(1 0 0 1 263 1971)">Symbols are supported in up to nine weights and three scales.</text>
  <text style="stroke:none;fill:black;font-family:sans-serif;font-size:13;" transform="matrix(1 0 0 1 263 1989)">For optimal layout with text and other symbols, vertically align</text>
  <text style="stroke:none;fill:black;font-family:sans-serif;font-size:13;" transform="matrix(1 0 0 1 263 2007)">symbols with the adjacent text.</text>
  <line style="fill:none;stroke:#00AEEF;stroke-width:0.5;opacity:1.0;" x1="776" x2="776" y1="1919" y2="1933"/>
  <g transform="matrix(1 0 0 1 776 1933)">
   <path d="M3.31055 0.15625Q3.70117 0.15625 3.91602-0.00976562Q4.13086-0.175781 4.26758-0.585938L5.52734-4.0332L11.2891-4.0332L12.5488-0.585938Q12.6855-0.175781 12.9004-0.00976562Q13.1152 0.15625 13.4961 0.15625Q13.8867 0.15625 14.1162-0.0585938Q14.3457-0.273438 14.3457-0.644531Q14.3457-0.869141 14.2383-1.17188L9.6582-13.3691Q9.48242-13.8184 9.17969-14.043Q8.87695-14.2676 8.4082-14.2676Q7.5-14.2676 7.17773-13.3789L2.59766-1.16211Q2.49023-0.859375 2.49023-0.634766Q2.49023-0.263672 2.70996-0.0537109Q2.92969 0.15625 3.31055 0.15625ZM6.00586-5.51758L8.37891-12.0898L8.42773-12.0898L10.8008-5.51758Z"/>
  </g>
  <line style="fill:none;stroke:#00AEEF;stroke-width:0.5;opacity:1.0;" x1="793.197" x2="793.197" y1="1919" y2="1933"/>
  <text style="stroke:none;fill:black;font-family:sans-serif;font-size:13;font-weight:bold;" transform="matrix(1 0 0 1 776 1953)">Margins</text>
  <text style="stroke:none;fill:black;font-family:sans-serif;font-size:13;" transform="matrix(1 0 0 1 776 1971)">Leading and trailing margins on the left and right side of each symbol</text>
  <text style="stroke:none;fill:black;font-family:sans-serif;font-size:13;" transform="matrix(1 0 0 1 776 1989)">can be adjusted by modifying the x-location of the margin guidelines.</text>
  <text style="stroke:none;fill:black;font-family:sans-serif;font-size:13;" transform="matrix(1 0 0 1 776 2007)">Modifications are automatically applied proportionally to all</text>
  <text style="stroke:none;fill:black;font-family:sans-serif;font-size:13;" transform="matrix(1 0 0 1 776 2025)">scales and weights.</text>
  <g transform="matrix(1 0 0 1 1289 1933)">
   <path d="M2.8418 1.86523L4.54102 3.57422Q5.18555 4.22852 5.90332 4.17969Q6.62109 4.13086 7.31445 3.35938L18.0078-8.42773L17.041-9.4043L6.42578 2.27539Q6.16211 2.57812 5.89355 2.61719Q5.625 2.65625 5.27344 2.30469L4.10156 1.14258Q3.75 0.791016 3.79395 0.522461Q3.83789 0.253906 4.14062-0.0195312L15.6152-10.8203L14.6387-11.7871L3.04688-0.898438Q2.30469-0.214844 2.25098 0.498047Q2.19727 1.21094 2.8418 1.86523ZM9.25781-16.3281Q8.94531-16.0254 8.90625-15.6348Q8.86719-15.2441 9.04297-14.9512Q9.21875-14.6777 9.55566-14.541Q9.89258-14.4043 10.3809-14.5215Q11.4746-14.7754 12.5977-14.7314Q13.7207-14.6875 14.7949-13.9844L14.209-12.5293Q13.9551-11.9043 14.0674-11.4404Q14.1797-10.9766 14.5801-10.5664L16.875-8.25195Q17.2363-7.88086 17.5781-7.82227Q17.9199-7.76367 18.3398-7.8418L19.4043-8.03711L20.0684-7.36328L20.0293-6.80664Q20-6.43555 20.1221-6.12305Q20.2441-5.81055 20.6055-5.44922L21.3672-4.70703Q21.7285-4.3457 22.1533-4.33105Q22.5781-4.31641 22.9297-4.66797L25.8398-7.58789Q26.1914-7.93945 26.1816-8.35449Q26.1719-8.76953 25.8105-9.13086L25.0391-9.89258Q24.6875-10.2539 24.3799-10.3857Q24.0723-10.5176 23.7109-10.4883L23.1348-10.4395L22.4902-11.0742L22.7344-12.1973Q22.832-12.6172 22.6953-12.9834Q22.5586-13.3496 22.1191-13.7891L19.9219-15.9766Q18.6719-17.2168 17.2607-17.8369Q15.8496-18.457 14.4189-18.4814Q12.9883-18.5059 11.665-17.959Q10.3418-17.4121 9.25781-16.3281ZM10.752-15.957Q11.6602-16.6211 12.7002-16.9043Q13.7402-17.1875 14.8047-17.085Q15.8691-16.9824 16.8701-16.5137Q17.8711-16.0449 18.7012-15.2051L21.1328-12.793Q21.3086-12.6172 21.3525-12.4512Q21.3965-12.2852 21.3379-12.0312L21.0156-10.5469L22.5195-9.0625L23.5059-9.12109Q23.6914-9.13086 23.7891-9.09668Q23.8867-9.0625 24.0332-8.91602L24.6094-8.33984L22.168-5.89844L21.5918-6.47461Q21.4453-6.62109 21.4062-6.71875Q21.3672-6.81641 21.377-7.01172L21.4453-7.98828L19.9512-9.47266L18.4277-9.21875Q18.1836-9.16992 18.042-9.2041Q17.9004-9.23828 17.7148-9.41406L15.7129-11.416Q15.5176-11.5918 15.4932-11.7529Q15.4688-11.9141 15.5859-12.1875L16.4648-14.2773Q15.293-15.3711 13.8281-15.791Q12.3633-16.2109 10.8398-15.7617Q10.7227-15.7324 10.6885-15.8057Q10.6543-15.8789 10.752-15.957Z"/>
  </g>
  <text style="stroke:none;fill:black;font-family:sans-serif;font-size:13;font-weight:bold;" transform="matrix(1 0 0 1 1289 1953)">Exporting</text>
  <text style="stroke:none;fill:black;font-family:sans-serif;font-size:13;" transform="matrix(1 0 0 1 1289 1971)">Symbols should be outlined when exporting to ensure the</text>
  <text style="stroke:none;fill:black;font-family:sans-serif;font-size:13;" transform="matrix(1 0 0 1 1289 1989)">design is preserved when submitting to Xcode.</text>
  <text id="template-version" style="stroke:none;fill:black;font-family:sans-serif;font-size:13;text-anchor:end;" transform="matrix(1 0 0 1 3036 1933)">Template v.2.0</text>
  <text style="stroke:none;fill:black;font-family:sans-serif;font-size:13;text-anchor:end;" transform="matrix(1 0 0 1 3036 1951)">Requires Xcode 13 or greater</text>
  <text id="descriptive-name" style="stroke:none;fill:black;font-family:sans-serif;font-size:13;text-anchor:end;" transform="matrix(1 0 0 1 3036 1969)">Generated from play.rectangle.on.rectangle.fill</text>
  <text style="stroke:none;fill:black;font-family:sans-serif;font-size:13;text-anchor:end;" transform="matrix(1 0 0 1 3036 1987)">Typeset at 100 points</text>
  <text style="stroke:none;fill:black;font-family:sans-serif;font-size:13;" transform="matrix(1 0 0 1 263 726)">Small</text>
  <text style="stroke:none;fill:black;font-family:sans-serif;font-size:13;" transform="matrix(1 0 0 1 263 1156)">Medium</text>
  <text style="stroke:none;fill:black;font-family:sans-serif;font-size:13;" transform="matrix(1 0 0 1 263 1586)">Large</text>
 </g>
 <g id="Guides">
  <g id="H-reference" style="fill:#27AAE1;stroke:none;" transform="matrix(1 0 0 1 339 696)">
   <path d="M0.993347 0L3.6377 0L29.3282-67.1326L30.0301-67.1326L30.0301-70.459L28.1227-70.459ZM11.6882-24.4797L46.9818-24.4797L46.2311-26.7288L12.4382-26.7288ZM55.1193 0L57.7637 0L30.6381-70.459L29.4327-70.459L29.4327-67.1326Z"/>
  </g>
  <line id="Baseline-S" style="fill:none;stroke:#27AAE1;opacity:1;stroke-width:0.5;" x1="263" x2="3036" y1="696" y2="696"/>
  <line id="Capline-S" style="fill:none;stroke:#27AAE1;opacity:1;stroke-width:0.5;" x1="263" x2="3036" y1="625.541" y2="625.541"/>
  <g id="H-reference" style="fill:#27AAE1;stroke:none;" transform="matrix(1 0 0 1 339 1126)">
   <path d="M0.993347 0L3.6377 0L29.3282-67.1326L30.0301-67.1326L30.0301-70.459L28.1227-70.459ZM11.6882-24.4797L46.9818-24.4797L46.2311-26.7288L12.4382-26.7288ZM55.1193 0L57.7637 0L30.6381-70.459L29.4327-70.459L29.4327-67.1326Z"/>
  </g>
  <line id="Baseline-M" style="fill:none;stroke:#27AAE1;opacity:1;stroke-width:0.5;" x1="263" x2="3036" y1="1126" y2="1126"/>
  <line id="Capline-M" style="fill:none;stroke:#27AAE1;opacity:1;stroke-width:0.5;" x1="263" x2="3036" y1="1055.54" y2="1055.54"/>
  <g id="H-reference" style="fill:#27AAE1;stroke:none;" transform="matrix(1 0 0 1 339 1556)">
   <path d="M0.993347 0L3.6377 0L29.3282-67.1326L30.0301-67.1326L30.0301-70.459L28.1227-70.459ZM11.6882-24.4797L46.9818-24.4797L46.2311-26.7288L12.4382-26.7288ZM55.1193 0L57.7637 0L30.6381-70.459L29.4327-70.459L29.4327-67.1326Z"/>
  </g>
  <line id="Baseline-L" style="fill:none;stroke:#27AAE1;opacity:1;stroke-width:0.5;" x1="263" x2="3036" y1="1556" y2="1556"/>
  <line id="Capline-L" style="fill:none;stroke:#27AAE1;opacity:1;stroke-width:0.5;" x1="263" x2="3036" y1="1485.54" y2="1485.54"/>
  <line id="left-margin" style="fill:none;stroke:#00AEEF;stroke-width:0.5;opacity:1.0;" x1="1376.65" x2="1376.65" y1="1030.79" y2="1150.12"/>
  <line id="right-margin" style="fill:none;stroke:#00AEEF;stroke-width:0.5;opacity:1.0;" x1="1523.04" x2="1523.04" y1="1030.79" y2="1150.12"/>
 </g>
 <g id="Symbols">
  <g id="Black-L" transform="matrix(1 0 0 1 2833.42 1556)">
   <path d="M74.4629 35.5957L159.961 35.5957Q171.387 35.5957 177.637 29.3945Q183.887 23.1934 183.887 11.8164L183.887-49.4629Q183.887-60.8398 177.637-67.041Q171.387-73.2422 159.961-73.2422L74.4629-73.2422Q63.0371-73.2422 56.8115-67.041Q50.5859-60.8398 50.5859-49.4629L50.5859 11.8164Q50.5859 23.1934 56.8115 29.3945Q63.0371 35.5957 74.4629 35.5957ZM74.4629-84.668L149.268-84.668L149.268-84.8145Q148.535-95.0684 142.407-100.61Q136.279-106.152 125.488-106.152L39.9902-106.152Q28.5156-106.152 22.29-99.9512Q16.0645-93.75 16.0645-82.3242L16.0645-21.0938Q16.0645-10.0098 21.9482-3.85742Q27.832 2.29492 38.6719 2.68555L39.1602 2.68555L39.1602-49.4629Q39.1602-60.2051 43.5059-68.1152Q47.8516-76.0254 55.7617-80.3467Q63.6719-84.668 74.4629-84.668ZM98.3398 3.02734L98.3398-40.4785Q98.3398-42.9199 100.488-43.9697Q102.637-45.0195 104.785-43.75L141.699-22.2168Q143.75-21.0449 143.799-18.7256Q143.848-16.4062 141.699-15.1855L104.785 6.10352Q102.637 7.42188 100.488 6.4209Q98.3398 5.41992 98.3398 3.02734Z"/>
  </g>
  <g id="Heavy-L" transform="matrix(1 0 0 1 2538.19 1556)">
   <path d="M72.3145 33.6914L158.154 33.6914Q169.141 33.6914 175.049 27.832Q180.957 21.9727 180.957 11.084L180.957-49.8535Q180.957-60.7422 175.049-66.6016Q169.141-72.4609 158.154-72.4609L72.3145-72.4609Q61.377-72.4609 55.4932-66.6016Q49.6094-60.7422 49.6094-49.8535L49.6094 11.084Q49.6094 21.9727 55.4932 27.832Q61.377 33.6914 72.3145 33.6914ZM72.3145-83.0078L147.021-83.0078L147.021-83.4961Q146.484-93.5059 140.674-98.8525Q134.863-104.199 124.365-104.199L38.8184-104.199Q27.832-104.199 21.9482-98.3643Q16.0645-92.5293 16.0645-81.5918L16.0645-20.7031Q16.0645-10.0098 21.6797-4.19922Q27.2949 1.61133 37.8418 1.9043L39.0137 1.9043L39.0137-49.8535Q39.0137-60.0098 43.0908-67.4805Q47.168-74.9512 54.6143-78.9795Q62.0605-83.0078 72.3145-83.0078ZM96.5332 2.73438L96.5332-41.4062Q96.5332-43.75 98.584-44.7266Q100.635-45.7031 102.686-44.4824L140.039-22.6562Q141.992-21.5332 142.041-19.3359Q142.09-17.1387 140.039-15.9668L102.686 5.71289Q100.635 6.93359 98.584 5.98145Q96.5332 5.0293 96.5332 2.73438Z"/>
  </g>
  <g id="Bold-L" transform="matrix(1 0 0 1 2243.13 1556)">
   <path d="M69.9219 31.543L156.152 31.543Q166.602 31.543 172.119 26.0742Q177.637 20.6055 177.637 10.2539L177.637-50.293Q177.637-60.6445 172.119-66.1133Q166.602-71.582 156.152-71.582L69.9219-71.582Q59.4727-71.582 53.9795-66.1133Q48.4863-60.6445 48.4863-50.293L48.4863 10.2539Q48.4863 20.6543 53.9795 26.0986Q59.4727 31.543 69.9219 31.543ZM69.9219-81.1523L144.531-81.1523L144.531-81.9824Q144.189-91.7969 138.745-96.9238Q133.301-102.051 123.145-102.051L37.5488-102.051Q27.0508-102.051 21.5576-96.6064Q16.0645-91.1621 16.0645-80.7617L16.0645-20.2637Q16.0645-10.0098 21.3867-4.56543Q26.709 0.878906 36.8652 1.07422L38.8672 1.07422L38.8672-50.293Q38.8672-59.8633 42.627-66.7969Q46.3867-73.7305 53.3447-77.4414Q60.3027-81.1523 69.9219-81.1523ZM94.5801 2.49023L94.5801-42.3828Q94.5801-44.6289 96.5332-45.5078Q98.4863-46.3867 100.391-45.2637L138.232-23.0957Q140.088-22.0215 140.112-19.9463Q140.137-17.8711 138.232-16.7969L100.391 5.27344Q98.4863 6.44531 96.5332 5.56641Q94.5801 4.6875 94.5801 2.49023Z"/>
  </g>
  <g id="Semibold-L" transform="matrix(1 0 0 1 1947.55 1556)">
   <path d="M68.2617 30.0781L154.785 30.0781Q164.844 30.0781 170.093 24.8779Q175.342 19.6777 175.342 9.66797L175.342-50.5859Q175.342-60.5469 170.093-65.7471Q164.844-70.9473 154.785-70.9473L68.2617-70.9473Q58.1543-70.9473 52.9297-65.7471Q47.7051-60.5469 47.7051-50.5859L47.7051 9.66797Q47.7051 19.6777 52.9297 24.8779Q58.1543 30.0781 68.2617 30.0781ZM68.2617-79.8828L142.822-79.8828L142.822-80.957Q142.578-90.5762 137.378-95.5566Q132.178-100.537 122.314-100.537L36.6211-100.537Q26.5137-100.537 21.2891-95.3613Q16.0645-90.1855 16.0645-80.1758L16.0645-19.9219Q16.0645-10.0098 21.1914-4.83398Q26.3184 0.341797 36.2305 0.439453L38.7695 0.439453L38.7695-50.5859Q38.7695-59.7168 42.3096-66.2842Q45.8496-72.8516 52.4658-76.3672Q59.082-79.8828 68.2617-79.8828ZM93.2129 2.29492L93.2129-43.0664Q93.2129-45.2637 95.0928-46.0693Q96.9727-46.875 98.8281-45.8008L136.963-23.3887Q138.721-22.4121 138.77-20.4102Q138.818-18.4082 137.012-17.3828L98.8281 4.98047Q96.9727 6.05469 95.0928 5.24902Q93.2129 4.44336 93.2129 2.29492Z"/>
  </g>
  <g id="Medium-L" transform="matrix(1 0 0 1 1651.71 1556)">
   <path d="M66.9922 28.9551L153.711 28.9551Q163.525 28.9551 168.579 23.9502Q173.633 18.9453 173.633 9.27734L173.633-50.7812Q173.633-60.498 168.579-65.4785Q163.525-70.459 153.711-70.459L66.9922-70.459Q57.1777-70.459 52.1484-65.4785Q47.1191-60.498 47.1191-50.7812L47.1191 9.27734Q47.1191 18.9941 52.1484 23.9746Q57.1777 28.9551 66.9922 28.9551ZM66.9922-78.9062L141.504-78.9062L141.504-80.1758Q141.357-89.6484 136.353-94.5312Q131.348-99.4141 121.631-99.4141L35.9375-99.4141Q26.123-99.4141 21.0938-94.4336Q16.0645-89.4531 16.0645-79.7363L16.0645-19.6777Q16.0645-10.0098 21.0205-5.0293Q25.9766-0.0488281 35.6934 0L38.6719 0L38.6719-50.7812Q38.6719-59.6191 42.0654-65.918Q45.459-72.2168 51.8066-75.5615Q58.1543-78.9062 66.9922-78.9062ZM92.1387 2.09961L92.1387-43.6035Q92.1387-45.752 93.9697-46.5332Q95.8008-47.3145 97.5586-46.2402L135.986-23.6328Q137.695-22.6562 137.72-20.752Q137.744-18.8477 135.986-17.8223L97.5586 4.73633Q95.8008 5.81055 93.9697 5.0293Q92.1387 4.24805 92.1387 2.09961Z"/>
  </g>
  <g id="Regular-L" transform="matrix(1 0 0 1 1356.12 1556)">
   <path d="M65.3809 27.4902L152.344 27.4902Q161.816 27.4902 166.602 22.7539Q171.387 18.0176 171.387 8.69141L171.387-51.0742Q171.387-60.4004 166.602-65.1367Q161.816-69.873 152.344-69.873L65.3809-69.873Q55.9082-69.873 51.1475-65.1367Q46.3867-60.4004 46.3867-51.0742L46.3867 8.69141Q46.3867 18.0664 51.1475 22.7783Q55.9082 27.4902 65.3809 27.4902ZM65.3809-77.6367L139.795-77.6367L139.795-79.1504Q139.795-88.4766 135.034-93.2129Q130.273-97.9492 120.801-97.9492L35.0586-97.9492Q25.5859-97.9492 20.8252-93.2373Q16.0645-88.5254 16.0645-79.1504L16.0645-19.3848Q16.0645-10.0098 20.8252-5.29785Q25.5859-0.585938 35.0586-0.585938L38.5742-0.585938L38.5742-51.0742Q38.5742-59.4727 41.748-65.4297Q44.9219-71.3867 50.9277-74.5117Q56.9336-77.6367 65.3809-77.6367ZM90.7715 1.9043L90.7715-44.2871Q90.7715-46.3867 92.5293-47.0947Q94.2871-47.8027 95.9961-46.7773L134.717-23.9746Q136.377-23.0469 136.401-21.2158Q136.426-19.3848 134.766-18.4082L95.9961 4.44336Q94.2871 5.41992 92.5293 4.6875Q90.7715 3.95508 90.7715 1.9043Z"/>
  </g>
  <g id="Light-L" transform="matrix(1 0 0 1 1060.39 1556)">
   <path d="M63.2324 26.0254L151.416 26.0254Q160.352 26.0254 164.893 21.4844Q169.434 16.9434 169.434 8.20312L169.434-52.002Q169.434-60.7422 164.893-65.2832Q160.352-69.8242 151.416-69.8242L63.2324-69.8242Q54.3457-69.8242 49.8047-65.3076Q45.2637-60.791 45.2637-52.002L45.2637 8.20312Q45.2637 17.041 49.8047 21.5332Q54.3457 26.0254 63.2324 26.0254ZM63.2324-76.5137L138.184-76.5137L138.184-78.6133Q138.184-87.3535 133.667-91.8945Q129.15-96.4355 120.264-96.4355L34.0332-96.4355Q25.0977-96.4355 20.5811-91.9434Q16.0645-87.4512 16.0645-78.6133L16.0645-18.4082Q16.0645-9.57031 20.5811-5.07812Q25.0977-0.585938 34.0332-0.585938L38.5742-0.585938L38.5742-52.002Q38.5742-59.7168 41.5039-65.21Q44.4336-70.7031 49.9512-73.6084Q55.4688-76.5137 63.2324-76.5137ZM88.8672 1.66016L88.8672-45.459Q88.8672-47.3633 90.4785-48.0225Q92.0898-48.6816 93.7012-47.7539L133.154-24.5605Q134.717-23.6328 134.717-21.9238Q134.717-20.2148 133.203-19.2871L93.7012 4.00391Q92.0898 4.88281 90.4785 4.19922Q88.8672 3.51562 88.8672 1.66016Z"/>
  </g>
  <g id="Thin-L" transform="matrix(1 0 0 1 764.982 1556)">
   <path d="M60.4004 24.1211L150.195 24.1211Q158.35 24.1211 162.573 19.8486Q166.797 15.5762 166.797 7.51953L166.797-53.2227Q166.797-61.2305 162.573-65.5029Q158.35-69.7754 150.195-69.7754L60.4004-69.7754Q52.2461-69.7754 48.0225-65.5518Q43.7988-61.3281 43.7988-53.2227L43.7988 7.51953Q43.7988 15.6738 48.0225 19.8975Q52.2461 24.1211 60.4004 24.1211ZM60.4004-75L136.084-75L136.084-77.832Q136.084-85.8887 131.885-90.1611Q127.686-94.4336 119.482-94.4336L32.666-94.4336Q24.5117-94.4336 20.2881-90.21Q16.0645-85.9863 16.0645-77.832L16.0645-17.0898Q16.0645-8.93555 20.2881-4.73633Q24.5117-0.537109 32.666-0.537109L38.5742-0.537109L38.5742-53.2227Q38.5742-60.0586 41.1621-64.9414Q43.75-69.8242 48.6328-72.4121Q53.5156-75 60.4004-75ZM86.2793 1.31836L86.2793-47.0215Q86.2793-48.6328 87.7197-49.2432Q89.1602-49.8535 90.625-49.0234L131.055-25.2441Q132.471-24.4141 132.471-22.8271Q132.471-21.2402 131.055-20.4102L90.625 3.41797Q89.1602 4.19922 87.7197 3.58887Q86.2793 2.97852 86.2793 1.31836Z"/>
  </g>
  <g id="Ultralight-L" transform="matrix(1 0 0 1 468.937 1556)">
   <path d="M58.9355 23.1445L149.561 23.1445Q157.373 23.1445 161.426 18.9941Q165.479 14.8438 165.479 7.17773L165.479-53.8574Q165.479-61.4746 161.426-65.6006Q157.373-69.7266 149.561-69.7266L58.9355-69.7266Q51.1719-69.7266 47.0947-65.6738Q43.0176-61.6211 43.0176-53.8574L43.0176 7.17773Q43.0176 14.9902 47.0947 19.0674Q51.1719 23.1445 58.9355 23.1445ZM58.9355-74.2188L135.01-74.2188L135.01-77.4902Q135.01-85.1074 130.957-89.2578Q126.904-93.4082 119.141-93.4082L31.9824-93.4082Q24.1699-93.4082 20.1172-89.3311Q16.0645-85.2539 16.0645-77.4902L16.0645-16.4551Q16.0645-8.64258 20.1172-4.58984Q24.1699-0.537109 31.9824-0.537109L38.5742-0.537109L38.5742-53.8574Q38.5742-60.2539 40.9912-64.8193Q43.4082-69.3848 47.9736-71.8018Q52.5391-74.2188 58.9355-74.2188ZM85.0098 1.17188L85.0098-47.8027Q85.0098-49.3164 86.3281-49.8779Q87.6465-50.4395 89.0625-49.6582L129.98-25.6348Q131.348-24.8047 131.348-23.3154Q131.348-21.8262 130.029-20.9961L89.0625 3.125Q87.6465 3.85742 86.3281 3.27148Q85.0098 2.68555 85.0098 1.17188Z"/>
  </g>
  <g id="Black-M" transform="matrix(1 0 0 1 2854.98 1126)">
   <path d="M58.8379 20.8008L125.195 20.8008Q134.277 20.8008 139.331 15.7715Q144.385 10.7422 144.385 1.66016L144.385-46.2402Q144.385-55.2734 139.331-60.3271Q134.277-65.3809 125.195-65.3809L58.8379-65.3809Q49.7559-65.3809 44.7021-60.3271Q39.6484-55.2734 39.6484-46.2402L39.6484 1.66016Q39.6484 10.7422 44.7021 15.7715Q49.7559 20.8008 58.8379 20.8008ZM58.8379-74.5605L117.041-74.5605L117.041-74.6094Q116.357-82.5684 111.401-86.9629Q106.445-91.3574 97.998-91.3574L31.5918-91.3574Q22.5586-91.3574 17.5049-86.3037Q12.4512-81.25 12.4512-72.2168L12.4512-24.2676Q12.4512-15.5273 17.1387-10.5469Q21.8262-5.56641 30.3711-5.22461L30.4688-5.22461L30.4688-46.2402Q30.4688-54.834 33.9844-61.2061Q37.5-67.5781 43.8721-71.0693Q50.2441-74.5605 58.8379-74.5605ZM77.0996-5.46875L77.0996-38.916Q77.0996-40.8203 78.7842-41.6992Q80.4688-42.5781 82.2266-41.5527L110.693-25Q112.354-24.0723 112.378-22.1924Q112.402-20.3125 110.693-19.3359L82.2266-2.97852Q80.4688-1.95312 78.7842-2.7832Q77.0996-3.61328 77.0996-5.46875Z"/>
  </g>
  <g id="Heavy-M" transform="matrix(1 0 0 1 2559.5 1126)">
   <path d="M57.1777 19.2383L123.633 19.2383Q132.373 19.2383 137.134 14.502Q141.895 9.76562 141.895 1.02539L141.895-46.4355Q141.895-55.0781 137.134-59.8389Q132.373-64.5996 123.633-64.5996L57.1777-64.5996Q48.4375-64.5996 43.6768-59.8389Q38.916-55.0781 38.916-46.4355L38.916 1.02539Q38.916 9.76562 43.6768 14.502Q48.4375 19.2383 57.1777 19.2383ZM57.1777-73.1934L115.186-73.1934L115.186-73.4375Q114.697-81.2988 109.985-85.5469Q105.273-89.7949 97.0215-89.7949L30.7129-89.7949Q21.9727-89.7949 17.2119-85.0342Q12.4512-80.2734 12.4512-71.582L12.4512-24.0723Q12.4512-15.625 16.9434-10.9375Q21.4355-6.25 29.7363-5.95703L30.3223-5.95703L30.3223-46.4355Q30.3223-54.5898 33.6182-60.6201Q36.9141-66.6504 42.9443-69.9219Q48.9746-73.1934 57.1777-73.1934ZM75.7324-5.66406L75.7324-39.5508Q75.7324-41.4062 77.3682-42.2119Q79.0039-43.0176 80.6641-42.041L109.375-25.293Q110.986-24.3652 111.011-22.583Q111.035-20.8008 109.424-19.873L80.6641-3.27148Q79.0039-2.29492 77.3682-3.07617Q75.7324-3.85742 75.7324-5.66406Z"/>
  </g>
  <g id="Bold-M" transform="matrix(1 0 0 1 2264.17 1126)">
   <path d="M55.3711 17.5293L121.924 17.5293Q130.273 17.5293 134.717 13.1104Q139.16 8.69141 139.16 0.390625L139.16-46.6309Q139.16-54.8828 134.717-59.3262Q130.273-63.7695 121.924-63.7695L55.3711-63.7695Q47.0215-63.7695 42.5781-59.3506Q38.1348-54.9316 38.1348-46.6309L38.1348 0.390625Q38.1348 8.69141 42.5781 13.1104Q47.0215 17.5293 55.3711 17.5293ZM55.3711-71.6797L113.184-71.6797L113.184-72.1191Q112.842-79.834 108.423-83.9355Q104.004-88.0371 95.9961-88.0371L29.6875-88.0371Q21.3379-88.0371 16.8945-83.6182Q12.4512-79.1992 12.4512-70.8984L12.4512-23.9258Q12.4512-15.7715 16.7236-11.377Q20.9961-6.98242 29.1016-6.83594L30.1758-6.83594L30.1758-46.6309Q30.1758-54.3457 33.252-59.9854Q36.3281-65.625 41.9678-68.6523Q47.6074-71.6797 55.3711-71.6797ZM74.3164-5.85938L74.3164-40.2832Q74.3164-42.0898 75.8789-42.7979Q77.4414-43.5059 79.0039-42.5781L108.008-25.5859Q109.521-24.7559 109.546-23.0713Q109.57-21.3867 108.057-20.5078L79.0039-3.61328Q77.4414-2.68555 75.8789-3.39355Q74.3164-4.10156 74.3164-5.85938Z"/>
  </g>
  <g id="Semibold-M" transform="matrix(1 0 0 1 1968.41 1126)">
   <path d="M54.1016 16.3086L120.703 16.3086Q128.76 16.3086 133.008 12.1338Q137.256 7.95898 137.256-0.0976562L137.256-46.7285Q137.256-54.7363 133.008-58.9355Q128.76-63.1348 120.703-63.1348L54.1016-63.1348Q45.9961-63.1348 41.7725-58.96Q37.5488-54.7852 37.5488-46.7285L37.5488-0.0976562Q37.5488 7.95898 41.7725 12.1338Q45.9961 16.3086 54.1016 16.3086ZM54.1016-70.6055L111.768-70.6055L111.768-71.1914Q111.523-78.8574 107.324-82.8369Q103.125-86.8164 95.2148-86.8164L29.0039-86.8164Q20.8984-86.8164 16.6748-82.6416Q12.4512-78.4668 12.4512-70.4102L12.4512-23.7793Q12.4512-15.8203 16.5527-11.6699Q20.6543-7.51953 28.6133-7.37305L30.0781-7.37305L30.0781-46.7285Q30.0781-54.1504 32.9834-59.5215Q35.8887-64.8926 41.2598-67.749Q46.6309-70.6055 54.1016-70.6055ZM73.2422-6.00586L73.2422-40.7227Q73.2422-42.5293 74.7559-43.1885Q76.2695-43.8477 77.7344-42.9199L106.982-25.7812Q108.447-24.9512 108.472-23.3643Q108.496-21.7773 107.031-20.9473L77.7344-3.80859Q76.2695-2.92969 74.7559-3.58887Q73.2422-4.24805 73.2422-6.00586Z"/>
  </g>
  <g id="Medium-M" transform="matrix(1 0 0 1 1672.42 1126)">
   <path d="M53.1738 15.3809L119.775 15.3809Q127.686 15.3809 131.763 11.377Q135.84 7.37305 135.84-0.439453L135.84-46.8262Q135.84-54.6387 131.763-58.667Q127.686-62.6953 119.775-62.6953L53.1738-62.6953Q45.2148-62.6953 41.1621-58.6914Q37.1094-54.6875 37.1094-46.8262L37.1094-0.439453Q37.1094 7.37305 41.1621 11.377Q45.2148 15.3809 53.1738 15.3809ZM53.1738-69.7754L110.693-69.7754L110.693-70.5078Q110.547-78.0762 106.494-81.9824Q102.441-85.8887 94.6777-85.8887L28.4668-85.8887Q20.5566-85.8887 16.5039-81.8848Q12.4512-77.8809 12.4512-70.0684L12.4512-23.6816Q12.4512-15.8691 16.4307-11.8896Q20.4102-7.91016 28.2715-7.8125L29.9805-7.8125L29.9805-46.8262Q29.9805-54.0527 32.7637-59.2041Q35.5469-64.3555 40.7227-67.0654Q45.8984-69.7754 53.1738-69.7754ZM72.4609-6.10352L72.4609-41.1133Q72.4609-42.8711 73.9502-43.4814Q75.4395-44.0918 76.8555-43.2617L106.25-25.9766Q107.666-25.1465 107.69-23.6084Q107.715-22.0703 106.299-21.2402L76.8555-4.00391Q75.4395-3.17383 73.9502-3.80859Q72.4609-4.44336 72.4609-6.10352Z"/>
  </g>
  <g id="Regular-M" transform="matrix(1 0 0 1 1376.65 1126)">
   <path d="M51.9043 14.209L118.604 14.209Q126.221 14.209 130.078 10.4248Q133.936 6.64062 133.936-0.927734L133.936-46.9727Q133.936-54.4922 130.078-58.3008Q126.221-62.1094 118.604-62.1094L51.9043-62.1094Q44.2383-62.1094 40.4053-58.3252Q36.5723-54.541 36.5723-46.9727L36.5723-0.927734Q36.5723 6.64062 40.4053 10.4248Q44.2383 14.209 51.9043 14.209ZM51.9043-68.75L109.277-68.75L109.277-69.5801Q109.277-77.0996 105.42-80.9082Q101.562-84.7168 93.9453-84.7168L27.7832-84.7168Q20.1172-84.7168 16.2842-80.9326Q12.4512-77.1484 12.4512-69.5801L12.4512-23.5352Q12.4512-15.9668 16.2842-12.1826Q20.1172-8.39844 27.7832-8.39844L29.8828-8.39844L29.8828-46.9727Q29.8828-53.8574 32.4951-58.7402Q35.1074-63.623 40.0146-66.1865Q44.9219-68.75 51.9043-68.75ZM71.4355-6.25L71.4355-41.6016Q71.4355-43.3105 72.876-43.8721Q74.3164-44.4336 75.6836-43.6035L105.273-26.1719Q106.641-25.3906 106.665-23.9258Q106.689-22.4609 105.322-21.6797L75.6836-4.19922Q74.3164-3.41797 72.876-4.00391Q71.4355-4.58984 71.4355-6.25Z"/>
  </g>
  <g id="Light-M" transform="matrix(1 0 0 1 1080.82 1126)">
   <path d="M50 12.8906L117.773 12.8906Q124.902 12.8906 128.54 9.27734Q132.178 5.66406 132.178-1.36719L132.178-47.8027Q132.178-54.834 128.54-58.4473Q124.902-62.0605 117.773-62.0605L50-62.0605Q42.8223-62.0605 39.209-58.4717Q35.5957-54.8828 35.5957-47.8027L35.5957-1.36719Q35.5957 5.71289 39.209 9.30176Q42.8223 12.8906 50 12.8906ZM50-67.7246L107.861-67.7246L107.861-69.0918Q107.861-76.123 104.224-79.7363Q100.586-83.3496 93.457-83.3496L26.8555-83.3496Q19.6777-83.3496 16.0645-79.7607Q12.4512-76.1719 12.4512-69.0918L12.4512-22.6562Q12.4512-15.5762 16.0645-11.9873Q19.6777-8.39844 26.8555-8.39844L29.8828-8.39844L29.8828-47.8027Q29.8828-54.1016 32.2754-58.5693Q34.668-63.0371 39.1357-65.3809Q43.6035-67.7246 50-67.7246ZM69.7266-6.49414L69.7266-42.627Q69.7266-44.1895 71.0205-44.7021Q72.3145-45.2148 73.6328-44.4336L103.857-26.6602Q105.127-25.9277 105.151-24.5605Q105.176-23.1934 103.906-22.4609L73.6328-4.58984Q72.3145-3.85742 71.0205-4.41895Q69.7266-4.98047 69.7266-6.49414Z"/>
  </g>
  <g id="Thin-M" transform="matrix(1 0 0 1 785.268 1126)">
   <path d="M47.4609 11.1816L116.65 11.1816Q123.145 11.1816 126.489 7.8125Q129.834 4.44336 129.834-1.95312L129.834-48.9258Q129.834-55.2734 126.489-58.667Q123.145-62.0605 116.65-62.0605L47.4609-62.0605Q40.918-62.0605 37.5732-58.7158Q34.2285-55.3711 34.2285-48.9258L34.2285-1.95312Q34.2285 4.49219 37.5732 7.83691Q40.918 11.1816 47.4609 11.1816ZM47.4609-66.3574L105.957-66.3574L105.957-68.4082Q105.957-74.8047 102.612-78.1738Q99.2676-81.543 92.7734-81.543L25.5859-81.543Q19.1406-81.543 15.7959-78.2227Q12.4512-74.9023 12.4512-68.4082L12.4512-21.4844Q12.4512-15.0391 15.7959-11.6943Q19.1406-8.34961 25.5859-8.34961L29.8828-8.34961L29.8828-48.9258Q29.8828-54.4434 31.958-58.3252Q34.0332-62.207 37.9639-64.2822Q41.8945-66.3574 47.4609-66.3574ZM67.4316-6.83594L67.4316-44.043Q67.4316-45.3613 68.5791-45.8496Q69.7266-46.3379 70.8984-45.6055L102.002-27.3438Q103.174-26.6602 103.174-25.415Q103.174-24.1699 102.051-23.4863L70.8984-5.12695Q69.7266-4.49219 68.5791-5.00488Q67.4316-5.51758 67.4316-6.83594Z"/>
  </g>
  <g id="Ultralight-M" transform="matrix(1 0 0 1 489.152 1126)">
   <path d="M46.1426 10.3027L116.113 10.3027Q122.266 10.3027 125.464 7.03125Q128.662 3.75977 128.662-2.24609L128.662-49.4629Q128.662-55.4688 125.464-58.7402Q122.266-62.0117 116.113-62.0117L46.1426-62.0117Q39.9902-62.0117 36.792-58.7891Q33.5938-55.5664 33.5938-49.4629L33.5938-2.24609Q33.5938 3.85742 36.792 7.08008Q39.9902 10.3027 46.1426 10.3027ZM46.1426-65.6738L105.029-65.6738L105.029-68.0664Q105.029-74.1699 101.831-77.3926Q98.6328-80.6152 92.4316-80.6152L24.9512-80.6152Q18.8477-80.6152 15.6494-77.417Q12.4512-74.2188 12.4512-68.0664L12.4512-20.8984Q12.4512-14.7461 15.6494-11.5479Q18.8477-8.34961 24.9512-8.34961L29.8828-8.34961L29.8828-49.4629Q29.8828-54.5898 31.8115-58.2031Q33.7402-61.8164 37.3779-63.7451Q41.0156-65.6738 46.1426-65.6738ZM66.2598-6.98242L66.2598-44.7266Q66.2598-45.9473 67.3096-46.4111Q68.3594-46.875 69.4824-46.1914L101.074-27.6855Q102.148-27.002 102.124-25.8545Q102.1-24.707 101.074-24.0234L69.4824-5.41992Q68.3594-4.83398 67.3096-5.29785Q66.2598-5.76172 66.2598-6.98242Z"/>
  </g>
  <g id="Black-S" transform="matrix(1 0 0 1 2871.63 696)">
   <path d="M46.4844 9.08203L98.5352 9.08203Q105.713 9.08203 109.741 5.05371Q113.77 1.02539 113.77-6.15234L113.77-43.8477Q113.77-51.0254 109.741-55.0537Q105.713-59.082 98.5352-59.082L46.4844-59.082Q39.3066-59.082 35.2783-55.0537Q31.25-51.0254 31.25-43.8477L31.25-6.15234Q31.25 1.02539 35.2783 5.05371Q39.3066 9.08203 46.4844 9.08203ZM46.4844-66.4062L92.1875-66.4062L92.1875-66.4062Q91.6016-72.6562 87.6709-76.123Q83.7402-79.5898 77.0508-79.5898L25-79.5898Q17.8223-79.5898 13.7939-75.5615Q9.76562-71.5332 9.76562-64.3555L9.76562-26.6602Q9.76562-19.7266 13.501-15.7471Q17.2363-11.7676 23.9258-11.4746L23.9258-11.4746L23.9258-43.8477Q23.9258-50.6836 26.7334-55.7373Q29.541-60.791 34.6191-63.5986Q39.6973-66.4062 46.4844-66.4062ZM60.7422-11.8652L60.7422-37.9883Q60.7422-39.502 62.085-40.21Q63.4277-40.918 64.7949-40.0879L87.0605-27.1484Q88.3789-26.416 88.4033-24.9268Q88.4277-23.4375 87.0605-22.6562L64.7949-9.91211Q63.4277-9.13086 62.085-9.76562Q60.7422-10.4004 60.7422-11.8652Z"/>
  </g>
  <g id="Heavy-S" transform="matrix(1 0 0 1 2575.87 696)">
   <path d="M45.3125 7.91016L97.3145 7.91016Q104.248 7.91016 108.057 4.10156Q111.865 0.292969 111.865-6.5918L111.865-43.8965Q111.865-50.8301 108.057-54.6387Q104.248-58.4473 97.3145-58.4473L45.3125-58.4473Q38.3789-58.4473 34.5703-54.6387Q30.7617-50.8301 30.7617-43.8965L30.7617-6.5918Q30.7617 0.341797 34.5703 4.12598Q38.3789 7.91016 45.3125 7.91016ZM45.3125-65.3809L90.7715-65.3809L90.7715-65.4297Q90.332-71.6797 86.5967-75.0488Q82.8613-78.418 76.2695-78.418L24.3652-78.418Q17.3828-78.418 13.5742-74.6094Q9.76562-70.8008 9.76562-63.8672L9.76562-26.6113Q9.76562-19.873 13.3545-16.1133Q16.9434-12.3535 23.5352-12.1094L23.8281-12.1094L23.8281-43.8965Q23.8281-50.4395 26.4648-55.249Q29.1016-60.0586 33.9355-62.7197Q38.7695-65.3809 45.3125-65.3809ZM59.8145-12.0117L59.8145-38.3789Q59.8145-39.8926 61.1328-40.5273Q62.4512-41.1621 63.7207-40.3809L86.1328-27.3438Q87.4023-26.6113 87.4268-25.1953Q87.4512-23.7793 86.1328-22.998L63.7207-10.1074Q62.4512-9.32617 61.1328-9.93652Q59.8145-10.5469 59.8145-12.0117Z"/>
  </g>
  <g id="Bold-S" transform="matrix(1 0 0 1 2280.21 696)">
   <path d="M44.043 6.64062L95.9473 6.64062Q102.637 6.64062 106.201 3.07617Q109.766-0.488281 109.766-7.12891L109.766-43.9453Q109.766-50.6348 106.201-54.1748Q102.637-57.7148 95.9473-57.7148L44.043-57.7148Q37.3535-57.7148 33.7891-54.1748Q30.2246-50.6348 30.2246-43.9453L30.2246-7.12891Q30.2246-0.488281 33.7891 3.07617Q37.3535 6.64062 44.043 6.64062ZM44.043-64.209L89.2578-64.209L89.2578-64.4043Q88.9648-70.6055 85.4492-73.877Q81.9336-77.1484 75.4395-77.1484L23.6328-77.1484Q16.8945-77.1484 13.3301-73.584Q9.76562-70.0195 9.76562-63.3789L9.76562-26.5625Q9.76562-20.0195 13.1836-16.5039Q16.6016-12.9883 23.0957-12.8418L23.6816-12.8418L23.6816-43.9453Q23.6816-50.1953 26.1719-54.7363Q28.6621-59.2773 33.2275-61.7432Q37.793-64.209 44.043-64.209ZM58.7891-12.1582L58.7891-38.8672Q58.7891-40.332 60.0586-40.918Q61.3281-41.5039 62.5977-40.7715L85.1562-27.5391Q86.3281-26.8555 86.3525-25.5127Q86.377-24.1699 85.1562-23.4375L62.5977-10.3516Q61.3281-9.61914 60.0586-10.1807Q58.7891-10.7422 58.7891-12.1582Z"/>
  </g>
  <g id="Semibold-S" transform="matrix(1 0 0 1 1984.23 696)">
   <path d="M43.1641 5.71289L94.9707 5.71289Q101.514 5.71289 104.907 2.34375Q108.301-1.02539 108.301-7.4707L108.301-43.9941Q108.301-50.4395 104.907-53.8086Q101.514-57.1777 94.9707-57.1777L43.1641-57.1777Q36.6211-57.1777 33.2275-53.8086Q29.834-50.4395 29.834-43.9941L29.834-7.4707Q29.834-1.02539 33.2275 2.34375Q36.6211 5.71289 43.1641 5.71289ZM43.1641-63.4277L88.1348-63.4277L88.1348-63.623Q87.9883-69.8242 84.6191-73.0225Q81.25-76.2207 74.8535-76.2207L23.0957-76.2207Q16.5527-76.2207 13.1592-72.8516Q9.76562-69.4824 9.76562-62.9883L9.76562-26.5137Q9.76562-20.1172 13.0615-16.7725Q16.3574-13.4277 22.7539-13.3301L23.584-13.3301L23.584-43.9941Q23.584-50 25.9521-54.3701Q28.3203-58.7402 32.6904-61.084Q37.0605-63.4277 43.1641-63.4277ZM58.0566-12.2559L58.0566-39.1602Q58.0566-40.625 59.3018-41.1621Q60.5469-41.6992 61.7188-40.9668L84.4238-27.6855Q85.5469-27.002 85.5713-25.708Q85.5957-24.4141 84.4238-23.7305L61.7188-10.498Q60.5469-9.76562 59.3018-10.3027Q58.0566-10.8398 58.0566-12.2559Z"/>
  </g>
  <g id="Medium-S" transform="matrix(1 0 0 1 1688.07 696)">
   <path d="M42.4805 5.0293L94.2383 5.0293Q100.684 5.0293 103.955 1.78223Q107.227-1.46484 107.227-7.76367L107.227-43.9941Q107.227-50.3418 103.955-53.5645Q100.684-56.7871 94.2383-56.7871L42.4805-56.7871Q36.084-56.7871 32.8125-53.5645Q29.541-50.3418 29.541-43.9941L29.541-7.76367Q29.541-1.41602 32.8125 1.80664Q36.084 5.0293 42.4805 5.0293ZM42.4805-62.793L87.3535-62.793L87.3535-63.0859Q87.2559-69.2383 83.9844-72.3877Q80.7129-75.5371 74.4141-75.5371L22.7051-75.5371Q16.3086-75.5371 13.0371-72.29Q9.76562-69.043 9.76562-62.6953L9.76562-26.5137Q9.76562-20.2148 12.9883-16.9922Q16.2109-13.7695 22.5098-13.7207L23.5352-13.7207L23.5352-43.9941Q23.5352-49.9023 25.8057-54.1016Q28.0762-58.3008 32.2998-60.5469Q36.5234-62.793 42.4805-62.793ZM57.5195-12.3535L57.5195-39.4043Q57.5195-40.8691 58.7402-41.3818Q59.9609-41.8945 61.1328-41.1621L83.8867-27.7832Q85.0098-27.1484 85.0342-25.9033Q85.0586-24.6582 83.9355-23.9258L61.1328-10.5957Q59.9609-9.91211 58.7402-10.4248Q57.5195-10.9375 57.5195-12.3535Z"/>
  </g>
  <g id="Regular-S" transform="matrix(1 0 0 1 1392.08 696)">
   <path d="M41.6016 4.15039L93.3105 4.15039Q99.5605 4.15039 102.661 1.07422Q105.762-2.00195 105.762-8.10547L105.762-44.043Q105.762-50.1953 102.661-53.2471Q99.5605-56.2988 93.3105-56.2988L41.6016-56.2988Q35.3516-56.2988 32.251-53.2471Q29.1504-50.1953 29.1504-44.043L29.1504-8.10547Q29.1504-1.95312 32.251 1.09863Q35.3516 4.15039 41.6016 4.15039ZM41.6016-62.0117L86.2793-62.0117L86.2793-62.3535Q86.2793-68.5059 83.1787-71.582Q80.0781-74.6582 73.8281-74.6582L22.2168-74.6582Q15.9668-74.6582 12.8662-71.582Q9.76562-68.5059 9.76562-62.3535L9.76562-26.4648Q9.76562-20.3125 12.8662-17.2607Q15.9668-14.209 22.2168-14.209L23.4375-14.209L23.4375-44.043Q23.4375-49.707 25.5859-53.7354Q27.7344-57.7637 31.7871-59.8877Q35.8398-62.0117 41.6016-62.0117ZM56.7871-12.4512L56.7871-39.6973Q56.7871-41.1621 57.9834-41.626Q59.1797-42.0898 60.3027-41.4062L83.1543-27.9297Q84.2285-27.2949 84.2529-26.0986Q84.2773-24.9023 83.2031-24.2188L60.3027-10.7422Q59.1797-10.0586 57.9834-10.5469Q56.7871-11.0352 56.7871-12.4512Z"/>
  </g>
  <g id="Light-S" transform="matrix(1 0 0 1 1096.14 696)">
   <path d="M39.8926 2.97852L92.5781 2.97852Q98.3887 2.97852 101.294 0.0732422Q104.199-2.83203 104.199-8.49609L104.199-44.7754Q104.199-50.4883 101.294-53.3691Q98.3887-56.25 92.5781-56.25L39.8926-56.25Q34.082-56.25 31.1768-53.3691Q28.2715-50.4883 28.2715-44.7754L28.2715-8.49609Q28.2715-2.7832 31.1768 0.0976562Q34.082 2.97852 39.8926 2.97852ZM39.8926-61.084L85.0098-61.084L85.0098-61.9141Q85.0098-67.627 82.1045-70.5322Q79.1992-73.4375 73.3887-73.4375L21.3867-73.4375Q15.5762-73.4375 12.6709-70.5566Q9.76562-67.6758 9.76562-61.9141L9.76562-25.6836Q9.76562-19.9707 12.6709-17.0898Q15.5762-14.209 21.3867-14.209L23.4375-14.209L23.4375-44.7754Q23.4375-49.9023 25.3906-53.5645Q27.3438-57.2266 31.0059-59.1553Q34.668-61.084 39.8926-61.084ZM55.2734-12.6465L55.2734-40.625Q55.2734-41.9434 56.3477-42.3828Q57.4219-42.8223 58.4961-42.1875L81.9336-28.3691Q82.9102-27.7832 82.9346-26.6846Q82.959-25.5859 81.9336-24.9023L58.4961-11.1328Q57.4219-10.498 56.3477-10.9375Q55.2734-11.377 55.2734-12.6465Z"/>
  </g>
  <g id="Thin-S" transform="matrix(1 0 0 1 800.451 696)">
   <path d="M37.6465 1.46484L91.6016 1.46484Q96.8262 1.46484 99.5117-1.24512Q102.197-3.95508 102.197-9.0332L102.197-45.752Q102.197-50.8789 99.5117-53.5645Q96.8262-56.25 91.6016-56.25L37.6465-56.25Q32.4219-56.25 29.7607-53.5645Q27.0996-50.8789 27.0996-45.752L27.0996-9.0332Q27.0996-3.85742 29.7607-1.19629Q32.4219 1.46484 37.6465 1.46484ZM37.6465-59.9121L83.3496-59.9121L83.3496-61.3281Q83.3496-66.4551 80.6885-69.1406Q78.0273-71.8262 72.8027-71.8262L20.3125-71.8262Q15.0879-71.8262 12.4268-69.1895Q9.76562-66.5527 9.76562-61.3281L9.76562-24.6582Q9.76562-19.4824 12.4268-16.8213Q15.0879-14.1602 20.3125-14.1602L23.4375-14.1602L23.4375-45.752Q23.4375-50.1953 25.1221-53.3691Q26.8066-56.543 29.9805-58.2275Q33.1543-59.9121 37.6465-59.9121ZM53.2715-12.8906L53.2715-41.8457Q53.2715-42.9199 54.1992-43.3105Q55.127-43.7012 56.1035-43.1641L80.2734-28.9551Q81.2012-28.3691 81.2012-27.3926Q81.2012-26.416 80.2734-25.8301L56.1035-11.5723Q55.127-11.0352 54.1992-11.4258Q53.2715-11.8164 53.2715-12.8906Z"/>
  </g>
  <g id="Ultralight-S" transform="matrix(1 0 0 1 504.263 696)">
   <path d="M36.5234 0.634766L91.1133 0.634766Q95.9961 0.634766 98.5596-1.92871Q101.123-4.49219 101.123-9.32617L101.123-46.2402Q101.123-51.0742 98.5596-53.6377Q95.9961-56.2012 91.1133-56.2012L36.5234-56.2012Q31.5918-56.2012 29.0527-53.6621Q26.5137-51.123 26.5137-46.2402L26.5137-9.32617Q26.5137-4.39453 29.0527-1.87988Q31.5918 0.634766 36.5234 0.634766ZM36.5234-59.2773L82.5195-59.2773L82.5195-61.0352Q82.5195-65.8691 79.9805-68.457Q77.4414-71.0449 72.5098-71.0449L19.7754-71.0449Q14.8438-71.0449 12.3047-68.5059Q9.76562-65.9668 9.76562-61.0352L9.76562-24.1699Q9.76562-19.2383 12.3047-16.6992Q14.8438-14.1602 19.7754-14.1602L23.4375-14.1602L23.4375-46.2402Q23.4375-50.3418 25-53.2471Q26.5625-56.1523 29.4678-57.7148Q32.373-59.2773 36.5234-59.2773ZM52.2461-13.0371L52.2461-42.4805Q52.2461-43.457 53.1006-43.8232Q53.9551-44.1895 54.834-43.6523L79.4434-29.248Q80.3223-28.6621 80.3223-27.7588Q80.3223-26.8555 79.4434-26.2695L54.834-11.8164Q53.9551-11.3281 53.1006-11.6943Q52.2461-12.0605 52.2461-13.0371Z"/>
  </g>
 </g>
</svg>
