<?xml version="1.0" encoding="UTF-8"?>
<!--Generator: Apple Native CoreSVG 175.5-->
<!DOCTYPE svg
PUBLIC "-//W3C//DTD SVG 1.1//EN"
       "http://www.w3.org/Graphics/SVG/1.1/DTD/svg11.dtd">
<svg version="1.1" xmlns="http://www.w3.org/2000/svg" xmlns:xlink="http://www.w3.org/1999/xlink" width="3300" height="2200">
 <!--glyph: "uni10095D.medium", point size: 100.0, font version: "18.0d12e2", template writer version: "101"-->
 <g id="Notes">
  <rect height="2200" id="artboard" style="fill:white;opacity:1" width="3300" x="0" y="0"/>
  <line style="fill:none;stroke:black;opacity:1;stroke-width:0.5;" x1="263" x2="3036" y1="292" y2="292"/>
  <text style="stroke:none;fill:black;font-family:sans-serif;font-size:13;font-weight:bold;" transform="matrix(1 0 0 1 263 322)">Weight/Scale Variations</text>
  <text style="stroke:none;fill:black;font-family:sans-serif;font-size:13;text-anchor:middle;" transform="matrix(1 0 0 1 559.711 322)">Ultralight</text>
  <text style="stroke:none;fill:black;font-family:sans-serif;font-size:13;text-anchor:middle;" transform="matrix(1 0 0 1 856.422 322)">Thin</text>
  <text style="stroke:none;fill:black;font-family:sans-serif;font-size:13;text-anchor:middle;" transform="matrix(1 0 0 1 1153.13 322)">Light</text>
  <text style="stroke:none;fill:black;font-family:sans-serif;font-size:13;text-anchor:middle;" transform="matrix(1 0 0 1 1449.84 322)">Regular</text>
  <text style="stroke:none;fill:black;font-family:sans-serif;font-size:13;text-anchor:middle;" transform="matrix(1 0 0 1 1746.56 322)">Medium</text>
  <text style="stroke:none;fill:black;font-family:sans-serif;font-size:13;text-anchor:middle;" transform="matrix(1 0 0 1 2043.27 322)">Semibold</text>
  <text style="stroke:none;fill:black;font-family:sans-serif;font-size:13;text-anchor:middle;" transform="matrix(1 0 0 1 2339.98 322)">Bold</text>
  <text style="stroke:none;fill:black;font-family:sans-serif;font-size:13;text-anchor:middle;" transform="matrix(1 0 0 1 2636.69 322)">Heavy</text>
  <text style="stroke:none;fill:black;font-family:sans-serif;font-size:13;text-anchor:middle;" transform="matrix(1 0 0 1 2933.4 322)">Black</text>
  <line style="fill:none;stroke:black;opacity:1;stroke-width:0.5;" x1="263" x2="3036" y1="1903" y2="1903"/>
  <g transform="matrix(1 0 0 1 263 1933)">
   <path d="M9.24805 0.830078C13.5547 0.830078 17.1387-2.74414 17.1387-7.05078C17.1387-11.3574 13.5449-14.9316 9.23828-14.9316C4.94141-14.9316 1.36719-11.3574 1.36719-7.05078C1.36719-2.74414 4.95117 0.830078 9.24805 0.830078ZM9.24805-0.654297C5.70312-0.654297 2.87109-3.49609 2.87109-7.05078C2.87109-10.6055 5.69336-13.4473 9.23828-13.4473C12.793-13.4473 15.6445-10.6055 15.6445-7.05078C15.6445-3.49609 12.8027-0.654297 9.24805-0.654297ZM5.6543-7.05078C5.6543-6.62109 5.95703-6.32812 6.40625-6.32812L8.50586-6.32812L8.50586-4.20898C8.50586-3.76953 8.79883-3.4668 9.22852-3.4668C9.67773-3.4668 9.9707-3.76953 9.9707-4.20898L9.9707-6.32812L12.0898-6.32812C12.5293-6.32812 12.832-6.62109 12.832-7.05078C12.832-7.49023 12.5293-7.79297 12.0898-7.79297L9.9707-7.79297L9.9707-9.90234C9.9707-10.3516 9.67773-10.6543 9.22852-10.6543C8.79883-10.6543 8.50586-10.3516 8.50586-9.90234L8.50586-7.79297L6.40625-7.79297C5.95703-7.79297 5.6543-7.49023 5.6543-7.05078Z"/>
  </g>
  <g transform="matrix(1 0 0 1 281.867 1933)">
   <path d="M11.709 2.91016C17.1582 2.91016 21.6699-1.61133 21.6699-7.05078C21.6699-12.5 17.1484-17.0117 11.6992-17.0117C6.25977-17.0117 1.74805-12.5 1.74805-7.05078C1.74805-1.61133 6.26953 2.91016 11.709 2.91016ZM11.709 1.25C7.09961 1.25 3.41797-2.44141 3.41797-7.05078C3.41797-11.6602 7.08984-15.3516 11.6992-15.3516C16.3086-15.3516 20.0098-11.6602 20.0098-7.05078C20.0098-2.44141 16.3184 1.25 11.709 1.25ZM7.17773-7.05078C7.17773-6.57227 7.50977-6.25 8.00781-6.25L10.8789-6.25L10.8789-3.36914C10.8789-2.88086 11.2109-2.53906 11.6895-2.53906C12.1777-2.53906 12.5195-2.87109 12.5195-3.36914L12.5195-6.25L15.4004-6.25C15.8887-6.25 16.2305-6.57227 16.2305-7.05078C16.2305-7.53906 15.8887-7.88086 15.4004-7.88086L12.5195-7.88086L12.5195-10.752C12.5195-11.25 12.1777-11.5918 11.6895-11.5918C11.2109-11.5918 10.8789-11.25 10.8789-10.752L10.8789-7.88086L8.00781-7.88086C7.50977-7.88086 7.17773-7.53906 7.17773-7.05078Z"/>
  </g>
  <g transform="matrix(1 0 0 1 305.646 1933)">
   <path d="M14.9707 5.66406C21.9336 5.66406 27.6953-0.0976562 27.6953-7.05078C27.6953-14.0137 21.9238-19.7754 14.9609-19.7754C8.00781-19.7754 2.25586-14.0137 2.25586-7.05078C2.25586-0.0976562 8.01758 5.66406 14.9707 5.66406ZM14.9707 3.84766C8.93555 3.84766 4.08203-1.01562 4.08203-7.05078C4.08203-13.0957 8.92578-17.9492 14.9609-17.9492C21.0059-17.9492 25.8691-13.0957 25.8691-7.05078C25.8691-1.01562 21.0156 3.84766 14.9707 3.84766ZM9.19922-7.05078C9.19922-6.5332 9.57031-6.17188 10.1172-6.17188L14.0625-6.17188L14.0625-2.2168C14.0625-1.67969 14.4336-1.29883 14.9512-1.29883C15.4883-1.29883 15.8594-1.66992 15.8594-2.2168L15.8594-6.17188L19.8145-6.17188C20.3516-6.17188 20.7324-6.5332 20.7324-7.05078C20.7324-7.59766 20.3613-7.96875 19.8145-7.96875L15.8594-7.96875L15.8594-11.9141C15.8594-12.4609 15.4883-12.8418 14.9512-12.8418C14.4336-12.8418 14.0625-12.4609 14.0625-11.9141L14.0625-7.96875L10.1172-7.96875C9.57031-7.96875 9.19922-7.59766 9.19922-7.05078Z"/>
  </g>
  <text style="stroke:none;fill:black;font-family:sans-serif;font-size:13;font-weight:bold;" transform="matrix(1 0 0 1 263 1953)">Design Variations</text>
  <text style="stroke:none;fill:black;font-family:sans-serif;font-size:13;" transform="matrix(1 0 0 1 263 1971)">Symbols are supported in up to nine weights and three scales.</text>
  <text style="stroke:none;fill:black;font-family:sans-serif;font-size:13;" transform="matrix(1 0 0 1 263 1989)">For optimal layout with text and other symbols, vertically align</text>
  <text style="stroke:none;fill:black;font-family:sans-serif;font-size:13;" transform="matrix(1 0 0 1 263 2007)">symbols with the adjacent text.</text>
  <line style="fill:none;stroke:#00AEEF;stroke-width:0.5;opacity:1.0;" x1="776" x2="776" y1="1919" y2="1933"/>
  <g transform="matrix(1 0 0 1 776 1933)">
   <path d="M3.31055 0.15625C3.82812 0.15625 4.08203-0.0390625 4.26758-0.585938L5.52734-4.0332L11.2891-4.0332L12.5488-0.585938C12.7344-0.0390625 12.9883 0.15625 13.4961 0.15625C14.0137 0.15625 14.3457-0.15625 14.3457-0.644531C14.3457-0.810547 14.3164-0.966797 14.2383-1.17188L9.6582-13.3691C9.43359-13.9648 9.0332-14.2676 8.4082-14.2676C7.80273-14.2676 7.39258-13.9746 7.17773-13.3789L2.59766-1.16211C2.51953-0.957031 2.49023-0.800781 2.49023-0.634766C2.49023-0.146484 2.80273 0.15625 3.31055 0.15625ZM6.00586-5.51758L8.37891-12.0898L8.42773-12.0898L10.8008-5.51758Z"/>
  </g>
  <line style="fill:none;stroke:#00AEEF;stroke-width:0.5;opacity:1.0;" x1="793.197" x2="793.197" y1="1919" y2="1933"/>
  <text style="stroke:none;fill:black;font-family:sans-serif;font-size:13;font-weight:bold;" transform="matrix(1 0 0 1 776 1953)">Margins</text>
  <text style="stroke:none;fill:black;font-family:sans-serif;font-size:13;" transform="matrix(1 0 0 1 776 1971)">Leading and trailing margins on the left and right side of each symbol</text>
  <text style="stroke:none;fill:black;font-family:sans-serif;font-size:13;" transform="matrix(1 0 0 1 776 1989)">can be adjusted by modifying the x-location of the margin guidelines.</text>
  <text style="stroke:none;fill:black;font-family:sans-serif;font-size:13;" transform="matrix(1 0 0 1 776 2007)">Modifications are automatically applied proportionally to all</text>
  <text style="stroke:none;fill:black;font-family:sans-serif;font-size:13;" transform="matrix(1 0 0 1 776 2025)">scales and weights.</text>
  <g transform="matrix(1 0 0 1 1289 1933)">
   <path d="M2.8418 1.86523L4.54102 3.57422C5.40039 4.44336 6.38672 4.38477 7.31445 3.35938L18.0078-8.42773L17.041-9.4043L6.42578 2.27539C6.07422 2.67578 5.74219 2.77344 5.27344 2.30469L4.10156 1.14258C3.63281 0.683594 3.74023 0.341797 4.14062-0.0195312L15.6152-10.8203L14.6387-11.7871L3.04688-0.898438C2.06055 0.0195312 1.98242 0.996094 2.8418 1.86523ZM9.25781-16.3281C8.83789-15.918 8.80859-15.3418 9.04297-14.9512C9.27734-14.5898 9.73633-14.3555 10.3809-14.5215C11.8457-14.8633 13.3691-14.9219 14.7949-13.9844L14.209-12.5293C13.8672-11.6992 14.043-11.1133 14.5801-10.5664L16.875-8.25195C17.3633-7.76367 17.7734-7.74414 18.3398-7.8418L19.4043-8.03711L20.0684-7.36328L20.0293-6.80664C19.9902-6.30859 20.1172-5.92773 20.6055-5.44922L21.3672-4.70703C21.8457-4.22852 22.4609-4.19922 22.9297-4.66797L25.8398-7.58789C26.3086-8.05664 26.2891-8.65234 25.8105-9.13086L25.0391-9.89258C24.5605-10.3711 24.1895-10.5273 23.7109-10.4883L23.1348-10.4395L22.4902-11.0742L22.7344-12.1973C22.8613-12.7637 22.7051-13.2031 22.1191-13.7891L19.9219-15.9766C16.582-19.2969 12.1484-19.2188 9.25781-16.3281ZM10.752-15.957C13.1836-17.7344 16.4746-17.4316 18.7012-15.2051L21.1328-12.793C21.3672-12.5586 21.4062-12.373 21.3379-12.0312L21.0156-10.5469L22.5195-9.0625L23.5059-9.12109C23.7598-9.13086 23.8379-9.11133 24.0332-8.91602L24.6094-8.33984L22.168-5.89844L21.5918-6.47461C21.3965-6.66992 21.3672-6.74805 21.377-7.01172L21.4453-7.98828L19.9512-9.47266L18.4277-9.21875C18.1055-9.15039 17.959-9.17969 17.7148-9.41406L15.7129-11.416C15.459-11.6504 15.4297-11.8164 15.5859-12.1875L16.4648-14.2773C14.9023-15.7324 12.8711-16.3574 10.8398-15.7617C10.6836-15.7227 10.625-15.8496 10.752-15.957Z"/>
  </g>
  <text style="stroke:none;fill:black;font-family:sans-serif;font-size:13;font-weight:bold;" transform="matrix(1 0 0 1 1289 1953)">Exporting</text>
  <text style="stroke:none;fill:black;font-family:sans-serif;font-size:13;" transform="matrix(1 0 0 1 1289 1971)">Symbols should be outlined when exporting to ensure the</text>
  <text style="stroke:none;fill:black;font-family:sans-serif;font-size:13;" transform="matrix(1 0 0 1 1289 1989)">design is preserved when submitting to Xcode.</text>
  <text id="template-version" style="stroke:none;fill:black;font-family:sans-serif;font-size:13;text-anchor:end;" transform="matrix(1 0 0 1 3036 1933)">Template v.2.0</text>
  <text style="stroke:none;fill:black;font-family:sans-serif;font-size:13;text-anchor:end;" transform="matrix(1 0 0 1 3036 1951)">Requires Xcode 12 or greater</text>
  <text id="descriptive-name" style="stroke:none;fill:black;font-family:sans-serif;font-size:13;text-anchor:end;" transform="matrix(1 0 0 1 3036 1969)">Generated from rectangle.center.inset.filled</text>
  <text style="stroke:none;fill:black;font-family:sans-serif;font-size:13;text-anchor:end;" transform="matrix(1 0 0 1 3036 1987)">Typeset at 100 points</text>
  <text style="stroke:none;fill:black;font-family:sans-serif;font-size:13;" transform="matrix(1 0 0 1 263 726)">Small</text>
  <text style="stroke:none;fill:black;font-family:sans-serif;font-size:13;" transform="matrix(1 0 0 1 263 1156)">Medium</text>
  <text style="stroke:none;fill:black;font-family:sans-serif;font-size:13;" transform="matrix(1 0 0 1 263 1586)">Large</text>
 </g>
 <g id="Guides">
  <g id="H-reference" style="fill:#27AAE1;stroke:none;" transform="matrix(1 0 0 1 339 696)">
   <path d="M0.993654 0L3.63775 0L29.3281-67.1323L30.0303-67.1323L30.0303-70.459L28.1226-70.459ZM11.6885-24.4799L46.9815-24.4799L46.2315-26.7285L12.4385-26.7285ZM55.1196 0L57.7637 0L30.6382-70.459L29.4326-70.459L29.4326-67.1323Z"/>
  </g>
  <line id="Baseline-S" style="fill:none;stroke:#27AAE1;opacity:1;stroke-width:0.5;" x1="263" x2="3036" y1="696" y2="696"/>
  <line id="Capline-S" style="fill:none;stroke:#27AAE1;opacity:1;stroke-width:0.5;" x1="263" x2="3036" y1="625.541" y2="625.541"/>
  <g id="H-reference" style="fill:#27AAE1;stroke:none;" transform="matrix(1 0 0 1 339 1126)">
   <path d="M0.993654 0L3.63775 0L29.3281-67.1323L30.0303-67.1323L30.0303-70.459L28.1226-70.459ZM11.6885-24.4799L46.9815-24.4799L46.2315-26.7285L12.4385-26.7285ZM55.1196 0L57.7637 0L30.6382-70.459L29.4326-70.459L29.4326-67.1323Z"/>
  </g>
  <line id="Baseline-M" style="fill:none;stroke:#27AAE1;opacity:1;stroke-width:0.5;" x1="263" x2="3036" y1="1126" y2="1126"/>
  <line id="Capline-M" style="fill:none;stroke:#27AAE1;opacity:1;stroke-width:0.5;" x1="263" x2="3036" y1="1055.54" y2="1055.54"/>
  <g id="H-reference" style="fill:#27AAE1;stroke:none;" transform="matrix(1 0 0 1 339 1556)">
   <path d="M0.993654 0L3.63775 0L29.3281-67.1323L30.0303-67.1323L30.0303-70.459L28.1226-70.459ZM11.6885-24.4799L46.9815-24.4799L46.2315-26.7285L12.4385-26.7285ZM55.1196 0L57.7637 0L30.6382-70.459L29.4326-70.459L29.4326-67.1323Z"/>
  </g>
  <line id="Baseline-L" style="fill:none;stroke:#27AAE1;opacity:1;stroke-width:0.5;" x1="263" x2="3036" y1="1556" y2="1556"/>
  <line id="Capline-L" style="fill:none;stroke:#27AAE1;opacity:1;stroke-width:0.5;" x1="263" x2="3036" y1="1485.54" y2="1485.54"/>
  <line id="left-margin" style="fill:none;stroke:#00AEEF;stroke-width:0.5;opacity:1.0;" x1="1379.84" x2="1379.84" y1="1030.79" y2="1150.12"/>
  <line id="right-margin" style="fill:none;stroke:#00AEEF;stroke-width:0.5;opacity:1.0;" x1="1519.85" x2="1519.85" y1="1030.79" y2="1150.12"/>
 </g>
 <g id="Symbols">
  <g id="Black-L" transform="matrix(1 0 0 1 2841.56 1556)">
   <path d="M60.7975-11.6174L122.772-11.6174C125.046-11.6174 126.009-12.6381 126.009-14.9533L126.009-55.4484C126.009-57.7428 125.046-58.7635 122.772-58.7635L60.7975-58.7635C58.5239-58.7635 57.5812-57.7428 57.5812-55.4484L57.5812-14.9533C57.5812-12.6381 58.5239-11.6174 60.7975-11.6174ZM39.8556 26.4201L143.831 26.4201C158.995 26.4201 167.603 17.8102 167.603 2.71095L167.603-73.0919C167.603-88.1912 158.995-96.8011 143.831-96.8011L39.8556-96.8011C24.7123-96.8011 16.084-88.1936 16.084-73.0919L16.084 2.71095C16.084 17.8126 24.7123 26.4201 39.8556 26.4201ZM42.5864 6.41832C38.2704 6.41832 36.065 4.48814 36.065-0.123868L36.065-70.2571C36.065-74.8899 38.2704-76.7993 42.5864-76.7993L141.1-76.7993C145.411-76.7993 147.622-74.8899 147.622-70.2571L147.622-0.123868C147.622 4.48814 145.411 6.41832 141.1 6.41832Z"/>
  </g>
  <g id="Heavy-L" transform="matrix(1 0 0 1 2545.23 1556)">
   <path d="M59.5566-10.317L123.272-10.317C126.071-10.317 127.272-11.5567 127.272-14.4162L127.272-56.0038C127.272-58.8331 126.071-60.0728 123.272-60.0728L59.5566-60.0728C56.7575-60.0728 55.5871-58.8331 55.5871-56.0038L55.5871-14.4162C55.5871-11.5567 56.7575-10.317 59.5566-10.317ZM38.8315 25.5046L144.087 25.5046C158.73 25.5046 166.834 17.3888 166.834 2.84772L166.834-73.2375C166.834-87.7786 158.73-95.8944 144.087-95.8944L38.8315-95.8944C24.2188-95.8944 16.084-87.7898 16.084-73.2375L16.084 2.84772C16.084 17.4 24.2188 25.5046 38.8315 25.5046ZM40.9557 7.97405C36.118 7.97405 33.5844 5.67933 33.5844 0.57256L33.5844-70.9624C33.5844-76.0993 36.118-78.3638 40.9557-78.3638L141.963-78.3638C146.778-78.3638 149.334-76.0993 149.334-70.9624L149.334 0.57256C149.334 5.67933 146.778 7.97405 141.963 7.97405Z"/>
  </g>
  <g id="Bold-L" transform="matrix(1 0 0 1 2249.01 1556)">
   <path d="M58.0347-8.72585L123.843-8.72585C127.272-8.72585 128.765-10.2345 128.765-13.7403L128.765-56.7027C128.765-60.1705 127.272-61.6792 123.843-61.6792L58.0347-61.6792C54.6049-61.6792 53.1502-60.1705 53.1502-56.7027L53.1502-13.7403C53.1502-10.2345 54.6049-8.72585 58.0347-8.72585ZM37.5412 24.3601L144.394 24.3601C158.347 24.3601 165.852 16.829 165.852 3.01678L165.852-73.4218C165.852-87.2341 158.347-94.7651 144.394-94.7651L37.5412-94.7651C23.6265-94.7651 16.084-87.2605 16.084-73.4218L16.084 3.01678C16.084 16.8555 23.6265 24.3601 37.5412 24.3601ZM38.987 9.88032C33.4665 9.88032 30.5257 7.1323 30.5257 1.38106L30.5257-71.7861C30.5257-77.5753 33.4665-80.2853 38.987-80.2853L142.949-80.2853C148.416-80.2853 151.41-77.5753 151.41-71.7861L151.41 1.38106C151.41 7.1323 148.416 9.88032 142.949 9.88032Z"/>
  </g>
  <g id="Semibold-L" transform="matrix(1 0 0 1 1952.64 1556)">
   <path d="M56.9856-7.62889L124.236-7.62889C128.1-7.62889 129.794-9.32301 129.794-13.2744L129.794-57.1845C129.794-61.0925 128.1-62.7866 124.236-62.7866L56.9856-62.7866C53.1209-62.7866 51.4703-61.0925 51.4703-57.1845L51.4703-13.2744C51.4703-9.32301 53.1209-7.62889 56.9856-7.62889ZM36.6517 23.571L144.607 23.571C158.083 23.571 165.174 16.4431 165.174 3.13332L165.174-73.5488C165.174-86.8587 158.083-93.9865 144.607-93.9865L36.6517-93.9865C23.2182-93.9865 16.084-86.8956 16.084-73.5488L16.084 3.13332C16.084 16.4801 23.2182 23.571 36.6517 23.571ZM37.6298 11.1945C31.6387 11.1945 28.4171 8.13396 28.4171 1.93843L28.4171-72.354C28.4171-78.5929 31.6387-81.61 37.6298-81.61L143.628-81.61C149.546-81.61 152.841-78.5929 152.841-72.354L152.841 1.93843C152.841 8.13396 149.546 11.1945 143.628 11.1945Z"/>
  </g>
  <g id="Medium-L" transform="matrix(1 0 0 1 1656.18 1556)">
   <path d="M56.19-6.79714L124.534-6.79714C128.728-6.79714 130.575-8.63187 130.575-12.9211L130.575-57.5499C130.575-61.7916 128.728-63.6264 124.534-63.6264L56.19-63.6264C51.9957-63.6264 50.1965-61.7916 50.1965-57.5499L50.1965-12.9211C50.1965-8.63187 51.9957-6.79714 56.19-6.79714ZM35.9773 22.9727L144.767 22.9727C157.883 22.9727 164.661 16.1505 164.661 3.22169L164.661-73.6452C164.661-86.574 157.883-93.3962 144.767-93.3962L35.9773-93.3962C22.9086-93.3962 16.084-86.619 16.084-73.6452L16.084 3.22169C16.084 16.1955 22.9086 22.9727 35.9773 22.9727ZM36.6007 12.1909C30.2527 12.1909 26.8183 8.89347 26.8183 2.36106L26.8183-72.7845C26.8183-79.3644 30.2527-82.6144 36.6007-82.6144L144.144-82.6144C150.402-82.6144 153.926-79.3644 153.926-72.7845L153.926 2.36106C153.926 8.89347 150.402 12.1909 144.144 12.1909Z"/>
  </g>
  <g id="Regular-L" transform="matrix(1 0 0 1 1359.81 1556)">
   <path d="M55.1524-5.71224L124.922-5.71224C129.547-5.71224 131.592-7.73039 131.592-12.4603L131.592-58.0264C131.592-62.7035 129.547-64.7216 124.922-64.7216L55.1524-64.7216C50.528-64.7216 48.535-62.7035 48.535-58.0264L48.535-12.4603C48.535-7.73039 50.528-5.71224 55.1524-5.71224ZM35.0976 22.1923L144.977 22.1923C157.623 22.1923 163.991 15.7689 163.991 3.33696L163.991-73.7708C163.991-86.2028 157.623-92.6262 144.977-92.6262L35.0976-92.6262C22.5048-92.6262 16.084-86.2581 16.084-73.7708L16.084 3.33696C16.084 15.8242 22.5048 22.1923 35.0976 22.1923ZM35.2584 13.4907C28.4449 13.4907 24.7328 9.88413 24.7328 2.9123L24.7328-73.3462C24.7328-80.3708 28.4449-83.9245 35.2584-83.9245L144.816-83.9245C151.519-83.9245 155.342-80.3708 155.342-73.3462L155.342 2.9123C155.342 9.88413 151.519 13.4907 144.816 13.4907Z"/>
  </g>
  <g id="Light-L" transform="matrix(1 0 0 1 1063.53 1556)">
   <path d="M54.1981-4.73889L124.999-4.73889C129.928-4.73889 132.165-6.92881 132.165-11.9259L132.165-58.5799C132.165-63.5432 129.928-65.7332 124.999-65.7332L54.1981-65.7332C49.2684-65.7332 47.0654-63.5432 47.0654-58.5799L47.0654-11.9259C47.0654-6.92881 49.2684-4.73889 54.1981-4.73889ZM34.067 21.3335L145.13 21.3335C157.012 21.3335 163.113 15.1391 163.113 3.45147L163.113-73.9235C163.113-85.6111 157.012-91.8055 145.13-91.8055L34.067-91.8055C22.2185-91.8055 16.084-85.7046 16.084-73.9235L16.084 3.45147C16.084 15.2326 22.2185 21.3335 34.067 21.3335ZM34.2278 14.674C26.7082 14.674 22.7098 10.743 22.7098 3.12224L22.7098-73.5943C22.7098-81.2487 26.7082-85.146 34.2278-85.146L144.969-85.146C152.302-85.146 156.487-81.2487 156.487-73.5943L156.487 3.12224C156.487 10.743 152.302 14.674 144.969 14.674Z"/>
  </g>
  <g id="Thin-L" transform="matrix(1 0 0 1 767.404 1556)">
   <path d="M52.936-3.45156L125.1-3.45156C130.433-3.45156 132.922-5.86865 132.922-11.2191L132.922-59.3119C132.922-64.6539 130.433-67.071 125.1-67.071L52.936-67.071C47.6024-67.071 45.1218-64.6539 45.1218-59.3119L45.1218-11.2191C45.1218-5.86865 47.6024-3.45156 52.936-3.45156ZM32.7039 20.1976L145.332 20.1976C156.204 20.1976 161.952 14.3061 161.952 3.60292L161.952-74.1255C161.952-84.8286 156.204-90.7201 145.332-90.7201L32.7039-90.7201C21.8399-90.7201 16.084-84.9726 16.084-74.1255L16.084 3.60292C16.084 14.4501 21.8399 20.1976 32.7039 20.1976ZM32.8648 16.2389C24.4111 16.2389 20.0342 11.8788 20.0342 3.3999L20.0342-73.9224C20.0342-82.4098 24.4111-86.7615 32.8648-86.7615L145.171-86.7615C153.337-86.7615 158.001-82.4098 158.001-73.9224L158.001 3.3999C158.001 11.8788 153.337 16.2389 145.171 16.2389Z"/>
  </g>
  <g id="Ultralight-L" transform="matrix(1 0 0 1 470.991 1556)">
   <path d="M52.2896-2.79219L125.151-2.79219C130.692-2.79219 133.31-5.32564 133.31-10.8571L133.31-59.6868C133.31-65.2227 130.692-67.7562 125.151-67.7562L52.2896-67.7562C46.7491-67.7562 44.1263-65.2227 44.1263-59.6868L44.1263-10.8571C44.1263-5.32564 46.7491-2.79219 52.2896-2.79219ZM32.0058 19.6158L145.435 19.6158C155.79 19.6158 161.357 13.8795 161.357 3.6805L161.357-74.2289C161.357-84.4278 155.79-90.1642 145.435-90.1642L32.0058-90.1642C21.646-90.1642 16.084-84.5977 16.084-74.2289L16.084 3.6805C16.084 14.0493 21.646 19.6158 32.0058 19.6158ZM32.1666 17.0405C23.2346 17.0405 18.6637 12.4606 18.6637 3.54212L18.6637-74.0905C18.6637-83.0045 23.2346-87.5889 32.1666-87.5889L145.274-87.5889C153.867-87.5889 158.777-83.0045 158.777-74.0905L158.777 3.54212C158.777 12.4606 153.867 17.0405 145.274 17.0405Z"/>
  </g>
  <g id="Black-M" transform="matrix(1 0 0 1 2861.97 1126)">
   <path d="M48.0395-17.922L94.6974-17.922C96.0485-17.922 96.617-18.5479 96.617-19.91L96.617-50.4916C96.617-51.8483 96.0485-52.4742 94.6974-52.4742L48.0395-52.4742C46.6883-52.4742 46.1253-51.8483 46.1253-50.4916L46.1253-19.91C46.1253-18.5479 46.6883-17.922 48.0395-17.922ZM31.6184 13.2035L111.233 13.2035C123.325 13.2035 130.39 6.13945 130.39-5.93747L130.39-64.4586C130.39-76.5356 123.325-83.5996 111.233-83.5996L31.6184-83.5996C19.5311-83.5996 12.4609-76.535 12.4609-64.4586L12.4609-5.93747C12.4609 6.13889 19.5311 13.2035 31.6184 13.2035ZM34.2553-4.13991C31.2643-4.13991 29.7989-5.36596 29.7989-8.60178L29.7989-61.7943C29.7989-65.0356 31.2643-66.2562 34.2553-66.2562L108.596-66.2562C111.588-66.2562 113.052-65.0356 113.052-61.7943L113.052-8.60178C113.052-5.36596 111.588-4.13991 108.596-4.13991Z"/>
  </g>
  <g id="Heavy-M" transform="matrix(1 0 0 1 2565.6 1126)">
   <path d="M46.9145-16.7405L95.1792-16.7405C97.0159-16.7405 97.7987-17.5646 97.7987-19.4341L97.7987-50.9835C97.7987-52.8366 97.0159-53.6607 95.1792-53.6607L46.9145-53.6607C45.0778-53.6607 44.3115-52.8366 44.3115-50.9835L44.3115-19.4341C44.3115-17.5646 45.0778-16.7405 46.9145-16.7405ZM30.7123 12.3878L111.469 12.3878C123.122 12.3878 129.72 5.78558 129.72-5.81433L129.72-64.5869C129.72-76.1868 123.122-82.789 111.469-82.789L30.7123-82.789C19.075-82.789 12.4609-76.1914 12.4609-64.5869L12.4609-5.81433C12.4609 5.79013 19.075 12.3878 30.7123 12.3878ZM32.7562-2.72824C29.3203-2.72824 27.5605-4.28072 27.5605-7.94034L27.5605-62.4609C27.5605-66.1369 29.3203-67.673 32.7562-67.673L109.425-67.673C112.852-67.673 114.62-66.1369 114.62-62.4609L114.62-7.94034C114.62-4.28072 112.852-2.72824 109.425-2.72824Z"/>
  </g>
  <g id="Bold-M" transform="matrix(1 0 0 1 2269.26 1126)">
   <path d="M45.6561-15.4189L95.7182-15.4189C98.0981-15.4189 99.1205-16.4647 99.1205-18.9019L99.1205-51.5337C99.1205-53.9422 98.0981-54.988 95.7182-54.988L45.6561-54.988C43.2762-54.988 42.2824-53.9422 42.2824-51.5337L42.2824-18.9019C42.2824-16.4647 43.2762-15.4189 45.6561-15.4189ZM29.6986 11.4753L111.733 11.4753C122.895 11.4753 128.97 5.38973 128.97-5.67659L128.97-64.7304C128.97-75.7967 122.895-81.8822 111.733-81.8822L29.6986-81.8822C18.5648-81.8822 12.4609-75.8069 12.4609-64.7304L12.4609-5.67659C12.4609 5.39999 18.5648 11.4753 29.6986 11.4753ZM31.0794-1.14908C27.1457-1.14908 25.0566-3.06672 25.0566-7.20043L25.0566-63.2065C25.0566-67.3688 27.1457-69.2579 31.0794-69.2579L110.352-69.2579C114.265-69.2579 116.375-67.3688 116.375-63.2065L116.375-7.20043C116.375-3.06672 114.265-1.14908 110.352-1.14908Z"/>
  </g>
  <g id="Semibold-M" transform="matrix(1 0 0 1 1972.81 1126)">
   <path d="M44.7885-14.5078L96.0898-14.5078C98.8442-14.5078 100.032-15.7064 100.032-18.5349L100.032-51.913C100.032-54.7044 98.8442-55.9031 96.0898-55.9031L44.7885-55.9031C42.0341-55.9031 40.8836-54.7044 40.8836-51.913L40.8836-18.5349C40.8836-15.7064 42.0341-14.5078 44.7885-14.5078ZM28.9998 10.8462L111.915 10.8462C122.739 10.8462 128.454 5.11683 128.454-5.58162L128.454-64.8293C128.454-75.5277 122.739-81.2571 111.915-81.2571L28.9998-81.2571C18.2131-81.2571 12.4609-75.5419 12.4609-64.8293L12.4609-5.58162C12.4609 5.13104 18.2131 10.8462 28.9998 10.8462ZM29.9233-0.0604106C25.6466-0.0604106 23.3305-2.2298 23.3305-6.69034L23.3305-63.7206C23.3305-68.2181 25.6466-70.3505 29.9233-70.3505L110.991-70.3505C115.24-70.3505 117.584-68.2181 117.584-63.7206L117.584-6.69034C117.584-2.2298 115.24-0.0604106 110.991-0.0604106Z"/>
  </g>
  <g id="Medium-M" transform="matrix(1 0 0 1 1676.29 1126)">
   <path d="M44.1307-13.817L96.3716-13.817C99.4099-13.817 100.723-15.1315 100.723-18.2567L100.723-52.2007C100.723-55.2824 99.4099-56.5969 96.3716-56.5969L44.1307-56.5969C41.0924-56.5969 39.823-55.2824 39.823-52.2007L39.823-18.2567C39.823-15.1315 41.0924-13.817 44.1307-13.817ZM28.47 10.3692L112.053 10.3692C122.62 10.3692 128.062 4.9099 128.062-5.50962L128.062-64.9043C128.062-75.3238 122.62-80.783 112.053-80.783L28.47-80.783C17.9464-80.783 12.4609-75.341 12.4609-64.9043L12.4609-5.50962C12.4609 4.9271 17.9464 10.3692 28.47 10.3692ZM29.0468 0.76506C24.5098 0.76506 22.0216-1.59521 22.0216-6.30356L22.0216-64.1103C22.0216-68.8621 24.5098-71.1789 29.0468-71.1789L111.476-71.1789C115.979-71.1789 118.501-68.8621 118.501-64.1103L118.501-6.30356C118.501-1.59521 115.979 0.76506 111.476 0.76506Z"/>
  </g>
  <g id="Regular-M" transform="matrix(1 0 0 1 1379.84 1126)">
   <path d="M43.2726-12.9159L96.7391-12.9159C100.148-12.9159 101.624-14.3816 101.624-17.8937L101.624-52.5758C101.624-56.0362 100.148-57.5019 96.7391-57.5019L43.2726-57.5019C39.864-57.5019 38.4395-56.0362 38.4395-52.5758L38.4395-17.8937C38.4395-14.3816 39.864-12.9159 43.2726-12.9159ZM27.7789 9.74698L112.233 9.74698C122.465 9.74698 127.551 4.64 127.551-5.4157L127.551-65.0021C127.551-75.0578 122.465-80.1648 112.233-80.1648L27.7789-80.1648C17.5986-80.1648 12.4609-75.0789 12.4609-65.0021L12.4609-5.4157C12.4609 4.6611 17.5986 9.74698 27.7789 9.74698ZM27.9035 1.84176C23.0272 1.84176 20.3144-0.767488 20.3144-5.79908L20.3144-64.6187C20.3144-69.702 23.0272-72.2595 27.9035-72.2595L112.108-72.2595C116.942-72.2595 119.697-69.702 119.697-64.6187L119.697-5.79908C119.697-0.767488 116.942 1.84176 112.108 1.84176Z"/>
  </g>
  <g id="Light-M" transform="matrix(1 0 0 1 1083.52 1126)">
   <path d="M42.4171-12.0432L96.8075-12.0432C100.49-12.0432 102.137-13.6629 102.137-17.4146L102.137-53.072C102.137-56.7891 100.49-58.4088 96.8075-58.4088L42.4171-58.4088C38.7347-58.4088 37.122-56.7891 37.122-53.072L37.122-17.4146C37.122-13.6629 38.7347-12.0432 42.4171-12.0432ZM26.8549 8.97699L112.37 8.97699C121.917 8.97699 126.764 4.07534 126.764-5.31303L126.764-65.139C126.764-74.5273 121.917-79.429 112.37-79.429L26.8549-79.429C17.3419-79.429 12.4609-74.5827 12.4609-65.139L12.4609-5.31303C12.4609 4.13066 17.3419 8.97699 26.8549 8.97699ZM26.9795 2.90264C21.4701 2.90264 18.5006 0.00250377 18.5006-5.61085L18.5006-64.8411C18.5006-70.4892 21.4701-73.3546 26.9795-73.3546L112.245-73.3546C117.644-73.3546 120.724-70.4892 120.724-64.8411L120.724-5.61085C120.724 0.00250377 117.644 2.90264 112.245 2.90264Z"/>
  </g>
  <g id="Thin-M" transform="matrix(1 0 0 1 787.33 1126)">
   <path d="M41.2856-10.8891L96.898-10.8891C100.943-10.8891 102.816-12.7124 102.816-16.781L102.816-53.7283C102.816-57.7848 100.943-59.6082 96.898-59.6082L41.2856-59.6082C37.241-59.6082 35.3794-57.7848 35.3794-53.7283L35.3794-16.781C35.3794-12.7124 37.241-10.8891 41.2856-10.8891ZM25.6328 7.95861L112.551 7.95861C121.193 7.95861 125.723 3.32853 125.723-5.17725L125.723-65.32C125.723-73.8258 121.193-78.4559 112.551-78.4559L25.6328-78.4559C17.0024-78.4559 12.4609-73.9264 12.4609-65.32L12.4609-5.17725C12.4609 3.42911 17.0024 7.95861 25.6328 7.95861ZM25.7574 4.30574C19.4107 4.30574 16.1018 1.02088 16.1018-5.36192L16.1018-65.1353C16.1018-71.5302 19.4107-74.803 25.7574-74.803L112.426-74.803C118.572-74.803 122.082-71.5302 122.082-65.1353L122.082-5.36192C122.082 1.02088 118.572 4.30574 112.426 4.30574Z"/>
  </g>
  <g id="Ultralight-M" transform="matrix(1 0 0 1 490.886 1126)">
   <path d="M40.706-10.2979L96.9444-10.2979C101.174-10.2979 103.164-12.2256 103.164-16.4564L103.164-54.0645C103.164-58.2949 101.174-60.2225 96.9444-60.2225L40.706-60.2225C36.476-60.2225 34.4869-58.2949 34.4869-54.0645L34.4869-16.4564C34.4869-12.2256 36.476-10.2979 40.706-10.2979ZM25.0069 7.437L112.644 7.437C120.822 7.437 125.189 2.94602 125.189-5.1077L125.189-65.4127C125.189-73.4665 120.822-77.9575 112.644-77.9575L25.0069-77.9575C16.8286-77.9575 12.4609-73.5902 12.4609-65.4127L12.4609-5.1077C12.4609 3.06978 16.8286 7.437 25.0069 7.437ZM25.1315 5.0244C18.3559 5.0244 14.8731 1.54249 14.8731-5.23441L14.8731-65.286C14.8731-72.0634 18.3559-75.5448 25.1315-75.5448L112.519-75.5448C119.047-75.5448 122.777-72.0634 122.777-65.286L122.777-5.23441C122.777 1.54249 119.047 5.0244 112.519 5.0244Z"/>
  </g>
  <g id="Black-S" transform="matrix(1 0 0 1 2877.35 696)">
   <path d="M37.9395-21.9727L74.0723-21.9727C75-21.9727 75.3906-22.4121 75.3906-23.3398L75.3906-47.0703C75.3906-47.998 75-48.4375 74.0723-48.4375L37.9395-48.4375C37.0117-48.4375 36.6211-47.998 36.6211-47.0703L36.6211-23.3398C36.6211-22.4121 37.0117-21.9727 37.9395-21.9727ZM25 2.92969L87.1094 2.92969C96.6797 2.92969 102.344-2.73438 102.344-12.3047L102.344-58.1055C102.344-67.6758 96.6797-73.3398 87.1094-73.3398L25-73.3398C15.4297-73.3398 9.76562-67.6758 9.76562-58.1055L9.76562-12.3047C9.76562-2.73438 15.4297 2.92969 25 2.92969ZM27.2461-11.2305C25-11.2305 23.9258-12.1094 23.9258-14.5508L23.9258-55.8594C23.9258-58.3008 25-59.1797 27.2461-59.1797L84.8633-59.1797C87.1094-59.1797 88.1836-58.3008 88.1836-55.8594L88.1836-14.5508C88.1836-12.1094 87.1094-11.2305 84.8633-11.2305Z"/>
  </g>
  <g id="Heavy-S" transform="matrix(1 0 0 1 2580.87 696)">
   <path d="M37.0866-21.0737L74.4756-21.0737C75.7837-21.0737 76.3356-21.663 76.3356-22.9941L76.3356-47.4276C76.3356-48.7471 75.7837-49.3364 74.4756-49.3364L37.0866-49.3364C35.7786-49.3364 35.2382-48.7471 35.2382-47.4276L35.2382-22.9941C35.2382-21.663 35.7786-21.0737 37.0866-21.0737ZM24.3431 2.33042L87.2938 2.33042C96.576 2.33042 101.871-2.96486 101.871-12.2125L101.871-58.1977C101.871-67.4453 96.576-72.7406 87.2938-72.7406L24.3431-72.7406C15.0724-72.7406 9.76562-67.4453 9.76562-58.1977L9.76562-12.2125C9.76562-2.96486 15.0724 2.33042 24.3431 2.33042ZM26.0821-10.1587C23.5364-10.1587 22.2432-11.2796 22.2432-14.0091L22.2432-56.401C22.2432-59.1421 23.5364-60.2515 26.0821-60.2515L85.5547-60.2515C88.1005-60.2515 89.3937-59.1421 89.3937-56.401L89.3937-14.0091C89.3937-11.2796 88.1005-10.1587 85.5547-10.1587Z"/>
  </g>
  <g id="Bold-S" transform="matrix(1 0 0 1 2284.42 696)">
   <path d="M36.1328-20.0684L74.9268-20.0684C76.6602-20.0684 77.3926-20.8252 77.3926-22.6074L77.3926-47.8271C77.3926-49.585 76.6602-50.3418 74.9268-50.3418L36.1328-50.3418C34.3994-50.3418 33.6914-49.585 33.6914-47.8271L33.6914-22.6074C33.6914-20.8252 34.3994-20.0684 36.1328-20.0684ZM23.6084 1.66016L87.5 1.66016C96.46 1.66016 101.343-3.22266 101.343-12.1094L101.343-58.3008C101.343-67.1875 96.46-72.0703 87.5-72.0703L23.6084-72.0703C14.6729-72.0703 9.76562-67.1875 9.76562-58.3008L9.76562-12.1094C9.76562-3.22266 14.6729 1.66016 23.6084 1.66016ZM24.7803-8.95996C21.8994-8.95996 20.3613-10.3516 20.3613-13.4033L20.3613-57.0068C20.3613-60.083 21.8994-61.4502 24.7803-61.4502L86.3281-61.4502C89.209-61.4502 90.7471-60.083 90.7471-57.0068L90.7471-13.4033C90.7471-10.3516 89.209-8.95996 86.3281-8.95996Z"/>
  </g>
  <g id="Semibold-S" transform="matrix(1 0 0 1 1987.89 696)">
   <path d="M35.4752-19.3752L75.2378-19.3752C77.2645-19.3752 78.1213-20.2476 78.1213-22.3408L78.1213-48.1026C78.1213-50.1626 77.2645-51.035 75.2378-51.035L35.4752-51.035C33.4485-51.035 32.625-50.1626 32.625-48.1026L32.625-22.3408C32.625-20.2476 33.4485-19.3752 35.4752-19.3752ZM23.1019 1.19805L87.6422 1.19805C96.38 1.19805 100.978-3.40039 100.978-12.0383L100.978-58.3719C100.978-67.0098 96.38-71.6082 87.6422-71.6082L23.1019-71.6082C14.3974-71.6082 9.76562-67.0098 9.76562-58.3719L9.76562-12.0383C9.76562-3.40039 14.3974 1.19805 23.1019 1.19805ZM23.8827-8.1335C20.7708-8.1335 19.0639-9.71172 19.0639-12.9856L19.0639-57.4245C19.0639-60.7317 20.7708-62.2767 23.8827-62.2767L86.8613-62.2767C89.9732-62.2767 91.6802-60.7317 91.6802-57.4245L91.6802-12.9856C91.6802-9.71172 89.9732-8.1335 86.8613-8.1335Z"/>
  </g>
  <g id="Medium-S" transform="matrix(1 0 0 1 1691.32 696)">
   <path d="M34.9766-18.8496L75.4736-18.8496C77.7227-18.8496 78.6738-19.8096 78.6738-22.1387L78.6738-48.3115C78.6738-50.6006 77.7227-51.5605 75.4736-51.5605L34.9766-51.5605C32.7275-51.5605 31.8164-50.6006 31.8164-48.3115L31.8164-22.1387C31.8164-19.8096 32.7275-18.8496 34.9766-18.8496ZM22.7178 0.847656L87.75 0.847656C96.3193 0.847656 100.702-3.53516 100.702-11.9844L100.702-58.4258C100.702-66.875 96.3193-71.2578 87.75-71.2578L22.7178-71.2578C14.1885-71.2578 9.76562-66.875 9.76562-58.4258L9.76562-11.9844C9.76562-3.53516 14.1885 0.847656 22.7178 0.847656ZM23.2021-7.50684C19.915-7.50684 18.0801-9.22656 18.0801-12.6689L18.0801-57.7412C18.0801-61.2236 19.915-62.9033 23.2021-62.9033L87.2656-62.9033C90.5527-62.9033 92.3877-61.2236 92.3877-57.7412L92.3877-12.6689C92.3877-9.22656 90.5527-7.50684 87.2656-7.50684Z"/>
  </g>
  <g id="Regular-S" transform="matrix(1 0 0 1 1394.79 696)">
   <path d="M34.3262-18.1641L75.7812-18.1641C78.3203-18.1641 79.3945-19.2383 79.3945-21.875L79.3945-48.584C79.3945-51.1719 78.3203-52.2461 75.7812-52.2461L34.3262-52.2461C31.7871-52.2461 30.7617-51.1719 30.7617-48.584L30.7617-21.875C30.7617-19.2383 31.7871-18.1641 34.3262-18.1641ZM22.2168 0.390625L87.8906 0.390625C96.2402 0.390625 100.342-3.71094 100.342-11.9141L100.342-58.4961C100.342-66.6992 96.2402-70.8008 87.8906-70.8008L22.2168-70.8008C13.916-70.8008 9.76562-66.6992 9.76562-58.4961L9.76562-11.9141C9.76562-3.71094 13.916 0.390625 22.2168 0.390625ZM22.3145-6.68945C18.7988-6.68945 16.7969-8.59375 16.7969-12.2559L16.7969-58.1543C16.7969-61.8652 18.7988-63.7207 22.3145-63.7207L87.793-63.7207C91.3086-63.7207 93.3105-61.8652 93.3105-58.1543L93.3105-12.2559C93.3105-8.59375 91.3086-6.68945 87.793-6.68945Z"/>
  </g>
  <g id="Light-S" transform="matrix(1 0 0 1 1098.43 696)">
   <path d="M33.5693-17.3921L75.8418-17.3921C78.623-17.3921 79.8486-18.6025 79.8486-21.4512L79.8486-49.0229C79.8486-51.8379 78.623-53.0483 75.8418-53.0483L33.5693-53.0483C30.7881-53.0483 29.5962-51.8379 29.5962-49.0229L29.5962-21.4512C29.5962-18.6025 30.7881-17.3921 33.5693-17.3921ZM21.3994-0.290522L88.0117-0.290522C95.7559-0.290522 99.6455-4.21045 99.6455-11.8232L99.6455-58.6172C99.6455-66.23 95.7559-70.1499 88.0117-70.1499L21.3994-70.1499C13.689-70.1499 9.76562-66.2603 9.76562-58.6172L9.76562-11.8232C9.76562-4.18017 13.689-0.290522 21.3994-0.290522ZM21.4971-5.75098C17.4214-5.75098 15.1924-7.9126 15.1924-12.0894L15.1924-58.3511C15.1924-62.5615 17.4214-64.6894 21.4971-64.6894L87.9141-64.6894C91.9292-64.6894 94.2187-62.5615 94.2187-58.3511L94.2187-12.0894C94.2187-7.9126 91.9292-5.75098 87.9141-5.75098Z"/>
  </g>
  <g id="Thin-S" transform="matrix(1 0 0 1 802.177 696)">
   <path d="M32.5684-16.3711L75.9219-16.3711C79.0234-16.3711 80.4492-17.7617 80.4492-20.8906L80.4492-49.6035C80.4492-52.7187 79.0234-54.1094 75.9219-54.1094L32.5684-54.1094C29.4668-54.1094 28.0547-52.7187 28.0547-49.6035L28.0547-20.8906C28.0547-17.7617 29.4668-16.3711 32.5684-16.3711ZM20.3184-1.19139L88.1719-1.19139C95.1152-1.19139 98.7246-4.87108 98.7246-11.7031L98.7246-58.7773C98.7246-65.6094 95.1152-69.2891 88.1719-69.2891L20.3184-69.2891C13.3887-69.2891 9.76562-65.6797 9.76562-58.7773L9.76562-11.7031C9.76562-4.80077 13.3887-1.19139 20.3184-1.19139ZM20.416-4.50978C15.5996-4.50978 13.0703-7.01173 13.0703-11.8691L13.0703-58.6113C13.0703-63.4824 15.5996-65.9707 20.416-65.9707L88.0742-65.9707C92.75-65.9707 95.4199-63.4824 95.4199-58.6113L95.4199-11.8691C95.4199-7.01173 92.75-4.50978 88.0742-4.50978Z"/>
  </g>
  <g id="Ultralight-S" transform="matrix(1 0 0 1 505.702 696)">
   <path d="M32.0557-15.8482L75.9629-15.8482C79.2285-15.8482 80.7568-17.3311 80.7568-20.6035L80.7568-49.9009C80.7568-53.1699 79.2285-54.6528 75.9629-54.6528L32.0557-54.6528C28.7901-54.6528 27.2652-53.1699 27.2652-49.9009L27.2652-20.6035C27.2652-17.3311 28.7901-15.8482 32.0557-15.8482ZM19.7647-1.65282L88.2539-1.65282C94.7871-1.65282 98.2529-5.20946 98.2529-11.6416L98.2529-58.8594C98.2529-65.2915 94.7871-68.8482 88.2539-68.8482L19.7647-68.8482C13.2349-68.8482 9.76562-65.3823 9.76562-58.8594L9.76562-11.6416C9.76562-5.11864 13.2349-1.65282 19.7647-1.65282ZM19.8623-3.87405C14.6665-3.87405 11.9834-6.55031 11.9834-11.7564L11.9834-58.7446C11.9834-63.9541 14.6665-66.6269 19.8623-66.6269L88.1562-66.6269C93.1704-66.6269 96.0351-63.9541 96.0351-58.7446L96.0351-11.7564C96.0351-6.55031 93.1704-3.87405 88.1562-3.87405Z"/>
  </g>
 </g>
</svg>
