<?xml version="1.0" encoding="UTF-8"?>
<!--Generator: Apple Native CoreSVG 175-->
<!DOCTYPE svg
PUBLIC "-//W3C//DTD SVG 1.1//EN"
       "http://www.w3.org/Graphics/SVG/1.1/DTD/svg11.dtd">
<svg version="1.1" xmlns="http://www.w3.org/2000/svg" xmlns:xlink="http://www.w3.org/1999/xlink" width="3300" height="2200">
 <!--glyph: "uni100689.medium", point size: 100.0, font version: "17.0d11e1", template writer version: "65.1"-->
 <g id="Notes">
  <rect height="2200" id="artboard" style="fill:white;opacity:1" width="3300" x="0" y="0"/>
  <line style="fill:none;stroke:black;opacity:1;stroke-width:0.5;" x1="263" x2="3036" y1="292" y2="292"/>
  <text style="stroke:none;fill:black;font-family:sans-serif;font-size:13;font-weight:bold;" transform="matrix(1 0 0 1 263 322)">Weight/Scale Variations</text>
  <text style="stroke:none;fill:black;font-family:sans-serif;font-size:13;text-anchor:middle;" transform="matrix(1 0 0 1 559.711 322)">Ultralight</text>
  <text style="stroke:none;fill:black;font-family:sans-serif;font-size:13;text-anchor:middle;" transform="matrix(1 0 0 1 856.422 322)">Thin</text>
  <text style="stroke:none;fill:black;font-family:sans-serif;font-size:13;text-anchor:middle;" transform="matrix(1 0 0 1 1153.13 322)">Light</text>
  <text style="stroke:none;fill:black;font-family:sans-serif;font-size:13;text-anchor:middle;" transform="matrix(1 0 0 1 1449.84 322)">Regular</text>
  <text style="stroke:none;fill:black;font-family:sans-serif;font-size:13;text-anchor:middle;" transform="matrix(1 0 0 1 1746.56 322)">Medium</text>
  <text style="stroke:none;fill:black;font-family:sans-serif;font-size:13;text-anchor:middle;" transform="matrix(1 0 0 1 2043.27 322)">Semibold</text>
  <text style="stroke:none;fill:black;font-family:sans-serif;font-size:13;text-anchor:middle;" transform="matrix(1 0 0 1 2339.98 322)">Bold</text>
  <text style="stroke:none;fill:black;font-family:sans-serif;font-size:13;text-anchor:middle;" transform="matrix(1 0 0 1 2636.69 322)">Heavy</text>
  <text style="stroke:none;fill:black;font-family:sans-serif;font-size:13;text-anchor:middle;" transform="matrix(1 0 0 1 2933.4 322)">Black</text>
  <line style="fill:none;stroke:black;opacity:1;stroke-width:0.5;" x1="263" x2="3036" y1="1903" y2="1903"/>
  <g transform="matrix(1 0 0 1 263 1933)">
   <path d="M9.24805 0.830078Q10.8691 0.830078 12.2949 0.214844Q13.7207-0.400391 14.8096-1.49414Q15.8984-2.58789 16.5186-4.01367Q17.1387-5.43945 17.1387-7.05078Q17.1387-8.66211 16.5186-10.0879Q15.8984-11.5137 14.8047-12.6074Q13.7109-13.7012 12.2852-14.3164Q10.8594-14.9316 9.23828-14.9316Q7.62695-14.9316 6.20117-14.3164Q4.77539-13.7012 3.69141-12.6074Q2.60742-11.5137 1.9873-10.0879Q1.36719-8.66211 1.36719-7.05078Q1.36719-5.43945 1.9873-4.01367Q2.60742-2.58789 3.69629-1.49414Q4.78516-0.400391 6.21094 0.214844Q7.63672 0.830078 9.24805 0.830078ZM9.24805-0.654297Q7.91992-0.654297 6.7627-1.14746Q5.60547-1.64062 4.73145-2.51953Q3.85742-3.39844 3.36426-4.56055Q2.87109-5.72266 2.87109-7.05078Q2.87109-8.37891 3.35938-9.54102Q3.84766-10.7031 4.72168-11.582Q5.5957-12.4609 6.75293-12.9541Q7.91016-13.4473 9.23828-13.4473Q10.5762-13.4473 11.7334-12.9541Q12.8906-12.4609 13.7695-11.582Q14.6484-10.7031 15.1465-9.54102Q15.6445-8.37891 15.6445-7.05078Q15.6445-5.72266 15.1514-4.56055Q14.6582-3.39844 13.7842-2.51953Q12.9102-1.64062 11.748-1.14746Q10.5859-0.654297 9.24805-0.654297ZM5.6543-7.05078Q5.6543-6.72852 5.85938-6.52832Q6.06445-6.32812 6.40625-6.32812L8.51562-6.32812L8.51562-4.20898Q8.51562-3.88672 8.71094-3.67676Q8.90625-3.4668 9.23828-3.4668Q9.56055-3.4668 9.77051-3.67676Q9.98047-3.88672 9.98047-4.20898L9.98047-6.32812L12.0898-6.32812Q12.4219-6.32812 12.627-6.52832Q12.832-6.72852 12.832-7.05078Q12.832-7.38281 12.627-7.58789Q12.4219-7.79297 12.0898-7.79297L9.98047-7.79297L9.98047-9.90234Q9.98047-10.2344 9.77051-10.4443Q9.56055-10.6543 9.23828-10.6543Q8.90625-10.6543 8.71094-10.4443Q8.51562-10.2344 8.51562-9.90234L8.51562-7.79297L6.40625-7.79297Q6.06445-7.79297 5.85938-7.58789Q5.6543-7.38281 5.6543-7.05078Z"/>
  </g>
  <g transform="matrix(1 0 0 1 281.867 1933)">
   <path d="M11.709 2.91016Q13.75 2.91016 15.5518 2.12891Q17.3535 1.34766 18.7305-0.0292969Q20.1074-1.40625 20.8887-3.20801Q21.6699-5.00977 21.6699-7.05078Q21.6699-9.0918 20.8887-10.8936Q20.1074-12.6953 18.7305-14.0723Q17.3535-15.4492 15.5469-16.2305Q13.7402-17.0117 11.6992-17.0117Q9.6582-17.0117 7.85645-16.2305Q6.05469-15.4492 4.68262-14.0723Q3.31055-12.6953 2.5293-10.8936Q1.74805-9.0918 1.74805-7.05078Q1.74805-5.00977 2.5293-3.20801Q3.31055-1.40625 4.6875-0.0292969Q6.06445 1.34766 7.86621 2.12891Q9.66797 2.91016 11.709 2.91016ZM11.709 1.25Q9.98047 1.25 8.47656 0.605469Q6.97266-0.0390625 5.83496-1.17676Q4.69727-2.31445 4.05762-3.81836Q3.41797-5.32227 3.41797-7.05078Q3.41797-8.7793 4.05762-10.2832Q4.69727-11.7871 5.83008-12.9297Q6.96289-14.0723 8.4668-14.7119Q9.9707-15.3516 11.6992-15.3516Q13.4277-15.3516 14.9316-14.7119Q16.4355-14.0723 17.5781-12.9297Q18.7207-11.7871 19.3652-10.2832Q20.0098-8.7793 20.0098-7.05078Q20.0098-5.32227 19.3701-3.81836Q18.7305-2.31445 17.5928-1.17676Q16.4551-0.0390625 14.9463 0.605469Q13.4375 1.25 11.709 1.25ZM7.17773-7.05078Q7.17773-6.69922 7.41211-6.47461Q7.64648-6.25 8.01758-6.25L10.8887-6.25L10.8887-3.36914Q10.8887-2.99805 11.1133-2.76855Q11.3379-2.53906 11.6895-2.53906Q12.0605-2.53906 12.29-2.76855Q12.5195-2.99805 12.5195-3.36914L12.5195-6.25L15.4004-6.25Q15.7715-6.25 16.001-6.47461Q16.2305-6.69922 16.2305-7.05078Q16.2305-7.42188 16.001-7.65137Q15.7715-7.88086 15.4004-7.88086L12.5195-7.88086L12.5195-10.752Q12.5195-11.1328 12.29-11.3623Q12.0605-11.5918 11.6895-11.5918Q11.3379-11.5918 11.1133-11.3574Q10.8887-11.123 10.8887-10.752L10.8887-7.88086L8.01758-7.88086Q7.63672-7.88086 7.40723-7.65137Q7.17773-7.42188 7.17773-7.05078Z"/>
  </g>
  <g transform="matrix(1 0 0 1 305.646 1933)">
   <path d="M14.9707 5.66406Q17.0605 5.66406 18.96 5.01465Q20.8594 4.36523 22.4512 3.19336Q24.043 2.02148 25.2197 0.429688Q26.3965-1.16211 27.0459-3.06641Q27.6953-4.9707 27.6953-7.05078Q27.6953-9.14062 27.0459-11.04Q26.3965-12.9395 25.2197-14.5312Q24.043-16.123 22.4512-17.2998Q20.8594-18.4766 18.9551-19.126Q17.0508-19.7754 14.9609-19.7754Q12.8711-19.7754 10.9717-19.126Q9.07227-18.4766 7.48535-17.2998Q5.89844-16.123 4.72168-14.5312Q3.54492-12.9395 2.90039-11.04Q2.25586-9.14062 2.25586-7.05078Q2.25586-4.9707 2.90527-3.06641Q3.55469-1.16211 4.72656 0.429688Q5.89844 2.02148 7.49023 3.19336Q9.08203 4.36523 10.9814 5.01465Q12.8809 5.66406 14.9707 5.66406ZM14.9707 3.84766Q13.1641 3.84766 11.5283 3.2959Q9.89258 2.74414 8.53516 1.74805Q7.17773 0.751953 6.17676-0.610352Q5.17578-1.97266 4.62891-3.6084Q4.08203-5.24414 4.08203-7.05078Q4.08203-8.86719 4.62891-10.5029Q5.17578-12.1387 6.17188-13.501Q7.16797-14.8633 8.52539-15.8594Q9.88281-16.8555 11.5186-17.4023Q13.1543-17.9492 14.9609-17.9492Q16.7773-17.9492 18.4131-17.4023Q20.0488-16.8555 21.4111-15.8594Q22.7734-14.8633 23.7695-13.501Q24.7656-12.1387 25.3174-10.5029Q25.8691-8.86719 25.8691-7.05078Q25.8789-5.24414 25.332-3.6084Q24.7852-1.97266 23.7842-0.610352Q22.7832 0.751953 21.4209 1.74805Q20.0586 2.74414 18.4229 3.2959Q16.7871 3.84766 14.9707 3.84766ZM9.19922-7.05078Q9.19922-6.66992 9.45801-6.4209Q9.7168-6.17188 10.1172-6.17188L14.0625-6.17188L14.0625-2.2168Q14.0625-1.81641 14.3115-1.55762Q14.5605-1.29883 14.9512-1.29883Q15.3516-1.29883 15.6104-1.55273Q15.8691-1.80664 15.8691-2.2168L15.8691-6.17188L19.8242-6.17188Q20.2246-6.17188 20.4785-6.4209Q20.7324-6.66992 20.7324-7.05078Q20.7324-7.46094 20.4785-7.71484Q20.2246-7.96875 19.8242-7.96875L15.8691-7.96875L15.8691-11.9141Q15.8691-12.3242 15.6104-12.583Q15.3516-12.8418 14.9512-12.8418Q14.5605-12.8418 14.3115-12.583Q14.0625-12.3242 14.0625-11.9141L14.0625-7.96875L10.1172-7.96875Q9.70703-7.96875 9.45312-7.71484Q9.19922-7.46094 9.19922-7.05078Z"/>
  </g>
  <text style="stroke:none;fill:black;font-family:sans-serif;font-size:13;font-weight:bold;" transform="matrix(1 0 0 1 263 1953)">Design Variations</text>
  <text style="stroke:none;fill:black;font-family:sans-serif;font-size:13;" transform="matrix(1 0 0 1 263 1971)">Symbols are supported in up to nine weights and three scales.</text>
  <text style="stroke:none;fill:black;font-family:sans-serif;font-size:13;" transform="matrix(1 0 0 1 263 1989)">For optimal layout with text and other symbols, vertically align</text>
  <text style="stroke:none;fill:black;font-family:sans-serif;font-size:13;" transform="matrix(1 0 0 1 263 2007)">symbols with the adjacent text.</text>
  <line style="fill:none;stroke:#00AEEF;stroke-width:0.5;opacity:1.0;" x1="776" x2="776" y1="1919" y2="1933"/>
  <g transform="matrix(1 0 0 1 776 1933)">
   <path d="M3.31055 0.15625Q3.70117 0.15625 3.91602-0.00976562Q4.13086-0.175781 4.26758-0.585938L5.52734-4.0332L11.2891-4.0332L12.5488-0.585938Q12.6855-0.175781 12.9004-0.00976562Q13.1152 0.15625 13.4961 0.15625Q13.8867 0.15625 14.1162-0.0585938Q14.3457-0.273438 14.3457-0.644531Q14.3457-0.869141 14.2383-1.17188L9.6582-13.3691Q9.48242-13.8184 9.17969-14.043Q8.87695-14.2676 8.4082-14.2676Q7.5-14.2676 7.17773-13.3789L2.59766-1.16211Q2.49023-0.859375 2.49023-0.634766Q2.49023-0.263672 2.70996-0.0537109Q2.92969 0.15625 3.31055 0.15625ZM6.00586-5.51758L8.37891-12.0898L8.42773-12.0898L10.8008-5.51758Z"/>
  </g>
  <line style="fill:none;stroke:#00AEEF;stroke-width:0.5;opacity:1.0;" x1="793.197" x2="793.197" y1="1919" y2="1933"/>
  <text style="stroke:none;fill:black;font-family:sans-serif;font-size:13;font-weight:bold;" transform="matrix(1 0 0 1 776 1953)">Margins</text>
  <text style="stroke:none;fill:black;font-family:sans-serif;font-size:13;" transform="matrix(1 0 0 1 776 1971)">Leading and trailing margins on the left and right side of each symbol</text>
  <text style="stroke:none;fill:black;font-family:sans-serif;font-size:13;" transform="matrix(1 0 0 1 776 1989)">can be adjusted by modifying the x-location of the margin guidelines.</text>
  <text style="stroke:none;fill:black;font-family:sans-serif;font-size:13;" transform="matrix(1 0 0 1 776 2007)">Modifications are automatically applied proportionally to all</text>
  <text style="stroke:none;fill:black;font-family:sans-serif;font-size:13;" transform="matrix(1 0 0 1 776 2025)">scales and weights.</text>
  <g transform="matrix(1 0 0 1 1289 1933)">
   <path d="M2.8418 1.86523L4.54102 3.57422Q5.18555 4.22852 5.90332 4.17969Q6.62109 4.13086 7.31445 3.35938L18.0078-8.42773L17.041-9.4043L6.42578 2.27539Q6.16211 2.57812 5.89355 2.61719Q5.625 2.65625 5.27344 2.30469L4.10156 1.14258Q3.75 0.791016 3.79395 0.522461Q3.83789 0.253906 4.14062-0.0195312L15.6152-10.8203L14.6387-11.7871L3.04688-0.898438Q2.30469-0.214844 2.25098 0.498047Q2.19727 1.21094 2.8418 1.86523ZM9.25781-16.3281Q8.94531-16.0254 8.90625-15.6348Q8.86719-15.2441 9.04297-14.9512Q9.21875-14.6777 9.55566-14.541Q9.89258-14.4043 10.3809-14.5215Q11.4746-14.7754 12.5977-14.7314Q13.7207-14.6875 14.7949-13.9844L14.209-12.5293Q13.9551-11.9043 14.0674-11.4404Q14.1797-10.9766 14.5801-10.5664L16.875-8.25195Q17.2363-7.88086 17.5781-7.82227Q17.9199-7.76367 18.3398-7.8418L19.4043-8.03711L20.0684-7.36328L20.0293-6.80664Q20-6.43555 20.1221-6.12305Q20.2441-5.81055 20.6055-5.44922L21.3672-4.70703Q21.7285-4.3457 22.1533-4.33105Q22.5781-4.31641 22.9297-4.66797L25.8398-7.58789Q26.1914-7.93945 26.1816-8.35449Q26.1719-8.76953 25.8105-9.13086L25.0391-9.89258Q24.6875-10.2539 24.3799-10.3857Q24.0723-10.5176 23.7109-10.4883L23.1348-10.4395L22.4902-11.0742L22.7344-12.1973Q22.832-12.6172 22.6953-12.9834Q22.5586-13.3496 22.1191-13.7891L19.9219-15.9766Q18.6719-17.2168 17.2607-17.8369Q15.8496-18.457 14.4189-18.4814Q12.9883-18.5059 11.665-17.959Q10.3418-17.4121 9.25781-16.3281ZM10.752-15.957Q11.6602-16.6211 12.7002-16.9043Q13.7402-17.1875 14.8047-17.085Q15.8691-16.9824 16.8701-16.5137Q17.8711-16.0449 18.7012-15.2051L21.1328-12.793Q21.3086-12.6172 21.3525-12.4512Q21.3965-12.2852 21.3379-12.0312L21.0156-10.5469L22.5195-9.0625L23.5059-9.12109Q23.6914-9.13086 23.7891-9.09668Q23.8867-9.0625 24.0332-8.91602L24.6094-8.33984L22.168-5.89844L21.5918-6.47461Q21.4453-6.62109 21.4062-6.71875Q21.3672-6.81641 21.377-7.01172L21.4453-7.98828L19.9512-9.47266L18.4277-9.21875Q18.1836-9.16992 18.042-9.2041Q17.9004-9.23828 17.7148-9.41406L15.7129-11.416Q15.5176-11.5918 15.4932-11.7529Q15.4688-11.9141 15.5859-12.1875L16.4648-14.2773Q15.293-15.3711 13.8281-15.791Q12.3633-16.2109 10.8398-15.7617Q10.7227-15.7324 10.6885-15.8057Q10.6543-15.8789 10.752-15.957Z"/>
  </g>
  <text style="stroke:none;fill:black;font-family:sans-serif;font-size:13;font-weight:bold;" transform="matrix(1 0 0 1 1289 1953)">Exporting</text>
  <text style="stroke:none;fill:black;font-family:sans-serif;font-size:13;" transform="matrix(1 0 0 1 1289 1971)">Symbols should be outlined when exporting to ensure the</text>
  <text style="stroke:none;fill:black;font-family:sans-serif;font-size:13;" transform="matrix(1 0 0 1 1289 1989)">design is preserved when submitting to Xcode.</text>
  <text id="template-version" style="stroke:none;fill:black;font-family:sans-serif;font-size:13;text-anchor:end;" transform="matrix(1 0 0 1 3036 1933)">Template v.3.0</text>
  <text style="stroke:none;fill:black;font-family:sans-serif;font-size:13;text-anchor:end;" transform="matrix(1 0 0 1 3036 1951)">Requires Xcode 13 or greater</text>
  <text id="descriptive-name" style="stroke:none;fill:black;font-family:sans-serif;font-size:13;text-anchor:end;" transform="matrix(1 0 0 1 3036 1969)">Generated from rectangle.grid.1x2.fill</text>
  <text style="stroke:none;fill:black;font-family:sans-serif;font-size:13;text-anchor:end;" transform="matrix(1 0 0 1 3036 1987)">Typeset at 100 points</text>
  <text style="stroke:none;fill:black;font-family:sans-serif;font-size:13;" transform="matrix(1 0 0 1 263 726)">Small</text>
  <text style="stroke:none;fill:black;font-family:sans-serif;font-size:13;" transform="matrix(1 0 0 1 263 1156)">Medium</text>
  <text style="stroke:none;fill:black;font-family:sans-serif;font-size:13;" transform="matrix(1 0 0 1 263 1586)">Large</text>
 </g>
 <g id="Guides">
  <g id="H-reference" style="fill:#27AAE1;stroke:none;" transform="matrix(1 0 0 1 339 696)">
   <path d="M0.993347 0L3.6377 0L29.3282-67.1326L30.0301-67.1326L30.0301-70.459L28.1227-70.459ZM11.6882-24.4797L46.9818-24.4797L46.2311-26.7288L12.4382-26.7288ZM55.1193 0L57.7637 0L30.6381-70.459L29.4327-70.459L29.4327-67.1326Z"/>
  </g>
  <line id="Baseline-S" style="fill:none;stroke:#27AAE1;opacity:1;stroke-width:0.5;" x1="263" x2="3036" y1="696" y2="696"/>
  <line id="Capline-S" style="fill:none;stroke:#27AAE1;opacity:1;stroke-width:0.5;" x1="263" x2="3036" y1="625.541" y2="625.541"/>
  <g id="H-reference" style="fill:#27AAE1;stroke:none;" transform="matrix(1 0 0 1 339 1126)">
   <path d="M0.993347 0L3.6377 0L29.3282-67.1326L30.0301-67.1326L30.0301-70.459L28.1227-70.459ZM11.6882-24.4797L46.9818-24.4797L46.2311-26.7288L12.4382-26.7288ZM55.1193 0L57.7637 0L30.6381-70.459L29.4327-70.459L29.4327-67.1326Z"/>
  </g>
  <line id="Baseline-M" style="fill:none;stroke:#27AAE1;opacity:1;stroke-width:0.5;" x1="263" x2="3036" y1="1126" y2="1126"/>
  <line id="Capline-M" style="fill:none;stroke:#27AAE1;opacity:1;stroke-width:0.5;" x1="263" x2="3036" y1="1055.54" y2="1055.54"/>
  <g id="H-reference" style="fill:#27AAE1;stroke:none;" transform="matrix(1 0 0 1 339 1556)">
   <path d="M0.993347 0L3.6377 0L29.3282-67.1326L30.0301-67.1326L30.0301-70.459L28.1227-70.459ZM11.6882-24.4797L46.9818-24.4797L46.2311-26.7288L12.4382-26.7288ZM55.1193 0L57.7637 0L30.6381-70.459L29.4327-70.459L29.4327-67.1326Z"/>
  </g>
  <line id="Baseline-L" style="fill:none;stroke:#27AAE1;opacity:1;stroke-width:0.5;" x1="263" x2="3036" y1="1556" y2="1556"/>
  <line id="Capline-L" style="fill:none;stroke:#27AAE1;opacity:1;stroke-width:0.5;" x1="263" x2="3036" y1="1485.54" y2="1485.54"/>
  <line id="left-margin-Regular-M" style="fill:none;stroke:#00AEEF;stroke-width:0.5;opacity:1.0;" x1="1384.63" x2="1384.63" y1="1030.79" y2="1150.12"/>
  <line id="right-margin-Regular-M" style="fill:none;stroke:#00AEEF;stroke-width:0.5;opacity:1.0;" x1="1515.05" x2="1515.05" y1="1030.79" y2="1150.12"/>
 </g>
 <g id="Symbols">
  <g id="Black-L" transform="matrix(1 0 0 1 2839.87 1556)">
   <path d="M35.791-39.1113L151.221-39.1113Q160.986-39.1113 165.991-44.0674Q170.996-49.0234 170.996-58.7891L170.996-84.2285Q170.996-93.9453 165.991-98.9258Q160.986-103.906 151.221-103.906L35.791-103.906Q26.0742-103.906 21.0693-98.9258Q16.0645-93.9453 16.0645-84.2285L16.0645-58.7891Q16.0645-49.0234 21.0693-44.0674Q26.0742-39.1113 35.791-39.1113ZM35.791 33.5449L151.221 33.5449Q160.986 33.5449 165.991 28.5645Q170.996 23.584 170.996 13.8184L170.996-11.6211Q170.996-21.3379 165.991-26.3184Q160.986-31.2988 151.221-31.2988L35.791-31.2988Q26.0742-31.2988 21.0693-26.3184Q16.0645-21.3379 16.0645-11.6211L16.0645 13.8184Q16.0645 23.584 21.0693 28.5645Q26.0742 33.5449 35.791 33.5449Z"/>
  </g>
  <g id="Heavy-L" transform="matrix(1 0 0 1 2545.45 1556)">
   <path d="M34.2354-39.4455L148.201-39.4455Q157.195-39.4455 161.802-43.9865Q166.409-48.5275 166.409-57.5562L166.409-83.1223Q166.409-92.1127 161.802-96.6667Q157.195-101.221 148.201-101.221L34.2354-101.221Q25.2678-101.221 20.6661-96.6667Q16.0645-92.1127 16.0645-83.1223L16.0645-57.5562Q16.0645-48.5275 20.6661-43.9865Q25.2678-39.4455 34.2354-39.4455ZM34.2354 30.8716L148.201 30.8716Q157.195 30.8716 161.802 26.3115Q166.409 21.7514 166.409 12.7235L166.409-12.8426Q166.409-21.8338 161.802-26.3935Q157.195-30.9532 148.201-30.9532L34.2354-30.9532Q25.2678-30.9532 20.6661-26.3935Q16.0645-21.8338 16.0645-12.8426L16.0645 12.7235Q16.0645 21.7514 20.6661 26.3115Q25.2678 30.8716 34.2354 30.8716Z"/>
  </g>
  <g id="Bold-L" transform="matrix(1 0 0 1 2251.31 1556)">
   <path d="M32.4951-39.8193L144.824-39.8193Q152.954-39.8193 157.117-43.8965Q161.279-47.9736 161.279-56.1768L161.279-81.8848Q161.279-90.0635 157.117-94.1406Q152.954-98.2178 144.824-98.2178L32.4951-98.2178Q24.3652-98.2178 20.2148-94.1406Q16.0645-90.0635 16.0645-81.8848L16.0645-56.1768Q16.0645-47.9736 20.2148-43.8965Q24.3652-39.8193 32.4951-39.8193ZM32.4951 27.8809L144.824 27.8809Q152.954 27.8809 157.117 23.7915Q161.279 19.7021 161.279 11.499L161.279-14.209Q161.279-22.3877 157.117-26.4771Q152.954-30.5664 144.824-30.5664L32.4951-30.5664Q24.3652-30.5664 20.2148-26.4771Q16.0645-22.3877 16.0645-14.209L16.0645 11.499Q16.0645 19.7021 20.2148 23.7915Q24.3652 27.8809 32.4951 27.8809Z"/>
  </g>
  <g id="Semibold-L" transform="matrix(1 0 0 1 1956.36 1556)">
   <path d="M31.295-40.0772L142.496-40.0772Q150.031-40.0772 153.886-43.8343Q157.742-47.5914 157.742-55.2261L157.742-81.0318Q157.742-88.6505 153.886-92.3988Q150.031-96.1472 142.496-96.1472L31.295-96.1472Q23.7434-96.1472 19.9039-92.3988Q16.0645-88.6505 16.0645-81.0318L16.0645-55.2261Q16.0645-47.5914 19.9039-43.8343Q23.7434-40.0772 31.295-40.0772ZM31.295 25.8194L142.496 25.8194Q150.031 25.8194 153.886 22.0543Q157.742 18.2892 157.742 10.6544L157.742-15.1512Q157.742-22.7699 153.886-26.535Q150.031-30.3001 142.496-30.3001L31.295-30.3001Q23.7434-30.3001 19.9039-26.535Q16.0645-22.7699 16.0645-15.1512L16.0645 10.6544Q16.0645 18.2892 19.9039 22.0543Q23.7434 25.8194 31.295 25.8194Z"/>
  </g>
  <g id="Medium-L" transform="matrix(1 0 0 1 1660.99 1556)">
   <path d="M30.3856-40.2725L140.73-40.2725Q147.813-40.2725 151.437-43.787Q155.061-47.3015 155.061-54.5052L155.061-80.3848Q155.061-87.5793 151.437-91.0782Q147.813-94.577 140.73-94.577L30.3856-94.577Q23.2712-94.577 19.6678-91.0782Q16.0645-87.5793 16.0645-80.3848L16.0645-54.5052Q16.0645-47.3015 19.6678-43.787Q23.2712-40.2725 30.3856-40.2725ZM30.3856 24.2561L140.73 24.2561Q147.813 24.2561 151.437 20.7371Q155.061 17.218 155.061 10.0143L155.061-15.8653Q155.061-23.0598 151.437-26.5789Q147.813-30.098 140.73-30.098L30.3856-30.098Q23.2712-30.098 19.6678-26.5789Q16.0645-23.0598 16.0645-15.8653L16.0645 10.0143Q16.0645 17.218 19.6678 20.7371Q23.2712 24.2561 30.3856 24.2561Z"/>
  </g>
  <g id="Regular-L" transform="matrix(1 0 0 1 1366.03 1556)">
   <path d="M29.1992-40.5273L138.428-40.5273Q144.922-40.5273 148.242-43.7256Q151.562-46.9238 151.562-53.5645L151.562-79.541Q151.562-86.1816 148.242-89.3555Q144.922-92.5293 138.428-92.5293L29.1992-92.5293Q22.6562-92.5293 19.3604-89.3555Q16.0645-86.1816 16.0645-79.541L16.0645-53.5645Q16.0645-46.9238 19.3604-43.7256Q22.6562-40.5273 29.1992-40.5273ZM29.1992 22.2168L138.428 22.2168Q144.922 22.2168 148.242 19.0186Q151.562 15.8203 151.562 9.17969L151.562-16.7969Q151.562-23.4375 148.242-26.6357Q144.922-29.834 138.428-29.834L29.1992-29.834Q22.6562-29.834 19.3604-26.6357Q16.0645-23.4375 16.0645-16.7969L16.0645 9.17969Q16.0645 15.8203 19.3604 19.0186Q22.6562 22.2168 29.1992 22.2168Z"/>
  </g>
  <g id="Light-L" transform="matrix(1 0 0 1 1069.78 1556)">
   <path d="M27.3529-40.6639L139.351-40.6639Q144.891-40.6639 147.765-43.3926Q150.639-46.1212 150.639-51.8997L150.639-80.4947Q150.639-86.2724 147.765-88.9771Q144.891-91.6817 139.351-91.6817L27.3529-91.6817Q21.7628-91.6817 18.9137-88.9771Q16.0645-86.2724 16.0645-80.4947L16.0645-51.8997Q16.0645-46.1212 18.9137-43.3926Q21.7628-40.6639 27.3529-40.6639ZM27.3529 21.4142L139.351 21.4142Q144.891 21.4142 147.765 18.6855Q150.639 15.9569 150.639 10.1784L150.639-18.4166Q150.639-24.1943 147.765-26.9157Q144.891-29.6371 139.351-29.6371L27.3529-29.6371Q21.7628-29.6371 18.9137-26.9157Q16.0645-24.1943 16.0645-18.4166L16.0645 10.1784Q16.0645 15.9569 18.9137 18.6855Q21.7628 21.4142 27.3529 21.4142Z"/>
  </g>
  <g id="Thin-L" transform="matrix(1 0 0 1 773.681 1556)">
   <path d="M24.91-40.844L140.572-40.844Q144.852-40.844 147.135-42.9523Q149.418-45.0607 149.418-49.6971L149.418-81.7558Q149.418-86.3922 147.135-88.4766Q144.852-90.5609 140.572-90.5609L24.91-90.5609Q20.5818-90.5609 18.3231-88.4766Q16.0645-86.3922 16.0645-81.7558L16.0645-49.6971Q16.0645-45.0607 18.3231-42.9523Q20.5818-40.844 24.91-40.844ZM24.91 20.3537L140.572 20.3537Q144.852 20.3537 147.135 18.2453Q149.418 16.1369 149.418 11.4998L149.418-20.5582Q149.418-25.1953 147.135-27.2861Q144.852-29.377 140.572-29.377L24.91-29.377Q20.5818-29.377 18.3231-27.2861Q16.0645-25.1953 16.0645-20.5582L16.0645 11.4998Q16.0645 16.1369 18.3231 18.2453Q20.5818 20.3537 24.91 20.3537Z"/>
  </g>
  <g id="Ultralight-L" transform="matrix(1 0 0 1 477.283 1556)">
   <path d="M23.6595-40.9363L141.198-40.9363Q144.831-40.9363 146.812-42.7265Q148.792-44.5168 148.792-48.5695L148.792-82.402Q148.792-86.454 146.812-88.2202Q144.831-89.9864 141.198-89.9864L23.6595-89.9864Q19.9768-89.9864 18.0206-88.2202Q16.0645-86.454 16.0645-82.402L16.0645-48.5695Q16.0645-44.5168 18.0206-42.7265Q19.9768-40.9363 23.6595-40.9363ZM23.6595 19.8097L141.198 19.8097Q144.831 19.8097 146.812 18.0195Q148.792 16.2292 148.792 12.1765L148.792-21.656Q148.792-25.708 146.812-27.4757Q144.831-29.2435 141.198-29.2435L23.6595-29.2435Q19.9768-29.2435 18.0206-27.4757Q16.0645-25.708 16.0645-21.656L16.0645 12.1765Q16.0645 16.2292 18.0206 18.0195Q19.9768 19.8097 23.6595 19.8097Z"/>
  </g>
  <g id="Black-M" transform="matrix(1 0 0 1 2859.11 1126)">
   <path d="M28.4668-37.9883L120.117-37.9883Q127.979-37.9883 132.056-42.041Q136.133-46.0938 136.133-54.0039L136.133-74.4629Q136.133-82.3242 132.056-86.4014Q127.979-90.4785 120.117-90.4785L28.4668-90.4785Q20.5566-90.4785 16.5039-86.4014Q12.4512-82.3242 12.4512-74.4629L12.4512-54.0039Q12.4512-46.0938 16.5039-42.041Q20.5566-37.9883 28.4668-37.9883ZM28.4668 20.0684L120.117 20.0684Q127.979 20.0684 132.056 16.0156Q136.133 11.9629 136.133 4.05273L136.133-16.4062Q136.133-24.3164 132.056-28.3691Q127.979-32.4219 120.117-32.4219L28.4668-32.4219Q20.5566-32.4219 16.5039-28.3691Q12.4512-24.3164 12.4512-16.4062L12.4512 4.05273Q12.4512 11.9629 16.5039 16.0156Q20.5566 20.0684 28.4668 20.0684Z"/>
  </g>
  <g id="Heavy-M" transform="matrix(1 0 0 1 2564.54 1126)">
   <path d="M27.3376-38.2767L116.959-38.2767Q124.29-38.2767 128.068-42.0238Q131.846-45.771 131.846-53.1509L131.846-73.1834Q131.846-80.5145 128.068-84.2751Q124.29-88.0356 116.959-88.0356L27.3376-88.0356Q19.9692-88.0356 16.2102-84.2751Q12.4512-80.5145 12.4512-73.1834L12.4512-53.1509Q12.4512-45.771 16.2102-42.0238Q19.9692-38.2767 27.3376-38.2767ZM27.3376 17.6369L116.959 17.6369Q124.29 17.6369 128.068 13.8893Q131.846 10.1418 131.846 2.77328L131.846-17.2707Q131.846-24.6277 128.068-28.3749Q124.29-32.122 116.959-32.122L27.3376-32.122Q19.9692-32.122 16.2102-28.3749Q12.4512-24.6277 12.4512-17.2707L12.4512 2.77328Q12.4512 10.1418 16.2102 13.8893Q19.9692 17.6369 27.3376 17.6369Z"/>
  </g>
  <g id="Bold-M" transform="matrix(1 0 0 1 2270.23 1126)">
   <path d="M26.0742-38.5986L113.428-38.5986Q120.166-38.5986 123.608-42.0044Q127.051-45.4102 127.051-52.1973L127.051-71.7529Q127.051-78.4912 123.608-81.897Q120.166-85.3027 113.428-85.3027L26.0742-85.3027Q19.3115-85.3027 15.8813-81.897Q12.4512-78.4912 12.4512-71.7529L12.4512-52.1973Q12.4512-45.4102 15.8813-42.0044Q19.3115-38.5986 26.0742-38.5986ZM26.0742 14.917L113.428 14.917Q120.166 14.917 123.608 11.5112Q127.051 8.10547 127.051 1.34277L127.051-18.2373Q127.051-24.9756 123.608-28.3813Q120.166-31.7871 113.428-31.7871L26.0742-31.7871Q19.3115-31.7871 15.8813-28.3813Q12.4512-24.9756 12.4512-18.2373L12.4512 1.34277Q12.4512 8.10547 15.8813 11.5112Q19.3115 14.917 26.0742 14.917Z"/>
  </g>
  <g id="Semibold-M" transform="matrix(1 0 0 1 1975.17 1126)">
   <path d="M25.2029-38.8206L110.992-38.8206Q117.323-38.8206 120.534-41.991Q123.745-45.1614 123.745-51.5396L123.745-70.7664Q123.745-77.0958 120.534-80.2574Q117.323-83.419 110.992-83.419L25.2029-83.419Q18.8583-83.419 15.6548-80.2574Q12.4512-77.0958 12.4512-70.7664L12.4512-51.5396Q12.4512-45.1614 15.6548-41.991Q18.8583-38.8206 25.2029-38.8206ZM25.2029 13.0417L110.992 13.0417Q117.323 13.0417 120.534 9.87167Q123.745 6.70166 123.745 0.356293L123.745-18.9041Q123.745-25.2159 120.534-28.3859Q117.323-31.5559 110.992-31.5559L25.2029-31.5559Q18.8583-31.5559 15.6548-28.3859Q12.4512-25.2159 12.4512-18.9041L12.4512 0.356293Q12.4512 6.70166 15.6548 9.87167Q18.8583 13.0417 25.2029 13.0417Z"/>
  </g>
  <g id="Medium-M" transform="matrix(1 0 0 1 1679.71 1126)">
   <path d="M24.543-38.9893L109.146-38.9893Q115.166-38.9893 118.202-41.9811Q121.238-44.973 121.238-51.0406L121.238-70.0188Q121.238-76.0384 118.202-79.0142Q115.166-81.9901 109.146-81.9901L24.543-81.9901Q18.5143-81.9901 15.4827-79.0142Q12.4512-76.0384 12.4512-70.0188L12.4512-51.0406Q12.4512-44.973 15.4827-41.9811Q18.5143-38.9893 24.543-38.9893ZM24.543 11.6203L109.146 11.6203Q115.166 11.6203 118.202 8.62846Q121.238 5.6366 121.238-0.391388L121.238-19.4092Q121.238-25.3975 118.202-28.3894Q115.166-31.3812 109.146-31.3812L24.543-31.3812Q18.5143-31.3812 15.4827-28.3894Q12.4512-25.3975 12.4512-19.4092L12.4512-0.391388Q12.4512 5.6366 15.4827 8.62846Q18.5143 11.6203 24.543 11.6203Z"/>
  </g>
  <g id="Regular-M" transform="matrix(1 0 0 1 1384.63 1126)">
   <path d="M23.6816-39.209L106.738-39.209Q112.354-39.209 115.161-41.9678Q117.969-44.7266 117.969-50.3906L117.969-69.043Q117.969-74.6582 115.161-77.3926Q112.354-80.127 106.738-80.127L23.6816-80.127Q18.0664-80.127 15.2588-77.3926Q12.4512-74.6582 12.4512-69.043L12.4512-50.3906Q12.4512-44.7266 15.2588-41.9678Q18.0664-39.209 23.6816-39.209ZM23.6816 9.76562L106.738 9.76562Q112.354 9.76562 115.161 7.00684Q117.969 4.24805 117.969-1.36719L117.969-20.0684Q117.969-25.6348 115.161-28.3936Q112.354-31.1523 106.738-31.1523L23.6816-31.1523Q18.0664-31.1523 15.2588-28.3936Q12.4512-25.6348 12.4512-20.0684L12.4512-1.36719Q12.4512 4.24805 15.2588 7.00684Q18.0664 9.76562 23.6816 9.76562Z"/>
  </g>
  <g id="Light-M" transform="matrix(1 0 0 1 1088.34 1126)">
   <path d="M22.0314-39.3456L107.571-39.3456Q112.323-39.3456 114.73-41.6805Q117.136-44.0155 117.136-48.8922L117.136-69.8906Q117.136-74.7337 114.73-77.0519Q112.323-79.3701 107.571-79.3701L22.0314-79.3701Q17.2638-79.3701 14.8575-77.0519Q12.4512-74.7337 12.4512-69.8906L12.4512-48.8922Q12.4512-44.0155 14.8575-41.6805Q17.2638-39.3456 22.0314-39.3456ZM22.0314 9.03931L107.571 9.03931Q112.323 9.03931 114.73 6.70433Q117.136 4.36935 117.136-0.473785L117.136-21.5065Q117.136-26.3161 114.73-28.651Q112.323-30.986 107.571-30.986L22.0314-30.986Q17.2638-30.986 14.8575-28.651Q12.4512-26.3161 12.4512-21.5065L12.4512-0.473785Q12.4512 4.36935 14.8575 6.70433Q17.2638 9.03931 22.0314 9.03931Z"/>
  </g>
  <g id="Thin-M" transform="matrix(1 0 0 1 792.179 1126)">
   <path d="M19.8494-39.5256L108.672-39.5256Q112.283-39.5256 114.159-41.2998Q116.035-43.074 116.035-46.9101L116.035-71.0114Q116.035-74.8337 114.159-76.6014Q112.283-78.3691 108.672-78.3691L19.8494-78.3691Q16.2033-78.3691 14.3272-76.6014Q12.4512-74.8337 12.4512-71.0114L12.4512-46.9101Q12.4512-43.074 14.3272-41.2998Q16.2033-39.5256 19.8494-39.5256ZM19.8494 8.078L108.672 8.078Q112.283 8.078 114.159 6.30379Q116.035 4.52957 116.035 0.707245L116.035-23.4077Q116.035-27.2171 114.159-28.9913Q112.283-30.7655 108.672-30.7655L19.8494-30.7655Q16.2033-30.7655 14.3272-28.9913Q12.4512-27.2171 12.4512-23.4077L12.4512 0.707245Q12.4512 4.52957 14.3272 6.30379Q16.2033 8.078 19.8494 8.078Z"/>
  </g>
  <g id="Ultralight-M" transform="matrix(1 0 0 1 495.75 1126)">
   <path d="M18.7317-39.6179L109.236-39.6179Q112.263-39.6179 113.867-41.1053Q115.471-42.5926 115.471-45.8954L115.471-71.5858Q115.471-74.8856 113.867-76.371Q112.263-77.8564 109.236-77.8564L18.7317-77.8564Q15.6593-77.8564 14.0553-76.371Q12.4512-74.8856 12.4512-71.5858L12.4512-45.8954Q12.4512-42.5926 14.0553-41.1053Q15.6593-39.6179 18.7317-39.6179ZM18.7317 7.58591L109.236 7.58591Q112.263 7.58591 113.867 6.09856Q115.471 4.61121 115.471 1.31226L115.471-24.382Q115.471-27.6779 113.867-29.1653Q112.263-30.6526 109.236-30.6526L18.7317-30.6526Q15.6593-30.6526 14.0553-29.1653Q12.4512-27.6779 12.4512-24.382L12.4512 1.31226Q12.4512 4.61121 14.0553 6.09856Q15.6593 7.58591 18.7317 7.58591Z"/>
  </g>
  <g id="Black-S" transform="matrix(1 0 0 1 2874.56 696)">
   <path d="M22.5586-37.3047L95.1172-37.3047Q107.91-37.3047 107.91-50.0977L107.91-66.4062Q107.91-79.1992 95.1172-79.1992L22.5586-79.1992Q9.76562-79.1992 9.76562-66.4062L9.76562-50.0977Q9.76562-37.3047 22.5586-37.3047ZM22.5586 8.78906L95.1172 8.78906Q107.91 8.78906 107.91-4.00391L107.91-20.3125Q107.91-33.1055 95.1172-33.1055L22.5586-33.1055Q9.76562-33.1055 9.76562-20.3125L9.76562-4.00391Q9.76562 8.78906 22.5586 8.78906Z"/>
  </g>
  <g id="Heavy-S" transform="matrix(1 0 0 1 2579.63 696)">
   <path d="M21.8094-37.5351L92.3164-37.5351Q104.349-37.5351 104.349-49.556L104.349-65.2077Q104.349-77.2171 92.3164-77.2171L21.8094-77.2171Q9.76562-77.2171 9.76562-65.2077L9.76562-49.556Q9.76562-37.5351 21.8094-37.5351ZM21.8094 6.80695L92.3164 6.80695Q104.349 6.80695 104.349-5.21393L104.349-20.8656Q104.349-32.8636 92.3164-32.8636L21.8094-32.8636Q9.76562-32.8636 9.76562-20.8656L9.76562-5.21393Q9.76562 6.80695 21.8094 6.80695Z"/>
  </g>
  <g id="Bold-S" transform="matrix(1 0 0 1 2284.91 696)">
   <path d="M20.9717-37.793L89.1846-37.793Q100.366-37.793 100.366-48.9502L100.366-63.8672Q100.366-75 89.1846-75L20.9717-75Q9.76562-75 9.76562-63.8672L9.76562-48.9502Q9.76562-37.793 20.9717-37.793ZM20.9717 4.58984L89.1846 4.58984Q100.366 4.58984 100.366-6.56738L100.366-21.4844Q100.366-32.5928 89.1846-32.5928L20.9717-32.5928Q9.76562-32.5928 9.76562-21.4844L9.76562-6.56738Q9.76562 4.58984 20.9717 4.58984Z"/>
  </g>
  <g id="Semibold-S" transform="matrix(1 0 0 1 1989.57 696)">
   <path d="M20.3941-37.9707L87.0247-37.9707Q97.6204-37.9707 97.6204-48.5329L97.6204-62.9433Q97.6204-73.4711 87.0247-73.4711L20.3941-73.4711Q9.76562-73.4711 9.76562-62.9433L9.76562-48.5329Q9.76562-37.9707 20.3941-37.9707ZM20.3941 3.06091L87.0247 3.06091Q97.6204 3.06091 97.6204-7.50046L97.6204-21.9109Q97.6204-32.4059 87.0247-32.4059L20.3941-32.4059Q9.76562-32.4059 9.76562-21.9109L9.76562-7.50046Q9.76562 3.06091 20.3941 3.06091Z"/>
  </g>
  <g id="Medium-S" transform="matrix(1 0 0 1 1693.9 696)">
   <path d="M19.9562-38.1058L85.3874-38.1058Q95.5383-38.1058 95.5383-48.2155L95.5383-62.2421Q95.5383-72.3122 85.3874-72.3122L19.9562-72.3122Q9.76562-72.3122 9.76562-62.2421L9.76562-48.2155Q9.76562-38.1058 19.9562-38.1058ZM19.9562 1.90201L85.3874 1.90201Q95.5383 1.90201 95.5383-8.2077L95.5383-22.2343Q95.5383-32.2647 85.3874-32.2647L19.9562-32.2647Q9.76562-32.2647 9.76562-22.2343L9.76562-8.2077Q9.76562 1.90201 19.9562 1.90201Z"/>
  </g>
  <g id="Regular-S" transform="matrix(1 0 0 1 1398.55 696)">
   <path d="M19.3848-38.2812L83.252-38.2812Q92.8223-38.2812 92.8223-47.8027L92.8223-61.3281Q92.8223-70.8008 83.252-70.8008L19.3848-70.8008Q9.76562-70.8008 9.76562-61.3281L9.76562-47.8027Q9.76562-38.2812 19.3848-38.2812ZM19.3848 0.390625L83.252 0.390625Q92.8223 0.390625 92.8223-9.13086L92.8223-22.6562Q92.8223-32.0801 83.252-32.0801L19.3848-32.0801Q9.76562-32.0801 9.76562-22.6562L9.76562-9.13086Q9.76562 0.390625 19.3848 0.390625Z"/>
  </g>
  <g id="Light-S" transform="matrix(1 0 0 1 1102.2 696)">
   <path d="M17.9169-38.4026L83.9783-38.4026Q92.0959-38.4026 92.0959-46.4859L92.0959-62.0697Q92.0959-70.1195 83.9783-70.1195L17.9169-70.1195Q9.76562-70.1195 9.76562-62.0697L9.76562-46.4859Q9.76562-38.4026 17.9169-38.4026ZM17.9169-0.260162L83.9783-0.260162Q92.0959-0.260162 92.0959-8.34351L92.0959-23.9281Q92.0959-31.9435 83.9783-31.9435L17.9169-31.9435Q9.76562-31.9435 9.76562-23.9281L9.76562-8.34351Q9.76562-0.260162 17.9169-0.260162Z"/>
  </g>
  <g id="Thin-S" transform="matrix(1 0 0 1 805.972 696)">
   <path d="M15.9744-38.5628L84.9396-38.5628Q91.1346-38.5628 91.1346-44.7441L91.1346-63.0508Q91.1346-69.2184 84.9396-69.2184L15.9744-69.2184Q9.76562-69.2184 9.76562-63.0508L9.76562-44.7441Q9.76562-38.5628 15.9744-38.5628ZM15.9744-1.12076L84.9396-1.12076Q91.1346-1.12076 91.1346-7.30286L91.1346-25.6096Q91.1346-31.7635 84.9396-31.7635L15.9744-31.7635Q9.76562-31.7635 9.76562-25.6096L9.76562-7.30286Q9.76562-1.12076 15.9744-1.12076Z"/>
  </g>
  <g id="Ultralight-S" transform="matrix(1 0 0 1 509.507 696)">
   <path d="M14.9803-38.6444L85.4317-38.6444Q90.6425-38.6444 90.6425-43.8522L90.6425-63.5529Q90.6425-68.7576 85.4317-68.7576L14.9803-68.7576Q9.76562-68.7576 9.76562-63.5529L9.76562-43.8522Q9.76562-38.6444 14.9803-38.6444ZM14.9803-1.56174L85.4317-1.56174Q90.6425-1.56174 90.6425-6.76956L90.6425-26.4709Q90.6425-31.6711 85.4317-31.6711L14.9803-31.6711Q9.76562-31.6711 9.76562-26.4709L9.76562-6.76956Q9.76562-1.56174 14.9803-1.56174Z"/>
  </g>
 </g>
</svg>
