<?xml version="1.0" encoding="UTF-8"?>
<!--Generator: Apple Native CoreSVG 175.5-->
<!DOCTYPE svg
PUBLIC "-//W3C//DTD SVG 1.1//EN"
       "http://www.w3.org/Graphics/SVG/1.1/DTD/svg11.dtd">
<svg version="1.1" xmlns="http://www.w3.org/2000/svg" xmlns:xlink="http://www.w3.org/1999/xlink" width="3300" height="2200">
 <!--glyph: "uni100F86.medium", point size: 100.0, font version: "18.0d12e2", template writer version: "101"-->
 <g id="Notes">
  <rect height="2200" id="artboard" style="fill:white;opacity:1" width="3300" x="0" y="0"/>
  <line style="fill:none;stroke:black;opacity:1;stroke-width:0.5;" x1="263" x2="3036" y1="292" y2="292"/>
  <text style="stroke:none;fill:black;font-family:sans-serif;font-size:13;font-weight:bold;" transform="matrix(1 0 0 1 263 322)">Weight/Scale Variations</text>
  <text style="stroke:none;fill:black;font-family:sans-serif;font-size:13;text-anchor:middle;" transform="matrix(1 0 0 1 559.711 322)">Ultralight</text>
  <text style="stroke:none;fill:black;font-family:sans-serif;font-size:13;text-anchor:middle;" transform="matrix(1 0 0 1 856.422 322)">Thin</text>
  <text style="stroke:none;fill:black;font-family:sans-serif;font-size:13;text-anchor:middle;" transform="matrix(1 0 0 1 1153.13 322)">Light</text>
  <text style="stroke:none;fill:black;font-family:sans-serif;font-size:13;text-anchor:middle;" transform="matrix(1 0 0 1 1449.84 322)">Regular</text>
  <text style="stroke:none;fill:black;font-family:sans-serif;font-size:13;text-anchor:middle;" transform="matrix(1 0 0 1 1746.56 322)">Medium</text>
  <text style="stroke:none;fill:black;font-family:sans-serif;font-size:13;text-anchor:middle;" transform="matrix(1 0 0 1 2043.27 322)">Semibold</text>
  <text style="stroke:none;fill:black;font-family:sans-serif;font-size:13;text-anchor:middle;" transform="matrix(1 0 0 1 2339.98 322)">Bold</text>
  <text style="stroke:none;fill:black;font-family:sans-serif;font-size:13;text-anchor:middle;" transform="matrix(1 0 0 1 2636.69 322)">Heavy</text>
  <text style="stroke:none;fill:black;font-family:sans-serif;font-size:13;text-anchor:middle;" transform="matrix(1 0 0 1 2933.4 322)">Black</text>
  <line style="fill:none;stroke:black;opacity:1;stroke-width:0.5;" x1="263" x2="3036" y1="1903" y2="1903"/>
  <g transform="matrix(1 0 0 1 263 1933)">
   <path d="M9.24805 0.830078C13.5547 0.830078 17.1387-2.74414 17.1387-7.05078C17.1387-11.3574 13.5449-14.9316 9.23828-14.9316C4.94141-14.9316 1.36719-11.3574 1.36719-7.05078C1.36719-2.74414 4.95117 0.830078 9.24805 0.830078ZM9.24805-0.654297C5.70312-0.654297 2.87109-3.49609 2.87109-7.05078C2.87109-10.6055 5.69336-13.4473 9.23828-13.4473C12.793-13.4473 15.6445-10.6055 15.6445-7.05078C15.6445-3.49609 12.8027-0.654297 9.24805-0.654297ZM5.6543-7.05078C5.6543-6.62109 5.95703-6.32812 6.40625-6.32812L8.50586-6.32812L8.50586-4.20898C8.50586-3.76953 8.79883-3.4668 9.22852-3.4668C9.67773-3.4668 9.9707-3.76953 9.9707-4.20898L9.9707-6.32812L12.0898-6.32812C12.5293-6.32812 12.832-6.62109 12.832-7.05078C12.832-7.49023 12.5293-7.79297 12.0898-7.79297L9.9707-7.79297L9.9707-9.90234C9.9707-10.3516 9.67773-10.6543 9.22852-10.6543C8.79883-10.6543 8.50586-10.3516 8.50586-9.90234L8.50586-7.79297L6.40625-7.79297C5.95703-7.79297 5.6543-7.49023 5.6543-7.05078Z"/>
  </g>
  <g transform="matrix(1 0 0 1 281.867 1933)">
   <path d="M11.709 2.91016C17.1582 2.91016 21.6699-1.61133 21.6699-7.05078C21.6699-12.5 17.1484-17.0117 11.6992-17.0117C6.25977-17.0117 1.74805-12.5 1.74805-7.05078C1.74805-1.61133 6.26953 2.91016 11.709 2.91016ZM11.709 1.25C7.09961 1.25 3.41797-2.44141 3.41797-7.05078C3.41797-11.6602 7.08984-15.3516 11.6992-15.3516C16.3086-15.3516 20.0098-11.6602 20.0098-7.05078C20.0098-2.44141 16.3184 1.25 11.709 1.25ZM7.17773-7.05078C7.17773-6.57227 7.50977-6.25 8.00781-6.25L10.8789-6.25L10.8789-3.36914C10.8789-2.88086 11.2109-2.53906 11.6895-2.53906C12.1777-2.53906 12.5195-2.87109 12.5195-3.36914L12.5195-6.25L15.4004-6.25C15.8887-6.25 16.2305-6.57227 16.2305-7.05078C16.2305-7.53906 15.8887-7.88086 15.4004-7.88086L12.5195-7.88086L12.5195-10.752C12.5195-11.25 12.1777-11.5918 11.6895-11.5918C11.2109-11.5918 10.8789-11.25 10.8789-10.752L10.8789-7.88086L8.00781-7.88086C7.50977-7.88086 7.17773-7.53906 7.17773-7.05078Z"/>
  </g>
  <g transform="matrix(1 0 0 1 305.646 1933)">
   <path d="M14.9707 5.66406C21.9336 5.66406 27.6953-0.0976562 27.6953-7.05078C27.6953-14.0137 21.9238-19.7754 14.9609-19.7754C8.00781-19.7754 2.25586-14.0137 2.25586-7.05078C2.25586-0.0976562 8.01758 5.66406 14.9707 5.66406ZM14.9707 3.84766C8.93555 3.84766 4.08203-1.01562 4.08203-7.05078C4.08203-13.0957 8.92578-17.9492 14.9609-17.9492C21.0059-17.9492 25.8691-13.0957 25.8691-7.05078C25.8691-1.01562 21.0156 3.84766 14.9707 3.84766ZM9.19922-7.05078C9.19922-6.5332 9.57031-6.17188 10.1172-6.17188L14.0625-6.17188L14.0625-2.2168C14.0625-1.67969 14.4336-1.29883 14.9512-1.29883C15.4883-1.29883 15.8594-1.66992 15.8594-2.2168L15.8594-6.17188L19.8145-6.17188C20.3516-6.17188 20.7324-6.5332 20.7324-7.05078C20.7324-7.59766 20.3613-7.96875 19.8145-7.96875L15.8594-7.96875L15.8594-11.9141C15.8594-12.4609 15.4883-12.8418 14.9512-12.8418C14.4336-12.8418 14.0625-12.4609 14.0625-11.9141L14.0625-7.96875L10.1172-7.96875C9.57031-7.96875 9.19922-7.59766 9.19922-7.05078Z"/>
  </g>
  <text style="stroke:none;fill:black;font-family:sans-serif;font-size:13;font-weight:bold;" transform="matrix(1 0 0 1 263 1953)">Design Variations</text>
  <text style="stroke:none;fill:black;font-family:sans-serif;font-size:13;" transform="matrix(1 0 0 1 263 1971)">Symbols are supported in up to nine weights and three scales.</text>
  <text style="stroke:none;fill:black;font-family:sans-serif;font-size:13;" transform="matrix(1 0 0 1 263 1989)">For optimal layout with text and other symbols, vertically align</text>
  <text style="stroke:none;fill:black;font-family:sans-serif;font-size:13;" transform="matrix(1 0 0 1 263 2007)">symbols with the adjacent text.</text>
  <line style="fill:none;stroke:#00AEEF;stroke-width:0.5;opacity:1.0;" x1="776" x2="776" y1="1919" y2="1933"/>
  <g transform="matrix(1 0 0 1 776 1933)">
   <path d="M3.31055 0.15625C3.82812 0.15625 4.08203-0.0390625 4.26758-0.585938L5.52734-4.0332L11.2891-4.0332L12.5488-0.585938C12.7344-0.0390625 12.9883 0.15625 13.4961 0.15625C14.0137 0.15625 14.3457-0.15625 14.3457-0.644531C14.3457-0.810547 14.3164-0.966797 14.2383-1.17188L9.6582-13.3691C9.43359-13.9648 9.0332-14.2676 8.4082-14.2676C7.80273-14.2676 7.39258-13.9746 7.17773-13.3789L2.59766-1.16211C2.51953-0.957031 2.49023-0.800781 2.49023-0.634766C2.49023-0.146484 2.80273 0.15625 3.31055 0.15625ZM6.00586-5.51758L8.37891-12.0898L8.42773-12.0898L10.8008-5.51758Z"/>
  </g>
  <line style="fill:none;stroke:#00AEEF;stroke-width:0.5;opacity:1.0;" x1="793.197" x2="793.197" y1="1919" y2="1933"/>
  <text style="stroke:none;fill:black;font-family:sans-serif;font-size:13;font-weight:bold;" transform="matrix(1 0 0 1 776 1953)">Margins</text>
  <text style="stroke:none;fill:black;font-family:sans-serif;font-size:13;" transform="matrix(1 0 0 1 776 1971)">Leading and trailing margins on the left and right side of each symbol</text>
  <text style="stroke:none;fill:black;font-family:sans-serif;font-size:13;" transform="matrix(1 0 0 1 776 1989)">can be adjusted by modifying the x-location of the margin guidelines.</text>
  <text style="stroke:none;fill:black;font-family:sans-serif;font-size:13;" transform="matrix(1 0 0 1 776 2007)">Modifications are automatically applied proportionally to all</text>
  <text style="stroke:none;fill:black;font-family:sans-serif;font-size:13;" transform="matrix(1 0 0 1 776 2025)">scales and weights.</text>
  <g transform="matrix(1 0 0 1 1289 1933)">
   <path d="M2.8418 1.86523L4.54102 3.57422C5.40039 4.44336 6.38672 4.38477 7.31445 3.35938L18.0078-8.42773L17.041-9.4043L6.42578 2.27539C6.07422 2.67578 5.74219 2.77344 5.27344 2.30469L4.10156 1.14258C3.63281 0.683594 3.74023 0.341797 4.14062-0.0195312L15.6152-10.8203L14.6387-11.7871L3.04688-0.898438C2.06055 0.0195312 1.98242 0.996094 2.8418 1.86523ZM9.25781-16.3281C8.83789-15.918 8.80859-15.3418 9.04297-14.9512C9.27734-14.5898 9.73633-14.3555 10.3809-14.5215C11.8457-14.8633 13.3691-14.9219 14.7949-13.9844L14.209-12.5293C13.8672-11.6992 14.043-11.1133 14.5801-10.5664L16.875-8.25195C17.3633-7.76367 17.7734-7.74414 18.3398-7.8418L19.4043-8.03711L20.0684-7.36328L20.0293-6.80664C19.9902-6.30859 20.1172-5.92773 20.6055-5.44922L21.3672-4.70703C21.8457-4.22852 22.4609-4.19922 22.9297-4.66797L25.8398-7.58789C26.3086-8.05664 26.2891-8.65234 25.8105-9.13086L25.0391-9.89258C24.5605-10.3711 24.1895-10.5273 23.7109-10.4883L23.1348-10.4395L22.4902-11.0742L22.7344-12.1973C22.8613-12.7637 22.7051-13.2031 22.1191-13.7891L19.9219-15.9766C16.582-19.2969 12.1484-19.2188 9.25781-16.3281ZM10.752-15.957C13.1836-17.7344 16.4746-17.4316 18.7012-15.2051L21.1328-12.793C21.3672-12.5586 21.4062-12.373 21.3379-12.0312L21.0156-10.5469L22.5195-9.0625L23.5059-9.12109C23.7598-9.13086 23.8379-9.11133 24.0332-8.91602L24.6094-8.33984L22.168-5.89844L21.5918-6.47461C21.3965-6.66992 21.3672-6.74805 21.377-7.01172L21.4453-7.98828L19.9512-9.47266L18.4277-9.21875C18.1055-9.15039 17.959-9.17969 17.7148-9.41406L15.7129-11.416C15.459-11.6504 15.4297-11.8164 15.5859-12.1875L16.4648-14.2773C14.9023-15.7324 12.8711-16.3574 10.8398-15.7617C10.6836-15.7227 10.625-15.8496 10.752-15.957Z"/>
  </g>
  <text style="stroke:none;fill:black;font-family:sans-serif;font-size:13;font-weight:bold;" transform="matrix(1 0 0 1 1289 1953)">Exporting</text>
  <text style="stroke:none;fill:black;font-family:sans-serif;font-size:13;" transform="matrix(1 0 0 1 1289 1971)">Symbols should be outlined when exporting to ensure the</text>
  <text style="stroke:none;fill:black;font-family:sans-serif;font-size:13;" transform="matrix(1 0 0 1 1289 1989)">design is preserved when submitting to Xcode.</text>
  <text id="template-version" style="stroke:none;fill:black;font-family:sans-serif;font-size:13;text-anchor:end;" transform="matrix(1 0 0 1 3036 1933)">Template v.2.0</text>
  <text style="stroke:none;fill:black;font-family:sans-serif;font-size:13;text-anchor:end;" transform="matrix(1 0 0 1 3036 1951)">Requires Xcode 12 or greater</text>
  <text id="descriptive-name" style="stroke:none;fill:black;font-family:sans-serif;font-size:13;text-anchor:end;" transform="matrix(1 0 0 1 3036 1969)">Generated from rectangle.portrait.slash</text>
  <text style="stroke:none;fill:black;font-family:sans-serif;font-size:13;text-anchor:end;" transform="matrix(1 0 0 1 3036 1987)">Typeset at 100 points</text>
  <text style="stroke:none;fill:black;font-family:sans-serif;font-size:13;" transform="matrix(1 0 0 1 263 726)">Small</text>
  <text style="stroke:none;fill:black;font-family:sans-serif;font-size:13;" transform="matrix(1 0 0 1 263 1156)">Medium</text>
  <text style="stroke:none;fill:black;font-family:sans-serif;font-size:13;" transform="matrix(1 0 0 1 263 1586)">Large</text>
 </g>
 <g id="Guides">
  <g id="H-reference" style="fill:#27AAE1;stroke:none;" transform="matrix(1 0 0 1 339 696)">
   <path d="M0.993654 0L3.63775 0L29.3281-67.1323L30.0303-67.1323L30.0303-70.459L28.1226-70.459ZM11.6885-24.4799L46.9815-24.4799L46.2315-26.7285L12.4385-26.7285ZM55.1196 0L57.7637 0L30.6382-70.459L29.4326-70.459L29.4326-67.1323Z"/>
  </g>
  <line id="Baseline-S" style="fill:none;stroke:#27AAE1;opacity:1;stroke-width:0.5;" x1="263" x2="3036" y1="696" y2="696"/>
  <line id="Capline-S" style="fill:none;stroke:#27AAE1;opacity:1;stroke-width:0.5;" x1="263" x2="3036" y1="625.541" y2="625.541"/>
  <g id="H-reference" style="fill:#27AAE1;stroke:none;" transform="matrix(1 0 0 1 339 1126)">
   <path d="M0.993654 0L3.63775 0L29.3281-67.1323L30.0303-67.1323L30.0303-70.459L28.1226-70.459ZM11.6885-24.4799L46.9815-24.4799L46.2315-26.7285L12.4385-26.7285ZM55.1196 0L57.7637 0L30.6382-70.459L29.4326-70.459L29.4326-67.1323Z"/>
  </g>
  <line id="Baseline-M" style="fill:none;stroke:#27AAE1;opacity:1;stroke-width:0.5;" x1="263" x2="3036" y1="1126" y2="1126"/>
  <line id="Capline-M" style="fill:none;stroke:#27AAE1;opacity:1;stroke-width:0.5;" x1="263" x2="3036" y1="1055.54" y2="1055.54"/>
  <g id="H-reference" style="fill:#27AAE1;stroke:none;" transform="matrix(1 0 0 1 339 1556)">
   <path d="M0.993654 0L3.63775 0L29.3281-67.1323L30.0303-67.1323L30.0303-70.459L28.1226-70.459ZM11.6885-24.4799L46.9815-24.4799L46.2315-26.7285L12.4385-26.7285ZM55.1196 0L57.7637 0L30.6382-70.459L29.4326-70.459L29.4326-67.1323Z"/>
  </g>
  <line id="Baseline-L" style="fill:none;stroke:#27AAE1;opacity:1;stroke-width:0.5;" x1="263" x2="3036" y1="1556" y2="1556"/>
  <line id="Capline-L" style="fill:none;stroke:#27AAE1;opacity:1;stroke-width:0.5;" x1="263" x2="3036" y1="1485.54" y2="1485.54"/>
  <line id="left-margin" style="fill:none;stroke:#00AEEF;stroke-width:0.5;opacity:1.0;" x1="1396.33" x2="1396.33" y1="1030.79" y2="1150.12"/>
  <line id="right-margin" style="fill:none;stroke:#00AEEF;stroke-width:0.5;opacity:1.0;" x1="1503.36" x2="1503.36" y1="1030.79" y2="1150.12"/>
 </g>
 <g id="Symbols">
  <g id="Black-L" transform="matrix(1 0 0 1 2859.72 1556)">
   <path d="M39.7724 35.1919L107.573 35.1919C112.634 35.1919 116.923 34.2017 120.399 32.3221L102.939 14.9206C102.253 15.0917 101.528 15.2108 100.65 15.2108L42.628 15.2108C37.9952 15.2108 36.065 13.0054 36.065 8.68947L36.065-51.9156L16.084-71.9538L16.084 11.4202C16.084 26.5843 24.6707 35.1919 39.7724 35.1919ZM44.3481-85.3152C45.0551-85.5095 45.7788-85.6286 46.6581-85.6286L104.738-85.6286C109.35-85.6286 111.282-83.4232 111.282-79.1073L111.282-18.3622L131.282 1.61885L131.282-81.838C131.282-96.9813 122.676-105.61 107.573-105.61L39.7724-105.61C34.7308-105.61 30.4214-104.599 26.9662-102.718ZM129.973 29.0341C132.201 31.1815 135.797 31.2399 137.925 29.0341C140.054 26.8259 140.131 23.2685 137.925 21.0615L17.4115-99.4507C15.2069-101.657 11.5899-101.659 9.38166-99.4507C7.25387-97.3241 7.25387-93.6279 9.38166-91.5001Z"/>
  </g>
  <g id="Heavy-L" transform="matrix(1 0 0 1 2564.15 1556)">
   <path d="M38.7107 34.4871L106.333 34.4871C111.537 34.4871 115.828 33.4042 119.182 31.3199L104.05 16.2324C103.246 16.6976 102.234 16.9867 100.935 16.9867L41.0161 16.9867C35.8791 16.9867 33.5844 14.4531 33.5844 9.61542L33.5844-54.2185L16.084-71.7579L16.084 11.7397C16.084 26.3825 24.1584 34.4871 38.7107 34.4871ZM40.9497-86.6187C41.7835-87.1253 42.7903-87.4144 44.095-87.4144L104.058-87.4144C109.165-87.4144 111.465-84.8809 111.465-80.0431L111.465-16.0785L128.99 1.42188L128.99-82.1674C128.99-96.78 120.891-104.915 106.333-104.915L38.7107-104.915C33.5317-104.915 29.2101-103.802 25.8867-101.712ZM128.745 28.5918C130.885 30.6509 134.303 30.6955 136.337 28.5918C138.377 26.4769 138.441 23.079 136.337 20.9697L16.348-99.0139C14.2499-101.118 10.8018-101.129 8.68683-99.0139C6.65232-96.985 6.65232-93.4621 8.68683-91.4276Z"/>
  </g>
  <g id="Bold-L" transform="matrix(1 0 0 1 2268.84 1556)">
   <path d="M37.3893 33.656L104.864 33.656C110.296 33.656 114.617 32.4131 117.81 30.0007L105.515 17.7345C104.55 18.6654 103.117 19.2142 101.184 19.2142L39.063 19.2142C33.2738 19.2142 30.5257 16.2734 30.5257 10.7529L30.5257-57.2631L16.084-71.7208L16.084 12.1987C16.084 26.1514 23.5506 33.656 37.3893 33.656ZM36.7091-88.0982C37.7117-89.0934 39.1314-89.6423 41.078-89.6423L103.228-89.6423C108.979-89.6423 111.74-86.7015 111.74-81.181L111.74-13.0421L126.207 1.39962L126.207-82.6268C126.207-96.5415 118.716-104.084 104.864-104.084L37.3893-104.084C31.9816-104.084 27.6223-102.803 24.4677-100.378ZM127.388 28.0462C129.375 29.9529 132.51 29.9821 134.392 28.0462C136.288 26.0838 136.328 22.9527 134.392 21.0035L14.9147-98.461C12.992-100.397 9.81843-100.423 7.85604-98.461C5.97406-96.5923 5.97406-93.3516 7.85604-91.4696Z"/>
  </g>
  <g id="Semibold-L" transform="matrix(1 0 0 1 1973.09 1556)">
   <path d="M36.4783 33.083L103.85 33.083C109.441 33.083 113.783 31.7298 116.864 29.0912L106.524 18.7701C105.449 20.0219 103.726 20.7498 101.355 20.7498L37.7165 20.7498C31.4776 20.7498 28.4171 17.5283 28.4171 11.5371L28.4171-59.362L16.084-71.6952L16.084 12.5152C16.084 25.9921 23.1315 33.083 36.4783 33.083ZM33.7857-89.1181C34.9045-90.4502 36.609-91.1782 38.9981-91.1782L102.656-91.1782C108.851-91.1782 111.93-87.9566 111.93-81.9655L111.93-10.9489L124.288 1.38427L124.288-82.9435C124.288-96.377 117.216-103.511 103.85-103.511L36.4783-103.511C30.9129-103.511 26.5276-102.115 23.4895-99.4577ZM126.452 27.67C128.334 29.4717 131.275 29.4903 133.052 27.67C134.847 25.8128 134.872 22.8656 133.052 21.0268L13.9266-98.0799C12.1248-99.9001 9.14054-99.9371 7.28329-98.0799C5.50646-96.3215 5.50646-93.2754 7.28329-91.4985Z"/>
  </g>
  <g id="Medium-L" transform="matrix(1 0 0 1 1677.11 1556)">
   <path d="M35.7875 32.6485L103.082 32.6485C108.792 32.6485 113.15 31.2117 116.147 28.4016L107.29 19.5554C106.131 21.0505 104.188 21.9142 101.486 21.9142L36.6956 21.9142C30.1158 21.9142 26.8183 18.4798 26.8183 12.1317L26.8183-60.9535L16.084-71.6758L16.084 12.7552C16.084 25.8713 22.8138 32.6485 35.7875 32.6485ZM31.569-89.8915C32.776-91.479 34.6964-92.3427 37.421-92.3427L102.222-92.3427C108.754-92.3427 112.074-88.9083 112.074-82.5603L112.074-9.36167L122.833 1.37264L122.833-83.1837C122.833-96.2524 116.078-103.077 103.082-103.077L35.7875-103.077C30.1026-103.077 25.6976-101.593 22.7477-98.7602ZM125.742 27.3848C127.545 29.1069 130.338 29.1174 132.035 27.3848C133.755 25.6073 133.768 22.7996 132.035 21.0445L13.1773-97.7909C11.4672-99.5235 8.62653-99.5684 6.84901-97.7909C5.15192-96.1162 5.15192-93.2176 6.84901-91.5205Z"/>
  </g>
  <g id="Regular-L" transform="matrix(1 0 0 1 1381.35 1556)">
   <path d="M34.8866 32.0818L102.08 32.0818C107.946 32.0818 112.324 30.536 115.212 27.5022L108.289 20.5796C107.02 22.3922 104.79 23.4329 101.655 23.4329L35.364 23.4329C28.3394 23.4329 24.7328 19.7209 24.7328 12.9073L24.7328-63.0293L16.084-71.6505L16.084 13.0682C16.084 25.7137 22.3993 32.0818 34.8866 32.0818ZM28.6777-90.9003C29.9998-92.8209 32.2017-93.8617 35.364-93.8617L101.655-93.8617C108.627-93.8617 112.262-90.1496 112.262-83.3361L112.262-7.2914L120.935 1.35746L120.935-83.4969C120.935-96.0897 114.595-102.511 102.08-102.511L34.8866-102.511C29.0457-102.511 24.615-100.912 21.7803-97.8505ZM124.817 27.0128C126.515 28.631 129.116 28.631 130.709 27.0128C132.33 25.3393 132.327 22.7135 130.709 21.0676L12.2001-97.4139C10.6095-99.0321 7.95608-99.0874 6.28256-97.4139C4.68946-95.8485 4.68946-93.1422 6.28256-91.5491Z"/>
  </g>
  <g id="Light-L" transform="matrix(1 0 0 1 1085.43 1556)">
   <path d="M33.9323 31.7764L101.488 31.7764C107.851 31.7764 112.42 29.8298 115.135 26.0899L109.873 20.8277C108.394 23.6136 105.458 25.1506 101.159 25.1506L34.2952 25.1506C26.6408 25.1506 22.7098 21.1523 22.7098 13.6326L22.7098-66.3692L16.084-72.9483L16.084 13.7934C16.084 25.6755 22.1512 31.7764 33.9323 31.7764ZM25.5477-91.053C27.0606-93.9661 29.9496-95.503 34.2952-95.503L101.159-95.503C108.78-95.503 112.758-91.5047 112.758-83.985L112.758-3.85605L119.37 2.76977L119.37-84.1458C119.37-95.9943 113.316-102.129 101.488-102.129L33.9323-102.129C27.5571-102.129 22.9545-100.149 20.2725-96.3619ZM124.931 26.6502C126.248 27.8867 128.257 27.8867 129.507 26.6502C130.803 25.3202 130.743 23.3242 129.507 22.0409L10.4633-96.9559C9.27357-98.1924 7.23084-98.2858 5.90085-96.9559C4.65129-95.753 4.65129-93.6766 5.90085-92.4271Z"/>
  </g>
  <g id="Thin-L" transform="matrix(1 0 0 1 789.766 1556)">
   <path d="M32.6702 31.3726L100.706 31.3726C107.724 31.3726 112.546 28.8959 115.034 24.222L111.968 21.1558C110.211 25.2291 106.342 27.4224 100.503 27.4224L32.8817 27.4224C24.3943 27.4224 20.0342 23.0454 20.0342 14.5918L20.0342-70.7865L16.084-74.6647L16.084 14.7526C16.084 25.6251 21.823 31.3726 32.6702 31.3726ZM21.4081-91.2549C23.1734-95.4806 26.9711-97.6738 32.8817-97.6738L100.503-97.6738C108.982-97.6738 113.414-93.2969 113.414-84.8432L113.414 0.687473L117.301 4.63766L117.301-85.0041C117.301-95.8681 111.625-101.624 100.706-101.624L32.6702-101.624C25.5882-101.624 20.7585-99.1389 18.2784-94.393ZM125.083 26.1706C125.895 26.9022 127.121 26.9022 127.917 26.1706C128.784 25.2949 128.648 24.1319 127.917 23.3283L8.16632-96.3501C7.50664-97.0817 6.27165-97.2257 5.39602-96.3501C4.60081-95.6268 4.60081-94.3834 5.39602-93.5882Z"/>
  </g>
  <g id="Ultralight-L" transform="matrix(1 0 0 1 493.591 1556)">
   <path d="M32.0238 31.1657L100.305 31.1657C107.66 31.1657 112.61 28.4175 114.983 23.2652L113.041 21.3239C111.142 26.0565 106.794 28.5859 100.167 28.5859L32.1576 28.5859C23.2436 28.5859 18.6637 24.015 18.6637 15.083L18.6637-73.0491L16.084-75.5439L16.084 15.2439C16.084 25.5992 21.655 31.1657 32.0238 31.1657ZM19.2878-91.3583C21.1824-96.2563 25.4455-98.7857 32.1576-98.7857L100.167-98.7857C109.085-98.7857 113.75-94.2148 113.75-85.2828L113.75 3.01465L116.24 5.59439L116.24-85.4436C116.24-95.8034 110.759-101.365 100.305-101.365L32.0238-101.365C24.5798-101.365 19.6337-98.6217 17.257-93.3846ZM125.16 25.9249C125.714 26.398 126.54 26.398 127.102 25.9249C127.75 25.282 127.575 24.5456 127.102 23.9876L6.98981-96.0398C6.60163-96.5128 5.78036-96.6827 5.13744-96.0398C4.57495-95.5622 4.57495-94.7454 5.13744-94.1829Z"/>
  </g>
  <g id="Black-M" transform="matrix(1 0 0 1 2875.44 1126)">
   <path d="M31.5964 19.8932L84.3265 19.8932C88.1924 19.8932 91.5384 19.1515 94.3134 17.7756L79.0109 2.53014C78.5518 2.54175 78.1416 2.55522 77.6654 2.55522L34.2662 2.55522C31.0249 2.55522 29.7989 1.08981 29.7989-1.90115L29.7989-46.6302L12.4609-64.0256L12.4609 0.735696C12.4609 12.8285 19.5201 19.8932 31.5964 19.8932ZM36.855-72.9334C37.3195-72.95 37.73-72.9634 38.2059-72.9634L81.6622-72.9634C84.898-72.9634 86.1238-71.498 86.1238-68.5071L86.1238-23.6589L103.467-6.32091L103.467-71.1439C103.467-83.2313 96.4026-90.3014 84.3265-90.3014L31.5964-90.3014C27.7363-90.3014 24.3848-89.5542 21.6153-88.1786ZM101.766 14.8892C103.517 16.5771 106.376 16.6342 108.058 14.8892C109.74 13.1448 109.803 10.3369 108.058 8.59224L14.1681-85.2977C12.4229-87.0427 9.55822-87.0421 7.8138-85.2977C6.13169-83.6153 6.13169-80.6881 7.8138-79.006Z"/>
  </g>
  <g id="Heavy-M" transform="matrix(1 0 0 1 2579.77 1126)">
   <path d="M30.6466 19.2324L83.1692 19.2324C87.1286 19.2324 90.4598 18.437 93.1309 16.9261L79.9507 3.78958C79.3962 3.99896 78.7701 4.13281 77.9897 4.13281L32.7891 4.13281C29.113 4.13281 27.5605 2.37302 27.5605-1.06288L27.5605-48.5734L12.4609-63.7144L12.4609 0.981078C12.4609 12.6348 19.0422 19.2324 30.6466 19.2324ZM33.8215-74.1936C34.3925-74.4239 35.0163-74.5578 35.799-74.5578L81.0432-74.5578C84.7029-74.5578 86.2576-72.798 86.2576-69.3621L86.2576-21.7434L101.371-6.64375L101.371-71.406C101.371-83.0433 94.776-89.6574 83.1692-89.6574L30.6466-89.6574C26.7014-89.6574 23.3539-88.8456 20.6991-87.3324ZM100.555 14.4903C102.255 16.127 104.994 16.1706 106.617 14.4903C108.242 12.8054 108.297 10.0954 106.617 8.41272L13.2887-84.913C11.6106-86.5933 8.85469-86.5979 7.16977-84.913C5.54716-83.2926 5.54716-80.4767 7.16977-78.8541Z"/>
  </g>
  <g id="Bold-M" transform="matrix(1 0 0 1 2284.24 1126)">
   <path d="M29.5842 18.4933L81.8747 18.4933C85.9386 18.4933 89.2531 17.6378 91.8081 15.9759L81.0021 5.19845C80.3407 5.62906 79.4731 5.89757 78.3525 5.89757L31.1366 5.89757C26.9743 5.89757 25.0566 3.80849 25.0566-0.125156L25.0566-50.7471L12.4609-63.3662L12.4609 1.25557C12.4609 12.418 18.5076 18.4933 29.5842 18.4933ZM30.4282-75.6032C31.1182-76.0727 31.9807-76.3412 33.1064-76.3412L80.3509-76.3412C84.4846-76.3412 86.4073-74.2521 86.4073-70.3185L86.4073-19.6006L99.0265-7.00488L99.0265-71.6992C99.0265-82.8331 92.9564-88.9369 81.8747-88.9369L29.5842-88.9369C25.5438-88.9369 22.2006-88.0528 19.6743-86.3858ZM99.201 14.044C100.843 15.6236 103.448 15.6521 105.004 14.044C106.566 12.4257 106.613 9.82513 105.004 8.2119L12.3049-84.4825C10.7019-86.0906 8.0677-86.1009 6.44934-84.4825C4.89328-82.9316 4.89328-80.2402 6.44934-78.6842Z"/>
  </g>
  <g id="Semibold-M" transform="matrix(1 0 0 1 1988.33 1126)">
   <path d="M28.8517 17.9837L80.9823 17.9837C85.1182 17.9837 88.4213 17.0868 90.8961 15.3208L81.7269 6.16971C80.9919 6.75285 79.9578 7.11419 78.6026 7.11419L29.9974 7.11419C25.4999 7.11419 23.3305 4.79809 23.3305 0.521307L23.3305-52.2456L12.4609-63.1262L12.4609 1.44481C12.4609 12.2686 18.139 17.9837 28.8517 17.9837ZM28.0889-76.575C28.861-77.2094 29.8879-77.5707 31.2502-77.5707L79.8735-77.5707C84.3341-77.5707 86.5106-75.2546 86.5106-70.9779L86.5106-18.1234L97.41-7.25385L97.41-71.9014C97.41-82.6881 91.702-88.4403 80.9823-88.4403L28.8517-88.4403C24.7457-88.4403 21.4056-87.5064 18.9677-85.7332ZM98.2672 13.7364C99.8696 15.2765 102.383 15.2946 103.893 13.7364C105.41 12.1639 105.451 9.63883 103.893 8.07346L11.6266-84.1858C10.0755-85.7441 7.52515-85.7583 5.95267-84.1858C4.4425-82.6828 4.4425-80.0772 5.95267-78.5671Z"/>
  </g>
  <g id="Medium-M" transform="matrix(1 0 0 1 1692.24 1126)">
   <path d="M28.2963 17.5974L80.3056 17.5974C84.4961 17.5974 87.7905 16.6691 90.2046 14.8241L82.2765 6.90616C81.4856 7.60495 80.3253 8.03668 78.7922 8.03668L29.1337 8.03668C24.3819 8.03668 22.0216 5.54844 22.0216 1.01148L22.0216-53.3819L12.4609-62.9442L12.4609 1.5883C12.4609 12.1553 17.8596 17.5974 28.2963 17.5974ZM26.3151-77.3119C27.1494-78.0713 28.3011-78.503 29.8428-78.503L79.5116-78.503C84.22-78.503 86.5888-76.0148 86.5888-71.4778L86.5888-17.0033L96.1843-7.44262L96.1843-72.0546C96.1843-82.5782 90.7509-88.0637 80.3056-88.0637L28.2963-88.0637C24.1405-88.0637 20.8027-87.092 18.432-85.2384ZM97.5591 13.5031C99.1316 15.0133 101.575 15.0236 103.05 13.5031C104.534 11.9654 104.571 9.49757 103.05 7.96848L11.1124-83.9608C9.6005-85.4813 7.11377-85.4985 5.57608-83.9608C4.1007-82.4941 4.1007-79.9536 5.57608-78.4782Z"/>
  </g>
  <g id="Regular-M" transform="matrix(1 0 0 1 1396.33 1126)">
   <path d="M27.5719 17.0934L79.4229 17.0934C83.6847 17.0934 86.9678 16.1242 89.3027 14.1762L82.9933 7.86675C82.1296 8.71638 80.8046 9.23993 79.0395 9.23993L28.007 9.23993C22.9237 9.23993 20.3144 6.52717 20.3144 1.65084L20.3144-54.8639L12.4609-62.7068L12.4609 1.77545C12.4609 12.0075 17.4951 17.0934 27.5719 17.0934ZM24.0015-78.273C24.9169-79.1955 26.2313-79.719 28.007-79.719L79.0395-79.719C84.0711-79.719 86.6909-77.0063 86.6909-72.1299L86.6909-15.5423L94.5856-7.68885L94.5856-72.2545C94.5856-82.4348 89.5103-87.5725 79.4229-87.5725L27.5719-87.5725C23.3512-87.5725 20.0164-86.5515 17.7333-84.5929ZM96.6356 13.1988C98.1691 14.6701 100.521 14.6701 101.951 13.1988C103.392 11.7065 103.422 9.31332 101.951 7.83156L10.4416-83.6674C8.98096-85.1386 6.57719-85.1597 5.08488-83.6674C3.65487-82.2479 3.65487-79.7924 5.08488-78.3624Z"/>
  </g>
  <g id="Light-M" transform="matrix(1 0 0 1 1100.33 1126)">
   <path d="M26.7163 16.8196L78.8925 16.8196C83.5992 16.8196 87.0533 15.4911 89.2343 12.9099L84.4135 8.0892C83.3616 9.81148 81.4035 10.7799 78.5947 10.7799L27.0488 10.7799C21.4008 10.7799 18.5006 7.81049 18.5006 2.30106L18.5006-57.8583L12.4609-63.8704L12.4609 2.42567C12.4609 11.9733 17.2726 16.8196 26.7163 16.8196ZM21.1953-78.4099C22.2819-80.2221 24.2123-81.1906 27.0488-81.1906L78.5947-81.1906C84.208-81.1906 87.1358-78.2211 87.1358-72.7117L87.1358-12.4623L93.1825-6.42264L93.1825-72.8363C93.1825-82.3493 88.3638-87.2303 78.8925-87.2303L26.7163-87.2303C22.0166-87.2303 18.5278-85.8671 16.3815-83.2583ZM96.7382 12.8737C97.9295 14.0027 99.7511 14.0027 100.873 12.8737C102.023 11.6894 102.002 9.86087 100.873 8.70422L8.88452-83.2567C7.78319-84.3857 5.92697-84.441 4.74266-83.2567C3.62065-82.1624 3.62065-80.2715 4.74266-79.1495Z"/>
  </g>
  <g id="Thin-M" transform="matrix(1 0 0 1 804.554 1126)">
   <path d="M25.5848 16.4575L78.1909 16.4575C83.486 16.4575 87.1665 14.6537 89.1438 11.2353L86.2919 8.38339C84.991 11.2598 82.1956 12.8167 78.0063 12.8167L25.7815 12.8167C19.3867 12.8167 16.1018 9.50778 16.1018 3.16102L16.1018-61.8187L12.4609-65.4093L12.4609 3.28563C12.4609 11.928 16.9784 16.4575 25.5848 16.4575ZM17.4839-78.5909C18.7967-81.58 21.5418-83.1368 25.7815-83.1368L78.0063-83.1368C84.3891-83.1368 87.7242-79.8279 87.7242-73.4811L87.7242-8.38884L91.3268-4.74798L91.3268-73.6057C91.3268-82.2361 86.8476-86.7776 78.1909-86.7776L25.5848-86.7776C20.2514-86.7776 16.5589-84.9618 14.5937-81.4931ZM96.874 12.4438C97.6127 13.1201 98.7327 13.1201 99.4474 12.4438C100.212 11.6668 100.124 10.585 99.4474 9.85838L6.82513-82.7136C6.19905-83.39 5.06701-83.4905 4.29005-82.7136C3.57539-82.0492 3.57539-80.9052 4.29005-80.1905Z"/>
  </g>
  <g id="Ultralight-M" transform="matrix(1 0 0 1 508.323 1126)">
   <path d="M25.0052 16.2721L77.8316 16.2721C83.4281 16.2721 87.2245 14.2248 89.0974 10.3775L87.2539 8.53408C85.8256 12.0017 82.6013 13.8599 77.7049 13.8599L25.1324 13.8599C18.355 13.8599 14.8731 10.3771 14.8731 3.60149L14.8731-63.8472L12.4609-66.1975L12.4609 3.7261C12.4609 11.9048 16.8277 16.2721 25.0052 16.2721ZM15.5829-78.6836C17.0117-82.2754 20.1741-84.1336 25.1324-84.1336L77.7049-84.1336C84.4818-84.1336 88.0256-80.6509 88.0256-73.8752L88.0256-6.30241L90.3763-3.89022L90.3763-73.9999C90.3763-82.1782 86.071-86.5458 77.8316-86.5458L25.0052-86.5458C19.3473-86.5458 15.5505-84.4982 13.678-80.589ZM96.9436 12.2235C97.4504 12.6681 98.2111 12.6681 98.7171 12.2235C99.285 11.6552 99.1617 10.956 98.7171 10.4495L5.77033-82.4354C5.38766-82.8799 4.62654-83.0037 4.05822-82.4354C3.55221-81.9913 3.55221-81.2297 4.05822-80.7237Z"/>
  </g>
  <g id="Black-S" transform="matrix(1 0 0 1 2887.7 696)">
   <path d="M25 8.1543L66.4062 8.1543C69.4336 8.1543 72.0703 7.56836 74.2676 6.49414L61.7188-6.00586C61.377-6.00586 61.084-6.00586 60.7422-6.00586L27.2461-6.00586C24.8047-6.00586 23.9258-7.08008 23.9258-9.32617L23.9258-43.75L9.76562-57.959L9.76562-7.08008C9.76562 2.49023 15.4297 8.1543 25 8.1543ZM29.6387-64.4043C29.9805-64.4043 30.2734-64.4043 30.6152-64.4043L64.1602-64.4043C66.6016-64.4043 67.4805-63.3301 67.4805-61.084L67.4805-26.5625L81.6406-12.4023L81.6406-63.3301C81.6406-72.9004 75.9766-78.5645 66.4062-78.5645L25-78.5645C21.9727-78.5645 19.3359-77.9785 17.1387-76.9043ZM80.127 4.15039C81.4941 5.46875 83.7402 5.51758 85.0586 4.15039C86.377 2.7832 86.4258 0.585938 85.0586-0.78125L11.2793-74.5605C9.91211-75.9277 7.66602-75.9277 6.29883-74.5605C4.98047-73.2422 4.98047-70.9473 6.29883-69.6289Z"/>
  </g>
  <g id="Heavy-S" transform="matrix(1 0 0 1 2591.79 696)">
   <path d="M24.297 7.62417L65.4843 7.62417C68.5347 7.62417 71.1368 7.03823 73.2649 5.92944L62.3411-4.95713C61.9417-4.89951 61.545-4.85341 61.0764-4.85341L26.1052-4.85341C23.3641-4.85341 22.2432-6.1466 22.2432-8.69233L22.2432-45.0292L9.76562-57.5441L9.76562-6.95331C9.76562 2.32889 15.0494 7.62417 24.297 7.62417ZM27.4029-65.4645C27.8139-65.5337 28.2106-65.5798 28.6791-65.5798L63.6877-65.5798C66.4172-65.5798 67.5381-64.2866 67.5381-61.7409L67.5381-25.3179L80.0272-12.8403L80.0272-63.4799C80.0272-72.7506 74.7319-78.0574 65.4843-78.0574L24.297-78.0574C21.2581-78.0574 18.6445-77.4599 16.5279-76.3511ZM79.0782 3.85075C80.4454 5.16911 82.6569 5.20642 83.9638 3.85075C85.2706 2.49509 85.3194 0.30935 83.9638-1.04631L10.7261-74.284C9.37046-75.6396 7.14741-75.6396 5.79175-74.284C4.48492-72.9771 4.48492-70.7053 5.79175-69.3984Z"/>
  </g>
  <g id="Bold-S" transform="matrix(1 0 0 1 2295.98 696)">
   <path d="M23.5107 7.03125L64.4531 7.03125C67.5293 7.03125 70.0928 6.44531 72.1436 5.29785L63.0371-3.78418C62.5732-3.66211 62.0605-3.56445 61.4502-3.56445L24.8291-3.56445C21.7529-3.56445 20.3613-5.10254 20.3613-7.9834L20.3613-46.46L9.76562-57.0801L9.76562-6.81152C9.76562 2.14844 14.624 7.03125 23.5107 7.03125ZM24.9023-66.6504C25.3906-66.7969 25.9033-66.8945 26.5137-66.8945L63.1592-66.8945C66.2109-66.8945 67.6025-65.3564 67.6025-62.4756L67.6025-23.9258L78.2227-13.3301L78.2227-63.6475C78.2227-72.583 73.3398-77.4902 64.4531-77.4902L23.5107-77.4902C20.459-77.4902 17.8711-76.8799 15.8447-75.7324ZM77.9053 3.51562C79.2725 4.83398 81.4453 4.8584 82.7393 3.51562C84.0332 2.17285 84.082 0 82.7393-1.34277L10.1074-73.9746C8.76465-75.3174 6.56738-75.3174 5.22461-73.9746C3.93066-72.6807 3.93066-70.4346 5.22461-69.1406Z"/>
  </g>
  <g id="Semibold-S" transform="matrix(1 0 0 1 1999.89 696)">
   <path d="M22.9687 6.62246L63.7422 6.62246C66.8361 6.62246 69.3729 6.03652 71.3704 4.8624L63.517-2.97549C63.0087-2.80898 62.416-2.67578 61.7079-2.67578L23.9493-2.67578C20.6421-2.67578 19.0639-4.38271 19.0639-7.49463L19.0639-47.4464L9.76562-56.7602L9.76562-6.71377C9.76562 2.02402 14.3308 6.62246 22.9687 6.62246ZM23.1783-67.468C23.7199-67.6678 24.3126-67.801 25.0207-67.801L62.7948-67.801C66.0687-67.801 67.647-66.094 67.647-62.9821L67.647-22.966L76.9785-13.6678L76.9785-63.763C76.9785-72.4675 72.3801-77.0992 63.7422-77.0992L22.9687-77.0992C19.908-77.0992 17.3379-76.48 15.3737-75.3059ZM77.0966 3.28457C78.4638 4.60293 80.61 4.61846 81.895 3.28457C83.1801 1.95068 83.2289-0.213281 81.895-1.54717L9.68086-73.7613C8.34697-75.0952 6.16748-75.0952 4.83359-73.7613C3.54854-72.4763 3.54854-70.2479 4.83359-68.9629Z"/>
  </g>
  <g id="Medium-S" transform="matrix(1 0 0 1 1703.66 696)">
   <path d="M22.5576 6.3125L63.2031 6.3125C66.3105 6.3125 68.8271 5.72656 70.7842 4.53223L63.8809-2.3623C63.3389-2.16211 62.6855-2.00195 61.9033-2.00195L23.2822-2.00195C19.7998-2.00195 18.0801-3.83691 18.0801-7.12402L18.0801-48.1943L9.76562-56.5176L9.76562-6.63965C9.76562 1.92969 14.1084 6.3125 22.5576 6.3125ZM21.8711-68.0879C22.4531-68.3281 23.1064-68.4883 23.8887-68.4883L62.5186-68.4883C65.9609-68.4883 67.6807-66.6533 67.6807-63.3662L67.6807-22.2383L76.0352-13.9238L76.0352-63.8506C76.0352-72.3799 71.6523-76.8027 63.2031-76.8027L22.5576-76.8027C19.4902-76.8027 16.9336-76.1768 15.0166-74.9824ZM76.4834 3.10938C77.8506 4.42773 79.9766 4.43652 81.2549 3.10938C82.5332 1.78223 82.582-0.375 81.2549-1.70215L9.35742-73.5996C8.03027-74.9268 5.86426-74.9268 4.53711-73.5996C3.25879-72.3213 3.25879-70.1064 4.53711-68.8281Z"/>
  </g>
  <g id="Regular-S" transform="matrix(1 0 0 1 1407.56 696)">
   <path d="M22.0215 5.9082L62.5 5.9082C65.625 5.9082 68.1152 5.32227 70.0195 4.10156L64.3555-1.5625C63.7695-1.31836 63.0371-1.12305 62.1582-1.12305L22.4121-1.12305C18.7012-1.12305 16.7969-3.125 16.7969-6.64062L16.7969-49.1699L9.76562-56.2012L9.76562-6.54297C9.76562 1.80664 13.8184 5.9082 22.0215 5.9082ZM20.166-68.8965C20.8008-69.1895 21.5332-69.3848 22.4121-69.3848L62.1582-69.3848C65.8203-69.3848 67.7246-67.3828 67.7246-63.8672L67.7246-21.2891L74.8047-14.2578L74.8047-63.9648C74.8047-72.2656 70.7031-76.416 62.5-76.416L22.0215-76.416C18.9453-76.416 16.4062-75.7812 14.5508-74.5605ZM75.6836 2.88086C77.0508 4.19922 79.1504 4.19922 80.4199 2.88086C81.6895 1.5625 81.7383-0.585938 80.4199-1.9043L8.93555-73.3887C7.61719-74.707 5.46875-74.707 4.15039-73.3887C2.88086-72.1191 2.88086-69.9219 4.15039-68.6523Z"/>
  </g>
  <g id="Light-S" transform="matrix(1 0 0 1 1111.48 696)">
   <path d="M21.2647 5.66602L62.0308 5.66602C65.5493 5.66602 68.1909 4.76221 69.959 2.98145L65.6118-1.36572C64.8594-0.349617 63.5669 0.239247 61.7647 0.239247L21.5645 0.239247C17.354 0.239247 15.1924-1.98976 15.1924-6.06543L15.1924-51.8188L9.76562-57.2305L9.76562-5.96778C9.76562 1.77637 13.6216 5.66602 21.2647 5.66602ZM17.6836-69.0176C18.4697-70.0976 19.7471-70.6865 21.5645-70.6865L61.7647-70.6865C65.9414-70.6865 68.1182-68.4575 68.1182-64.3818L68.1182-18.5645L73.5635-13.1377L73.5635-64.4795C73.5635-72.1899 69.689-76.1133 62.0308-76.1133L21.2647-76.1133C17.7647-76.1133 15.0894-75.1758 13.355-73.3799ZM75.7744 2.59326C76.8389 3.60889 78.4692 3.60889 79.4663 2.59326C80.4785 1.54736 80.4819-0.101566 79.4663-1.13233L7.55812-73.0254C6.55763-74.041 4.89356-74.0713 3.84766-73.0254C2.85059-72.0435 2.85059-70.3457 3.84766-69.3486Z"/>
  </g>
  <g id="Thin-S" transform="matrix(1 0 0 1 815.596 696)">
   <path d="M20.2637 5.34571L61.4102 5.34571C65.4492 5.34571 68.291 4.02149 69.8789 1.50002L67.2734-1.10547C66.3008 0.931623 64.2676 2.04099 61.2441 2.04099L20.4434 2.04099C15.5723 2.04099 13.0703-0.488302 13.0703-5.3047L13.0703-55.3222L9.76562-58.5918L9.76562-5.20704C9.76562 1.73633 13.3613 5.34571 20.2637 5.34571ZM14.4004-69.1777C15.3868-71.2988 17.3848-72.4082 20.4434-72.4082L61.2441-72.4082C66.1016-72.4082 68.6387-69.8789 68.6387-65.0625L68.6387-14.961L71.9219-11.6563L71.9219-65.1601C71.9219-72.0898 68.3477-75.7129 61.4102-75.7129L20.2637-75.7129C16.2031-75.7129 13.3477-74.375 11.7735-71.8184ZM75.8945 2.2129C76.5586 2.82814 77.5684 2.82814 78.2051 2.2129C78.877 1.52734 78.8203 0.539054 78.2051-0.111342L5.73635-72.5449C5.15627-73.1602 4.13282-73.2305 3.44727-72.5449C2.81055-71.9434 2.81055-70.9062 3.44727-70.2695Z"/>
  </g>
  <g id="Ultralight-S" transform="matrix(1 0 0 1 519.31 696)">
   <path d="M19.751 5.18165L61.0923 5.18165C65.398 5.18165 68.3423 3.6421 69.8379 0.741237L68.1245-0.972173C67.039 1.58787 64.6265 2.96384 60.9775 2.96384L19.8692 2.96384C14.6597 2.96384 11.9834 0.280735 11.9834-4.91505L11.9834-57.1166L9.76562-59.289L9.76562-4.8174C9.76562 1.71582 13.228 5.18165 19.751 5.18165ZM12.7188-69.2598C13.8077-71.914 16.1748-73.29 19.8692-73.29L60.9775-73.29C66.1836-73.29 68.9053-70.6069 68.9053-65.4111L68.9053-13.1153L71.0811-10.8975L71.0811-65.5088C71.0811-72.0386 67.6607-75.5078 61.0923-75.5078L19.751-75.5078C15.4033-75.5078 12.4556-73.9649 10.9634-71.0186ZM75.9561 2.01807C76.415 2.42824 77.1069 2.42824 77.5591 2.01807C78.0567 1.51709 77.9693 0.867176 77.5591 0.411603L4.80326-72.2988C4.4385-72.709 3.74318-72.7998 3.24219-72.2988C2.79004-71.8921 2.79004-71.1933 3.24219-70.7412Z"/>
  </g>
 </g>
</svg>
