<?xml version="1.0" encoding="UTF-8"?>
<!--Generator: Apple Native CoreSVG 175-->
<!DOCTYPE svg
PUBLIC "-//W3C//DTD SVG 1.1//EN"
       "http://www.w3.org/Graphics/SVG/1.1/DTD/svg11.dtd">
<svg version="1.1" xmlns="http://www.w3.org/2000/svg" xmlns:xlink="http://www.w3.org/1999/xlink" width="3300" height="2200">
 <!--glyph: "uni100933.medium", point size: 100.0, font version: "17.0d11e1", template writer version: "65.1"-->
 <g id="Notes">
  <rect height="2200" id="artboard" style="fill:white;opacity:1" width="3300" x="0" y="0"/>
  <line style="fill:none;stroke:black;opacity:1;stroke-width:0.5;" x1="263" x2="3036" y1="292" y2="292"/>
  <text style="stroke:none;fill:black;font-family:sans-serif;font-size:13;font-weight:bold;" transform="matrix(1 0 0 1 263 322)">Weight/Scale Variations</text>
  <text style="stroke:none;fill:black;font-family:sans-serif;font-size:13;text-anchor:middle;" transform="matrix(1 0 0 1 559.711 322)">Ultralight</text>
  <text style="stroke:none;fill:black;font-family:sans-serif;font-size:13;text-anchor:middle;" transform="matrix(1 0 0 1 856.422 322)">Thin</text>
  <text style="stroke:none;fill:black;font-family:sans-serif;font-size:13;text-anchor:middle;" transform="matrix(1 0 0 1 1153.13 322)">Light</text>
  <text style="stroke:none;fill:black;font-family:sans-serif;font-size:13;text-anchor:middle;" transform="matrix(1 0 0 1 1449.84 322)">Regular</text>
  <text style="stroke:none;fill:black;font-family:sans-serif;font-size:13;text-anchor:middle;" transform="matrix(1 0 0 1 1746.56 322)">Medium</text>
  <text style="stroke:none;fill:black;font-family:sans-serif;font-size:13;text-anchor:middle;" transform="matrix(1 0 0 1 2043.27 322)">Semibold</text>
  <text style="stroke:none;fill:black;font-family:sans-serif;font-size:13;text-anchor:middle;" transform="matrix(1 0 0 1 2339.98 322)">Bold</text>
  <text style="stroke:none;fill:black;font-family:sans-serif;font-size:13;text-anchor:middle;" transform="matrix(1 0 0 1 2636.69 322)">Heavy</text>
  <text style="stroke:none;fill:black;font-family:sans-serif;font-size:13;text-anchor:middle;" transform="matrix(1 0 0 1 2933.4 322)">Black</text>
  <line style="fill:none;stroke:black;opacity:1;stroke-width:0.5;" x1="263" x2="3036" y1="1903" y2="1903"/>
  <g transform="matrix(1 0 0 1 263 1933)">
   <path d="M9.24805 0.830078Q10.8691 0.830078 12.2949 0.214844Q13.7207-0.400391 14.8096-1.49414Q15.8984-2.58789 16.5186-4.01367Q17.1387-5.43945 17.1387-7.05078Q17.1387-8.66211 16.5186-10.0879Q15.8984-11.5137 14.8047-12.6074Q13.7109-13.7012 12.2852-14.3164Q10.8594-14.9316 9.23828-14.9316Q7.62695-14.9316 6.20117-14.3164Q4.77539-13.7012 3.69141-12.6074Q2.60742-11.5137 1.9873-10.0879Q1.36719-8.66211 1.36719-7.05078Q1.36719-5.43945 1.9873-4.01367Q2.60742-2.58789 3.69629-1.49414Q4.78516-0.400391 6.21094 0.214844Q7.63672 0.830078 9.24805 0.830078ZM9.24805-0.654297Q7.91992-0.654297 6.7627-1.14746Q5.60547-1.64062 4.73145-2.51953Q3.85742-3.39844 3.36426-4.56055Q2.87109-5.72266 2.87109-7.05078Q2.87109-8.37891 3.35938-9.54102Q3.84766-10.7031 4.72168-11.582Q5.5957-12.4609 6.75293-12.9541Q7.91016-13.4473 9.23828-13.4473Q10.5762-13.4473 11.7334-12.9541Q12.8906-12.4609 13.7695-11.582Q14.6484-10.7031 15.1465-9.54102Q15.6445-8.37891 15.6445-7.05078Q15.6445-5.72266 15.1514-4.56055Q14.6582-3.39844 13.7842-2.51953Q12.9102-1.64062 11.748-1.14746Q10.5859-0.654297 9.24805-0.654297ZM5.6543-7.05078Q5.6543-6.72852 5.85938-6.52832Q6.06445-6.32812 6.40625-6.32812L8.51562-6.32812L8.51562-4.20898Q8.51562-3.88672 8.71094-3.67676Q8.90625-3.4668 9.23828-3.4668Q9.56055-3.4668 9.77051-3.67676Q9.98047-3.88672 9.98047-4.20898L9.98047-6.32812L12.0898-6.32812Q12.4219-6.32812 12.627-6.52832Q12.832-6.72852 12.832-7.05078Q12.832-7.38281 12.627-7.58789Q12.4219-7.79297 12.0898-7.79297L9.98047-7.79297L9.98047-9.90234Q9.98047-10.2344 9.77051-10.4443Q9.56055-10.6543 9.23828-10.6543Q8.90625-10.6543 8.71094-10.4443Q8.51562-10.2344 8.51562-9.90234L8.51562-7.79297L6.40625-7.79297Q6.06445-7.79297 5.85938-7.58789Q5.6543-7.38281 5.6543-7.05078Z"/>
  </g>
  <g transform="matrix(1 0 0 1 281.867 1933)">
   <path d="M11.709 2.91016Q13.75 2.91016 15.5518 2.12891Q17.3535 1.34766 18.7305-0.0292969Q20.1074-1.40625 20.8887-3.20801Q21.6699-5.00977 21.6699-7.05078Q21.6699-9.0918 20.8887-10.8936Q20.1074-12.6953 18.7305-14.0723Q17.3535-15.4492 15.5469-16.2305Q13.7402-17.0117 11.6992-17.0117Q9.6582-17.0117 7.85645-16.2305Q6.05469-15.4492 4.68262-14.0723Q3.31055-12.6953 2.5293-10.8936Q1.74805-9.0918 1.74805-7.05078Q1.74805-5.00977 2.5293-3.20801Q3.31055-1.40625 4.6875-0.0292969Q6.06445 1.34766 7.86621 2.12891Q9.66797 2.91016 11.709 2.91016ZM11.709 1.25Q9.98047 1.25 8.47656 0.605469Q6.97266-0.0390625 5.83496-1.17676Q4.69727-2.31445 4.05762-3.81836Q3.41797-5.32227 3.41797-7.05078Q3.41797-8.7793 4.05762-10.2832Q4.69727-11.7871 5.83008-12.9297Q6.96289-14.0723 8.4668-14.7119Q9.9707-15.3516 11.6992-15.3516Q13.4277-15.3516 14.9316-14.7119Q16.4355-14.0723 17.5781-12.9297Q18.7207-11.7871 19.3652-10.2832Q20.0098-8.7793 20.0098-7.05078Q20.0098-5.32227 19.3701-3.81836Q18.7305-2.31445 17.5928-1.17676Q16.4551-0.0390625 14.9463 0.605469Q13.4375 1.25 11.709 1.25ZM7.17773-7.05078Q7.17773-6.69922 7.41211-6.47461Q7.64648-6.25 8.01758-6.25L10.8887-6.25L10.8887-3.36914Q10.8887-2.99805 11.1133-2.76855Q11.3379-2.53906 11.6895-2.53906Q12.0605-2.53906 12.29-2.76855Q12.5195-2.99805 12.5195-3.36914L12.5195-6.25L15.4004-6.25Q15.7715-6.25 16.001-6.47461Q16.2305-6.69922 16.2305-7.05078Q16.2305-7.42188 16.001-7.65137Q15.7715-7.88086 15.4004-7.88086L12.5195-7.88086L12.5195-10.752Q12.5195-11.1328 12.29-11.3623Q12.0605-11.5918 11.6895-11.5918Q11.3379-11.5918 11.1133-11.3574Q10.8887-11.123 10.8887-10.752L10.8887-7.88086L8.01758-7.88086Q7.63672-7.88086 7.40723-7.65137Q7.17773-7.42188 7.17773-7.05078Z"/>
  </g>
  <g transform="matrix(1 0 0 1 305.646 1933)">
   <path d="M14.9707 5.66406Q17.0605 5.66406 18.96 5.01465Q20.8594 4.36523 22.4512 3.19336Q24.043 2.02148 25.2197 0.429688Q26.3965-1.16211 27.0459-3.06641Q27.6953-4.9707 27.6953-7.05078Q27.6953-9.14062 27.0459-11.04Q26.3965-12.9395 25.2197-14.5312Q24.043-16.123 22.4512-17.2998Q20.8594-18.4766 18.9551-19.126Q17.0508-19.7754 14.9609-19.7754Q12.8711-19.7754 10.9717-19.126Q9.07227-18.4766 7.48535-17.2998Q5.89844-16.123 4.72168-14.5312Q3.54492-12.9395 2.90039-11.04Q2.25586-9.14062 2.25586-7.05078Q2.25586-4.9707 2.90527-3.06641Q3.55469-1.16211 4.72656 0.429688Q5.89844 2.02148 7.49023 3.19336Q9.08203 4.36523 10.9814 5.01465Q12.8809 5.66406 14.9707 5.66406ZM14.9707 3.84766Q13.1641 3.84766 11.5283 3.2959Q9.89258 2.74414 8.53516 1.74805Q7.17773 0.751953 6.17676-0.610352Q5.17578-1.97266 4.62891-3.6084Q4.08203-5.24414 4.08203-7.05078Q4.08203-8.86719 4.62891-10.5029Q5.17578-12.1387 6.17188-13.501Q7.16797-14.8633 8.52539-15.8594Q9.88281-16.8555 11.5186-17.4023Q13.1543-17.9492 14.9609-17.9492Q16.7773-17.9492 18.4131-17.4023Q20.0488-16.8555 21.4111-15.8594Q22.7734-14.8633 23.7695-13.501Q24.7656-12.1387 25.3174-10.5029Q25.8691-8.86719 25.8691-7.05078Q25.8789-5.24414 25.332-3.6084Q24.7852-1.97266 23.7842-0.610352Q22.7832 0.751953 21.4209 1.74805Q20.0586 2.74414 18.4229 3.2959Q16.7871 3.84766 14.9707 3.84766ZM9.19922-7.05078Q9.19922-6.66992 9.45801-6.4209Q9.7168-6.17188 10.1172-6.17188L14.0625-6.17188L14.0625-2.2168Q14.0625-1.81641 14.3115-1.55762Q14.5605-1.29883 14.9512-1.29883Q15.3516-1.29883 15.6104-1.55273Q15.8691-1.80664 15.8691-2.2168L15.8691-6.17188L19.8242-6.17188Q20.2246-6.17188 20.4785-6.4209Q20.7324-6.66992 20.7324-7.05078Q20.7324-7.46094 20.4785-7.71484Q20.2246-7.96875 19.8242-7.96875L15.8691-7.96875L15.8691-11.9141Q15.8691-12.3242 15.6104-12.583Q15.3516-12.8418 14.9512-12.8418Q14.5605-12.8418 14.3115-12.583Q14.0625-12.3242 14.0625-11.9141L14.0625-7.96875L10.1172-7.96875Q9.70703-7.96875 9.45312-7.71484Q9.19922-7.46094 9.19922-7.05078Z"/>
  </g>
  <text style="stroke:none;fill:black;font-family:sans-serif;font-size:13;font-weight:bold;" transform="matrix(1 0 0 1 263 1953)">Design Variations</text>
  <text style="stroke:none;fill:black;font-family:sans-serif;font-size:13;" transform="matrix(1 0 0 1 263 1971)">Symbols are supported in up to nine weights and three scales.</text>
  <text style="stroke:none;fill:black;font-family:sans-serif;font-size:13;" transform="matrix(1 0 0 1 263 1989)">For optimal layout with text and other symbols, vertically align</text>
  <text style="stroke:none;fill:black;font-family:sans-serif;font-size:13;" transform="matrix(1 0 0 1 263 2007)">symbols with the adjacent text.</text>
  <line style="fill:none;stroke:#00AEEF;stroke-width:0.5;opacity:1.0;" x1="776" x2="776" y1="1919" y2="1933"/>
  <g transform="matrix(1 0 0 1 776 1933)">
   <path d="M3.31055 0.15625Q3.70117 0.15625 3.91602-0.00976562Q4.13086-0.175781 4.26758-0.585938L5.52734-4.0332L11.2891-4.0332L12.5488-0.585938Q12.6855-0.175781 12.9004-0.00976562Q13.1152 0.15625 13.4961 0.15625Q13.8867 0.15625 14.1162-0.0585938Q14.3457-0.273438 14.3457-0.644531Q14.3457-0.869141 14.2383-1.17188L9.6582-13.3691Q9.48242-13.8184 9.17969-14.043Q8.87695-14.2676 8.4082-14.2676Q7.5-14.2676 7.17773-13.3789L2.59766-1.16211Q2.49023-0.859375 2.49023-0.634766Q2.49023-0.263672 2.70996-0.0537109Q2.92969 0.15625 3.31055 0.15625ZM6.00586-5.51758L8.37891-12.0898L8.42773-12.0898L10.8008-5.51758Z"/>
  </g>
  <line style="fill:none;stroke:#00AEEF;stroke-width:0.5;opacity:1.0;" x1="793.197" x2="793.197" y1="1919" y2="1933"/>
  <text style="stroke:none;fill:black;font-family:sans-serif;font-size:13;font-weight:bold;" transform="matrix(1 0 0 1 776 1953)">Margins</text>
  <text style="stroke:none;fill:black;font-family:sans-serif;font-size:13;" transform="matrix(1 0 0 1 776 1971)">Leading and trailing margins on the left and right side of each symbol</text>
  <text style="stroke:none;fill:black;font-family:sans-serif;font-size:13;" transform="matrix(1 0 0 1 776 1989)">can be adjusted by modifying the x-location of the margin guidelines.</text>
  <text style="stroke:none;fill:black;font-family:sans-serif;font-size:13;" transform="matrix(1 0 0 1 776 2007)">Modifications are automatically applied proportionally to all</text>
  <text style="stroke:none;fill:black;font-family:sans-serif;font-size:13;" transform="matrix(1 0 0 1 776 2025)">scales and weights.</text>
  <g transform="matrix(1 0 0 1 1289 1933)">
   <path d="M2.8418 1.86523L4.54102 3.57422Q5.18555 4.22852 5.90332 4.17969Q6.62109 4.13086 7.31445 3.35938L18.0078-8.42773L17.041-9.4043L6.42578 2.27539Q6.16211 2.57812 5.89355 2.61719Q5.625 2.65625 5.27344 2.30469L4.10156 1.14258Q3.75 0.791016 3.79395 0.522461Q3.83789 0.253906 4.14062-0.0195312L15.6152-10.8203L14.6387-11.7871L3.04688-0.898438Q2.30469-0.214844 2.25098 0.498047Q2.19727 1.21094 2.8418 1.86523ZM9.25781-16.3281Q8.94531-16.0254 8.90625-15.6348Q8.86719-15.2441 9.04297-14.9512Q9.21875-14.6777 9.55566-14.541Q9.89258-14.4043 10.3809-14.5215Q11.4746-14.7754 12.5977-14.7314Q13.7207-14.6875 14.7949-13.9844L14.209-12.5293Q13.9551-11.9043 14.0674-11.4404Q14.1797-10.9766 14.5801-10.5664L16.875-8.25195Q17.2363-7.88086 17.5781-7.82227Q17.9199-7.76367 18.3398-7.8418L19.4043-8.03711L20.0684-7.36328L20.0293-6.80664Q20-6.43555 20.1221-6.12305Q20.2441-5.81055 20.6055-5.44922L21.3672-4.70703Q21.7285-4.3457 22.1533-4.33105Q22.5781-4.31641 22.9297-4.66797L25.8398-7.58789Q26.1914-7.93945 26.1816-8.35449Q26.1719-8.76953 25.8105-9.13086L25.0391-9.89258Q24.6875-10.2539 24.3799-10.3857Q24.0723-10.5176 23.7109-10.4883L23.1348-10.4395L22.4902-11.0742L22.7344-12.1973Q22.832-12.6172 22.6953-12.9834Q22.5586-13.3496 22.1191-13.7891L19.9219-15.9766Q18.6719-17.2168 17.2607-17.8369Q15.8496-18.457 14.4189-18.4814Q12.9883-18.5059 11.665-17.959Q10.3418-17.4121 9.25781-16.3281ZM10.752-15.957Q11.6602-16.6211 12.7002-16.9043Q13.7402-17.1875 14.8047-17.085Q15.8691-16.9824 16.8701-16.5137Q17.8711-16.0449 18.7012-15.2051L21.1328-12.793Q21.3086-12.6172 21.3525-12.4512Q21.3965-12.2852 21.3379-12.0312L21.0156-10.5469L22.5195-9.0625L23.5059-9.12109Q23.6914-9.13086 23.7891-9.09668Q23.8867-9.0625 24.0332-8.91602L24.6094-8.33984L22.168-5.89844L21.5918-6.47461Q21.4453-6.62109 21.4062-6.71875Q21.3672-6.81641 21.377-7.01172L21.4453-7.98828L19.9512-9.47266L18.4277-9.21875Q18.1836-9.16992 18.042-9.2041Q17.9004-9.23828 17.7148-9.41406L15.7129-11.416Q15.5176-11.5918 15.4932-11.7529Q15.4688-11.9141 15.5859-12.1875L16.4648-14.2773Q15.293-15.3711 13.8281-15.791Q12.3633-16.2109 10.8398-15.7617Q10.7227-15.7324 10.6885-15.8057Q10.6543-15.8789 10.752-15.957Z"/>
  </g>
  <text style="stroke:none;fill:black;font-family:sans-serif;font-size:13;font-weight:bold;" transform="matrix(1 0 0 1 1289 1953)">Exporting</text>
  <text style="stroke:none;fill:black;font-family:sans-serif;font-size:13;" transform="matrix(1 0 0 1 1289 1971)">Symbols should be outlined when exporting to ensure the</text>
  <text style="stroke:none;fill:black;font-family:sans-serif;font-size:13;" transform="matrix(1 0 0 1 1289 1989)">design is preserved when submitting to Xcode.</text>
  <text id="template-version" style="stroke:none;fill:black;font-family:sans-serif;font-size:13;text-anchor:end;" transform="matrix(1 0 0 1 3036 1933)">Template v.3.0</text>
  <text style="stroke:none;fill:black;font-family:sans-serif;font-size:13;text-anchor:end;" transform="matrix(1 0 0 1 3036 1951)">Requires Xcode 13 or greater</text>
  <text id="descriptive-name" style="stroke:none;fill:black;font-family:sans-serif;font-size:13;text-anchor:end;" transform="matrix(1 0 0 1 3036 1969)">Generated from rectangle.inset.filled</text>
  <text style="stroke:none;fill:black;font-family:sans-serif;font-size:13;text-anchor:end;" transform="matrix(1 0 0 1 3036 1987)">Typeset at 100 points</text>
  <text style="stroke:none;fill:black;font-family:sans-serif;font-size:13;" transform="matrix(1 0 0 1 263 726)">Small</text>
  <text style="stroke:none;fill:black;font-family:sans-serif;font-size:13;" transform="matrix(1 0 0 1 263 1156)">Medium</text>
  <text style="stroke:none;fill:black;font-family:sans-serif;font-size:13;" transform="matrix(1 0 0 1 263 1586)">Large</text>
 </g>
 <g id="Guides">
  <g id="H-reference" style="fill:#27AAE1;stroke:none;" transform="matrix(1 0 0 1 339 696)">
   <path d="M0.993347 0L3.6377 0L29.3282-67.1326L30.0301-67.1326L30.0301-70.459L28.1227-70.459ZM11.6882-24.4797L46.9818-24.4797L46.2311-26.7288L12.4382-26.7288ZM55.1193 0L57.7637 0L30.6381-70.459L29.4327-70.459L29.4327-67.1326Z"/>
  </g>
  <line id="Baseline-S" style="fill:none;stroke:#27AAE1;opacity:1;stroke-width:0.5;" x1="263" x2="3036" y1="696" y2="696"/>
  <line id="Capline-S" style="fill:none;stroke:#27AAE1;opacity:1;stroke-width:0.5;" x1="263" x2="3036" y1="625.541" y2="625.541"/>
  <g id="H-reference" style="fill:#27AAE1;stroke:none;" transform="matrix(1 0 0 1 339 1126)">
   <path d="M0.993347 0L3.6377 0L29.3282-67.1326L30.0301-67.1326L30.0301-70.459L28.1227-70.459ZM11.6882-24.4797L46.9818-24.4797L46.2311-26.7288L12.4382-26.7288ZM55.1193 0L57.7637 0L30.6381-70.459L29.4327-70.459L29.4327-67.1326Z"/>
  </g>
  <line id="Baseline-M" style="fill:none;stroke:#27AAE1;opacity:1;stroke-width:0.5;" x1="263" x2="3036" y1="1126" y2="1126"/>
  <line id="Capline-M" style="fill:none;stroke:#27AAE1;opacity:1;stroke-width:0.5;" x1="263" x2="3036" y1="1055.54" y2="1055.54"/>
  <g id="H-reference" style="fill:#27AAE1;stroke:none;" transform="matrix(1 0 0 1 339 1556)">
   <path d="M0.993347 0L3.6377 0L29.3282-67.1326L30.0301-67.1326L30.0301-70.459L28.1227-70.459ZM11.6882-24.4797L46.9818-24.4797L46.2311-26.7288L12.4382-26.7288ZM55.1193 0L57.7637 0L30.6381-70.459L29.4327-70.459L29.4327-67.1326Z"/>
  </g>
  <line id="Baseline-L" style="fill:none;stroke:#27AAE1;opacity:1;stroke-width:0.5;" x1="263" x2="3036" y1="1556" y2="1556"/>
  <line id="Capline-L" style="fill:none;stroke:#27AAE1;opacity:1;stroke-width:0.5;" x1="263" x2="3036" y1="1485.54" y2="1485.54"/>
  <line id="left-margin-Regular-M" style="fill:none;stroke:#00AEEF;stroke-width:0.5;opacity:1.0;" x1="1379.82" x2="1379.82" y1="1030.79" y2="1150.12"/>
  <line id="right-margin-Regular-M" style="fill:none;stroke:#00AEEF;stroke-width:0.5;opacity:1.0;" x1="1519.86" x2="1519.86" y1="1030.79" y2="1150.12"/>
 </g>
 <g id="Symbols">
  <g id="Black-L" transform="matrix(1 0 0 1 2841.51 1556)">
   <path d="M50.5859-5.12695L133.203-5.12695Q136.084-5.12695 136.084-8.10547L136.084-62.2559Q136.084-65.2344 133.203-65.2344L50.5859-65.2344Q47.7051-65.2344 47.7051-62.2559L47.7051-8.10547Q47.7051-5.12695 50.5859-5.12695ZM39.9902 26.5137L143.799 26.5137Q155.225 26.5137 161.475 20.3125Q167.725 14.1113 167.725 2.68555L167.725-73.0957Q167.725-84.4727 161.475-90.6738Q155.225-96.875 143.799-96.875L39.9902-96.875Q28.5645-96.875 22.3145-90.6738Q16.0645-84.4727 16.0645-73.0957L16.0645 2.68555Q16.0645 14.1113 22.3145 20.3125Q28.5645 26.5137 39.9902 26.5137ZM42.6758 6.29883Q39.5508 6.29883 37.9395 4.78516Q36.3281 3.27148 36.3281-0.146484L36.3281-70.2148Q36.3281-73.6328 37.9395-75.1465Q39.5508-76.6602 42.6758-76.6602L141.064-76.6602Q144.238-76.6602 145.85-75.1465Q147.461-73.6328 147.461-70.2148L147.461-0.146484Q147.461 3.27148 145.85 4.78516Q144.238 6.29883 141.064 6.29883Z"/>
  </g>
  <g id="Heavy-L" transform="matrix(1 0 0 1 2545.23 1556)">
   <path d="M47.7623-2.56882L135.139-2.56882Q138.792-2.56882 138.792-6.30798L138.792-64.0656Q138.792-67.8162 135.139-67.8162L47.7623-67.8162Q44.1208-67.8162 44.1208-64.0656L44.1208-6.30798Q44.1208-2.56882 47.7623-2.56882ZM38.826 25.4883L144.076 25.4883Q155.04 25.4883 160.944 19.6327Q166.849 13.7772 166.849 2.84653L166.849-73.2567Q166.849-84.1499 160.944-90.0112Q155.04-95.8725 144.076-95.8725L38.826-95.8725Q27.8732-95.8725 21.9688-90.0169Q16.0645-84.1614 16.0645-73.2567L16.0645 2.84653Q16.0645 13.7886 21.9688 19.6384Q27.8732 25.4883 38.826 25.4883ZM40.9241 8.00476Q37.3268 8.00476 35.4561 6.21452Q33.5854 4.42429 33.5854 0.56839L33.5854-70.9526Q33.5854-74.8085 35.4561-76.5987Q37.3268-78.389 40.9241-78.389L141.952-78.389Q145.564-78.389 147.44-76.5987Q149.316-74.8085 149.316-70.9526L149.316 0.56839Q149.316 4.42429 147.44 6.21452Q145.564 8.00476 141.952 8.00476Z"/>
  </g>
  <g id="Bold-L" transform="matrix(1 0 0 1 2249.01 1556)">
   <path d="M44.6045 0.292969L137.305 0.292969Q141.821 0.292969 141.821-4.29688L141.821-66.0889Q141.821-70.7031 137.305-70.7031L44.6045-70.7031Q40.1123-70.7031 40.1123-66.0889L40.1123-4.29688Q40.1123 0.292969 44.6045 0.292969ZM37.5244 24.3408L144.385 24.3408Q154.834 24.3408 160.352 18.8721Q165.869 13.4033 165.869 3.02734L165.869-73.4375Q165.869-83.7891 160.352-89.27Q154.834-94.751 144.385-94.751L37.5244-94.751Q27.0996-94.751 21.582-89.2822Q16.0645-83.8135 16.0645-73.4375L16.0645 3.02734Q16.0645 13.4277 21.582 18.8843Q27.0996 24.3408 37.5244 24.3408ZM38.9648 9.91211Q34.8389 9.91211 32.6782 7.8125Q30.5176 5.71289 30.5176 1.36719L30.5176-71.7773Q30.5176-76.123 32.6782-78.2227Q34.8389-80.3223 38.9648-80.3223L142.944-80.3223Q147.046-80.3223 149.219-78.2227Q151.392-76.123 151.392-71.7773L151.392 1.36719Q151.392 5.71289 149.219 7.8125Q147.046 9.91211 142.944 9.91211Z"/>
  </g>
  <g id="Semibold-L" transform="matrix(1 0 0 1 1952.64 1556)">
   <path d="M42.4271 2.26593L138.798 2.26593Q143.909 2.26593 143.909-2.91061L143.909-67.4843Q143.909-72.6936 138.798-72.6936L42.4271-72.6936Q37.3482-72.6936 37.3482-67.4843L37.3482-2.91061Q37.3482 2.26593 42.4271 2.26593ZM36.6272 23.5497L144.598 23.5497Q154.692 23.5497 159.943 18.3475Q165.194 13.1454 165.194 3.1517L165.194-73.5619Q165.194-83.5403 159.943-88.7592Q154.692-93.9781 144.598-93.9781L36.6272-93.9781Q26.5663-93.9781 21.3154-88.7756Q16.0645-83.5732 16.0645-73.5619L16.0645 3.1517Q16.0645 13.179 21.3154 18.3643Q26.5663 23.5497 36.6272 23.5497ZM37.6137 11.2274Q33.1238 11.2274 30.7632 8.91457Q28.4027 6.60172 28.4027 1.91803L28.4027-72.3465Q28.4027-77.0294 30.7632-79.3423Q33.1238-81.6551 37.6137-81.6551L143.629-81.6551Q148.068-81.6551 150.445-79.3423Q152.822-77.0294 152.822-72.3465L152.822 1.91803Q152.822 6.60172 150.445 8.91457Q148.068 11.2274 143.629 11.2274Z"/>
  </g>
  <g id="Medium-L" transform="matrix(1 0 0 1 1656.18 1556)">
   <path d="M40.7761 3.76205L139.93 3.76205Q145.493 3.76205 145.493-1.85928L145.493-68.5417Q145.493-74.2035 139.93-74.2035L40.7761-74.2035Q35.2531-74.2035 35.2531-68.5417L35.2531-1.85928Q35.2531 3.76205 40.7761 3.76205ZM35.9459 22.95L144.76 22.95Q154.584 22.95 159.632 17.9501Q164.681 12.9501 164.681 3.24631L164.681-73.6565Q164.681-83.3519 159.632-88.3717Q154.584-93.3914 144.76-93.3914L35.9459-93.3914Q26.162-93.3914 21.1132-88.3915Q16.0645-83.3916 16.0645-73.6565L16.0645 3.24631Q16.0645 12.9906 21.1132 17.9703Q26.162 22.95 35.9459 22.95ZM36.5898 12.2246Q31.823 12.2246 29.311 9.74998Q26.799 7.27539 26.799 2.33612L26.799-72.7776Q26.799-77.7168 29.311-80.1914Q31.823-82.666 36.5898-82.666L144.147-82.666Q148.843-82.666 151.375-80.1914Q153.907-77.7168 153.907-72.7776L153.907 2.33612Q153.907 7.27539 151.375 9.74998Q148.843 12.2246 144.147 12.2246Z"/>
  </g>
  <g id="Regular-L" transform="matrix(1 0 0 1 1359.81 1556)">
   <path d="M38.623 5.71289L141.406 5.71289Q147.559 5.71289 147.559-0.488281L147.559-69.9219Q147.559-76.1719 141.406-76.1719L38.623-76.1719Q32.5195-76.1719 32.5195-69.9219L32.5195-0.488281Q32.5195 5.71289 38.623 5.71289ZM35.0586 22.168L144.971 22.168Q154.443 22.168 159.229 17.4316Q164.014 12.6953 164.014 3.36914L164.014-73.7793Q164.014-83.1055 159.229-87.8662Q154.443-92.627 144.971-92.627L35.0586-92.627Q25.6348-92.627 20.8496-87.8906Q16.0645-83.1543 16.0645-73.7793L16.0645 3.36914Q16.0645 12.7441 20.8496 17.4561Q25.6348 22.168 35.0586 22.168ZM35.2539 13.5254Q30.127 13.5254 27.417 10.8398Q24.707 8.1543 24.707 2.88086L24.707-73.3398Q24.707-78.6133 27.417-81.2988Q30.127-83.9844 35.2539-83.9844L144.824-83.9844Q149.854-83.9844 152.588-81.2988Q155.322-78.6133 155.322-73.3398L155.322 2.88086Q155.322 8.1543 152.588 10.8398Q149.854 13.5254 144.824 13.5254Z"/>
  </g>
  <g id="Light-L" transform="matrix(1 0 0 1 1063.54 1556)">
   <path d="M36.322 8.01392L142.829 8.01392Q149.814 8.01392 149.814 0.994873L149.814-71.4661Q149.814-78.5027 142.829-78.5027L36.322-78.5027Q29.3709-78.5027 29.3709-71.4661L29.3709 0.994873Q29.3709 8.01392 36.322 8.01392ZM34.0294 21.3203L145.122 21.3203Q154.034 21.3203 158.577 16.7809Q163.12 12.2414 163.12 3.47519L163.12-73.9304Q163.12-82.6965 158.577-87.2532Q154.034-91.8098 145.122-91.8098L34.0294-91.8098Q25.1503-91.8098 20.6074-87.2929Q16.0645-82.7759 16.0645-73.9304L16.0645 3.47519Q16.0645 12.3199 20.6074 16.8201Q25.1503 21.3203 34.0294 21.3203ZM34.2094 14.7064Q28.5675 14.7064 25.6229 11.7786Q22.6784 8.85086 22.6784 3.10822L22.6784-73.597Q22.6784-79.3396 25.6229-82.2674Q28.5675-85.1952 34.2094-85.1952L144.975-85.1952Q150.474-85.1952 153.473-82.2674Q156.473-79.3396 156.473-73.597L156.473 3.10822Q156.473 8.85086 153.473 11.7786Q150.474 14.7064 144.975 14.7064Z"/>
  </g>
  <g id="Thin-L" transform="matrix(1 0 0 1 767.42 1556)">
   <path d="M33.2794 11.0565L144.711 11.0565Q152.797 11.0565 152.797 2.95715L152.797-73.5077Q152.797-81.5857 144.711-81.5857L33.2794-81.5857Q25.2075-81.5857 25.2075-73.5077L25.2075 2.95715Q25.2075 11.0565 33.2794 11.0565ZM32.6683 20.1996L145.322 20.1996Q153.494 20.1996 157.717 15.9203Q161.939 11.6409 161.939 3.61557L161.939-74.131Q161.939-82.1564 157.717-86.4426Q153.494-90.7288 145.322-90.7288L32.6683-90.7288Q24.5102-90.7288 20.2873-86.5021Q16.0645-82.2754 16.0645-74.131L16.0645 3.61557Q16.0645 11.7599 20.2873 15.9798Q24.5102 20.1996 32.6683 20.1996ZM32.8285 16.2674Q26.506 16.2674 23.2513 13.0196Q19.9966 9.77173 19.9966 3.40805L19.9966-73.9372Q19.9966-80.3009 23.2513-83.5487Q26.506-86.7966 32.8285-86.7966L145.176-86.7966Q151.295-86.7966 154.644-83.5487Q157.994-80.3009 157.994-73.9372L157.994 3.40805Q157.994 9.77173 154.644 13.0196Q151.295 16.2674 145.176 16.2674Z"/>
  </g>
  <g id="Ultralight-L" transform="matrix(1 0 0 1 471.012 1556)">
   <path d="M31.7207 12.6152L145.675 12.6152Q154.324 12.6152 154.324 3.96194L154.324-74.5537Q154.324-83.165 145.675-83.165L31.7207-83.165Q23.0743-83.165 23.0743-74.5537L23.0743 3.96194Q23.0743 12.6152 31.7207 12.6152ZM31.971 19.6251L145.425 19.6251Q153.217 19.6251 157.276 15.4789Q161.334 11.3327 161.334 3.68729L161.334-74.2332Q161.334-81.8794 157.276-86.0271Q153.217-90.1749 145.425-90.1749L31.971-90.1749Q24.1814-90.1749 20.1229-86.097Q16.0645-82.019 16.0645-74.2332L16.0645 3.68729Q16.0645 11.4723 20.1229 15.5487Q24.1814 19.6251 31.971 19.6251ZM32.1205 17.0677Q25.4494 17.0677 22.0356 13.6555Q18.6218 10.2432 18.6218 3.56216L18.6218-74.1119Q18.6218-80.793 22.0356-84.2052Q25.4494-87.6175 32.1205-87.6175L145.278-87.6175Q151.715-87.6175 155.244-84.2052Q158.773-80.793 158.773-74.1119L158.773 3.56216Q158.773 10.2432 155.244 13.6555Q151.715 17.0677 145.278 17.0677Z"/>
  </g>
  <g id="Black-M" transform="matrix(1 0 0 1 2861.96 1126)">
   <path d="M40.8203-13.3301L102.051-13.3301Q103.906-13.3301 103.906-15.2344L103.906-55.1758Q103.906-57.0801 102.051-57.0801L40.8203-57.0801Q38.9648-57.0801 38.9648-55.1758L38.9648-15.2344Q38.9648-13.3301 40.8203-13.3301ZM31.5918 13.2324L111.279 13.2324Q120.312 13.2324 125.366 8.17871Q130.42 3.125 130.42-5.9082L130.42-64.4531Q130.42-73.5352 125.366-78.5645Q120.312-83.5938 111.279-83.5938L31.5918-83.5938Q22.5586-83.5938 17.5049-78.5645Q12.4512-73.5352 12.4512-64.4531L12.4512-5.9082Q12.4512 3.125 17.5049 8.17871Q22.5586 13.2324 31.5918 13.2324ZM34.2285-4.10156Q31.9824-4.10156 30.8838-5.12695Q29.7852-6.15234 29.7852-8.59375L29.7852-61.8164Q29.7852-64.2578 30.8838-65.2588Q31.9824-66.2598 34.2285-66.2598L108.643-66.2598Q110.889-66.2598 111.987-65.2588Q113.086-64.2578 113.086-61.8164L113.086-8.59375Q113.086-6.15234 111.987-5.12695Q110.889-4.10156 108.643-4.10156Z"/>
  </g>
  <g id="Heavy-M" transform="matrix(1 0 0 1 2565.59 1126)">
   <path d="M38.5612-11.3136L103.642-11.3136Q106.073-11.3136 106.073-13.8054L106.073-56.6048Q106.073-59.0965 103.642-59.0965L38.5612-59.0965Q36.1412-59.0965 36.1412-56.6048L36.1412-13.8054Q36.1412-11.3136 38.5612-11.3136ZM30.6931 12.4023L111.51 12.4023Q120.232 12.4023 124.992 7.64847Q129.752 2.89459 129.752-5.78156L129.752-64.5912Q129.752-73.3047 124.992-78.046Q120.232-82.7873 111.51-82.7873L30.6931-82.7873Q21.9826-82.7873 17.2169-78.0518Q12.4512-73.3162 12.4512-64.5912L12.4512-5.78156Q12.4512 2.89459 17.2169 7.64847Q21.9826 12.4023 30.6931 12.4023ZM32.7301-2.69547Q30.1498-2.69547 28.8498-3.9341Q27.5497-5.17273 27.5497-7.93686L27.5497-62.4733Q27.5497-65.2374 28.8498-66.4631Q30.1498-67.6888 32.7301-67.6888L109.473-67.6888Q112.041-67.6888 113.347-66.4631Q114.653-65.2374 114.653-62.4733L114.653-7.93686Q114.653-5.17273 113.347-3.9341Q112.041-2.69547 109.473-2.69547Z"/>
  </g>
  <g id="Bold-M" transform="matrix(1 0 0 1 2269.25 1126)">
   <path d="M36.0352-9.05762L105.42-9.05762Q108.496-9.05762 108.496-12.207L108.496-58.2031Q108.496-61.3525 105.42-61.3525L36.0352-61.3525Q32.9834-61.3525 32.9834-58.2031L32.9834-12.207Q32.9834-9.05762 36.0352-9.05762ZM29.6875 11.4746L111.768 11.4746Q120.142 11.4746 124.573 7.05566Q129.004 2.63672 129.004-5.63965L129.004-64.7461Q129.004-73.0469 124.573-77.4658Q120.142-81.8848 111.768-81.8848L29.6875-81.8848Q21.3379-81.8848 16.8945-77.478Q12.4512-73.0713 12.4512-64.7461L12.4512-5.63965Q12.4512 2.63672 16.8945 7.05566Q21.3379 11.4746 29.6875 11.4746ZM31.0547-1.12305Q28.1006-1.12305 26.5747-2.6001Q25.0488-4.07715 25.0488-7.20215L25.0488-63.208Q25.0488-66.333 26.5747-67.8101Q28.1006-69.2871 31.0547-69.2871L110.4-69.2871Q113.33-69.2871 114.868-67.8101Q116.406-66.333 116.406-63.208L116.406-7.20215Q116.406-4.07715 114.868-2.6001Q113.33-1.12305 110.4-1.12305Z"/>
  </g>
  <g id="Semibold-M" transform="matrix(1 0 0 1 1972.8 1126)">
   <path d="M34.2934-7.50275L106.646-7.50275Q110.167-7.50275 110.167-11.1053L110.167-59.3048Q110.167-62.9074 106.646-62.9074L34.2934-62.9074Q30.806-62.9074 30.806-59.3048L30.806-11.1053Q30.806-7.50275 34.2934-7.50275ZM28.994 10.8345L111.945 10.8345Q120.079 10.8345 124.284 6.64673Q128.488 2.45895 128.488-5.54199L128.488-64.8529Q128.488-72.8691 124.284-77.066Q120.079-81.263 111.945-81.263L28.994-81.263Q20.8939-81.263 16.6725-77.0828Q12.4512-72.9027 12.4512-64.8529L12.4512-5.54199Q12.4512 2.45895 16.6725 6.64673Q20.8939 10.8345 28.994 10.8345ZM29.8996-0.0389099Q26.6876-0.0389099 25.0061-1.68037Q23.3246-3.32184 23.3246-6.69556L23.3246-63.7146Q23.3246-67.0883 25.0061-68.7386Q26.6876-70.3888 29.8996-70.3888L111.04-70.3888Q114.219-70.3888 115.917-68.7386Q117.615-67.0883 117.615-63.7146L117.615-6.69556Q117.615-3.32184 115.917-1.68037Q114.219-0.0389099 111.04-0.0389099Z"/>
  </g>
  <g id="Medium-M" transform="matrix(1 0 0 1 1676.28 1126)">
   <path d="M32.9727-6.32324L107.576-6.32324Q111.433-6.32324 111.433-10.2692L111.433-60.141Q111.433-64.0869 107.576-64.0869L32.9727-64.0869Q29.155-64.0869 29.155-60.141L29.155-10.2692Q29.155-6.32324 32.9727-6.32324ZM28.4691 10.3493L112.08 10.3493Q120.033 10.3493 124.065 6.33659Q128.098 2.32391 128.098-5.46799L128.098-64.9338Q128.098-72.7341 124.065-76.7624Q120.033-80.7907 112.08-80.7907L28.4691-80.7907Q20.5566-80.7907 16.5039-76.7826Q12.4512-72.7745 12.4512-64.9338L12.4512-5.46799Q12.4512 2.32391 16.5039 6.33659Q20.5566 10.3493 28.4691 10.3493ZM29.0237 0.783539Q25.6165 0.783539 23.8171-0.982666Q22.0177-2.74887 22.0177-6.3118L22.0177-64.0984Q22.0177-67.6613 23.8171-69.4431Q25.6165-71.225 29.0237-71.225L111.526-71.225Q114.893-71.225 116.712-69.4431Q118.531-67.6613 118.531-64.0984L118.531-6.3118Q118.531-2.74887 116.712-0.982666Q114.893 0.783539 111.526 0.783539Z"/>
  </g>
  <g id="Regular-M" transform="matrix(1 0 0 1 1379.82 1126)">
   <path d="M31.25-4.78516L108.789-4.78516Q113.086-4.78516 113.086-9.17969L113.086-61.2305Q113.086-65.625 108.789-65.625L31.25-65.625Q27.002-65.625 27.002-61.2305L27.002-9.17969Q27.002-4.78516 31.25-4.78516ZM27.7832 9.7168L112.256 9.7168Q119.971 9.7168 123.779 5.93262Q127.588 2.14844 127.588-5.37109L127.588-65.0391Q127.588-72.5586 123.779-76.3672Q119.971-80.1758 112.256-80.1758L27.7832-80.1758Q20.1172-80.1758 16.2842-76.3916Q12.4512-72.6074 12.4512-65.0391L12.4512-5.37109Q12.4512 2.14844 16.2842 5.93262Q20.1172 9.7168 27.7832 9.7168ZM27.8809 1.85547Q24.2188 1.85547 22.2656-0.0732422Q20.3125-2.00195 20.3125-5.81055L20.3125-64.5996Q20.3125-68.4082 22.2656-70.3613Q24.2188-72.3145 27.8809-72.3145L112.158-72.3145Q115.771-72.3145 117.749-70.3613Q119.727-68.4082 119.727-64.5996L119.727-5.81055Q119.727-2.00195 117.749-0.0732422Q115.771 1.85547 112.158 1.85547Z"/>
  </g>
  <g id="Light-M" transform="matrix(1 0 0 1 1083.51 1126)">
   <path d="M29.1763-2.72675L110.061-2.72675Q115.099-2.72675 115.099-7.83234L115.099-62.6076Q115.099-67.7139 110.061-67.7139L29.1763-67.7139Q24.1714-67.7139 24.1714-62.6076L24.1714-7.83234Q24.1714-2.72675 29.1763-2.72675ZM26.8448 8.95996L112.392 8.95996Q119.592 8.95996 123.196 5.35736Q126.801 1.75476 126.801-5.2803L126.801-65.1756Q126.801-72.1954 123.196-75.8224Q119.592-79.4495 112.392-79.4495L26.8448-79.4495Q19.693-79.4495 16.0721-75.8545Q12.4512-72.2595 12.4512-65.1756L12.4512-5.2803Q12.4512 1.78528 16.0721 5.37262Q19.693 8.95996 26.8448 8.95996ZM26.9577 2.93045Q22.8264 2.93045 20.6612 0.774384Q18.4959-1.38168 18.4959-5.61371L18.4959-64.8415Q18.4959-69.0742 20.6612-71.2391Q22.8264-73.4039 26.9577-73.4039L112.295-73.4039Q116.331-73.4039 118.544-71.2391Q120.756-69.0742 120.756-64.8415L120.756-5.61371Q120.756-1.38168 118.544 0.774384Q116.331 2.93045 112.295 2.93045Z"/>
  </g>
  <g id="Thin-M" transform="matrix(1 0 0 1 787.317 1126)">
   <path d="M26.4336-0.0038147L111.742-0.0038147Q117.761-0.0038147 117.761-6.05087L117.761-64.4295Q117.761-70.4765 111.742-70.4765L26.4336-70.4765Q20.4277-70.4765 20.4277-64.4295L20.4277-6.05087Q20.4277-0.0038147 26.4336-0.0038147ZM25.6035 7.95898L112.572 7.95898Q119.092 7.95898 122.426 4.59671Q125.76 1.23444 125.76-5.16052L125.76-65.3557Q125.76-71.7148 122.426-75.1015Q119.092-78.4882 112.572-78.4882L25.6035-78.4882Q19.133-78.4882 15.7921-75.1434Q12.4512-71.7987 12.4512-65.3557L12.4512-5.16052Q12.4512 1.30463 15.7921 4.63181Q19.133 7.95898 25.6035 7.95898ZM25.7362 4.35181Q20.9846 4.35181 18.5394 1.89552Q16.0942-0.56076 16.0942-5.35355L16.0942-65.1619Q16.0942-69.9547 18.5394-72.4003Q20.9846-74.8459 25.7362-74.8459L112.475-74.8459Q117.072-74.8459 119.595-72.4003Q122.117-69.9547 122.117-65.1619L122.117-5.35355Q122.117-0.56076 119.595 1.89552Q117.072 4.35181 112.475 4.35181Z"/>
  </g>
  <g id="Ultralight-M" transform="matrix(1 0 0 1 490.872 1126)">
   <path d="M25.029 1.39084L112.604 1.39084Q119.125 1.39084 119.125-5.1384L119.125-65.3625Q119.125-71.8918 112.604-71.8918L25.029-71.8918Q18.5104-71.8918 18.5104-65.3625L18.5104-5.1384Q18.5104 1.39084 25.029 1.39084ZM24.968 7.44629L112.665 7.44629Q118.835 7.44629 122.031 4.20685Q125.227 0.967407 125.227-5.09872L125.227-65.448Q125.227-71.4691 122.031-74.7326Q118.835-77.9961 112.665-77.9961L24.968-77.9961Q18.8454-77.9961 15.6483-74.7795Q12.4512-71.563 12.4512-65.448L12.4512-5.09872Q12.4512 1.05896 15.6483 4.25262Q18.8454 7.44629 24.968 7.44629ZM25.1106 5.07965Q20.0409 5.07965 17.4522 2.46964Q14.8636-0.140381 14.8636-5.22003L14.8636-65.3259Q14.8636-70.4063 17.4522-72.995Q20.0409-75.5836 25.1106-75.5836L112.567-75.5836Q117.451-75.5836 120.133-72.995Q122.814-70.4063 122.814-65.3259L122.814-5.22003Q122.814-0.140381 120.133 2.46964Q117.451 5.07965 112.567 5.07965Z"/>
  </g>
  <g id="Black-S" transform="matrix(1 0 0 1 2877.35 696)">
   <path d="M32.5684-18.5547L79.541-18.5547Q80.8594-18.5547 80.8594-19.9219L80.8594-50.4883Q80.8594-51.8555 79.541-51.8555L32.5684-51.8555Q31.25-51.8555 31.25-50.4883L31.25-19.9219Q31.25-18.5547 32.5684-18.5547ZM25 2.92969L87.1094 2.92969Q94.2871 2.92969 98.3154-1.09863Q102.344-5.12695 102.344-12.3047L102.344-58.1055Q102.344-65.2832 98.3154-69.3115Q94.2871-73.3398 87.1094-73.3398L25-73.3398Q17.8223-73.3398 13.7939-69.3115Q9.76562-65.2832 9.76562-58.1055L9.76562-12.3047Q9.76562-5.12695 13.7939-1.09863Q17.8223 2.92969 25 2.92969ZM27.2461-11.2305Q25.5859-11.2305 24.7559-11.9873Q23.9258-12.7441 23.9258-14.5508L23.9258-55.8594Q23.9258-57.7148 24.7559-58.4473Q25.5859-59.1797 27.2461-59.1797L84.8633-59.1797Q86.5723-59.1797 87.3779-58.4473Q88.1836-57.7148 88.1836-55.8594L88.1836-14.5508Q88.1836-12.7441 87.3779-11.9873Q86.5723-11.2305 84.8633-11.2305Z"/>
  </g>
  <g id="Heavy-S" transform="matrix(1 0 0 1 2580.87 696)">
   <path d="M30.8975-17.0914L80.7396-17.0914Q82.4501-17.0914 82.4501-18.8728L82.4501-51.5373Q82.4501-53.3188 80.7396-53.3188L30.8975-53.3188Q29.187-53.3188 29.187-51.5373L29.187-18.8728Q29.187-17.0914 30.8975-17.0914ZM24.3431 2.33078L87.294 2.33078Q94.2642 2.33078 98.0679-1.47285Q101.871-5.27649 101.871-12.2124L101.871-58.1978Q101.871-65.1337 98.0679-68.9373Q94.2642-72.7409 87.294-72.7409L24.3431-72.7409Q17.3958-72.7409 13.5807-68.9373Q9.76562-65.1337 9.76562-58.1978L9.76562-12.2124Q9.76562-5.27649 13.5807-1.47285Q17.3958 2.33078 24.3431 2.33078ZM26.0818-10.1585Q24.1913-10.1585 23.2174-11.071Q22.2435-11.9835 22.2435-14.0091L22.2435-56.4011Q22.2435-58.4755 23.2174-59.3636Q24.1913-60.2516 26.0818-60.2516L85.5545-60.2516Q87.4825-60.2516 88.438-59.3636Q89.3936-58.4755 89.3936-56.4011L89.3936-14.0091Q89.3936-11.9835 88.438-11.071Q87.4825-10.1585 85.5545-10.1585Z"/>
  </g>
  <g id="Bold-S" transform="matrix(1 0 0 1 2284.42 696)">
   <path d="M29.0283-15.4541L82.0801-15.4541Q84.2285-15.4541 84.2285-17.7002L84.2285-52.71Q84.2285-54.9561 82.0801-54.9561L29.0283-54.9561Q26.8799-54.9561 26.8799-52.71L26.8799-17.7002Q26.8799-15.4541 29.0283-15.4541ZM23.6084 1.66016L87.5 1.66016Q94.2383 1.66016 97.7905-1.89209Q101.343-5.44434 101.343-12.1094L101.343-58.3008Q101.343-64.9658 97.7905-68.5181Q94.2383-72.0703 87.5-72.0703L23.6084-72.0703Q16.9189-72.0703 13.3423-68.5181Q9.76562-64.9658 9.76562-58.3008L9.76562-12.1094Q9.76562-5.44434 13.3423-1.89209Q16.9189 1.66016 23.6084 1.66016ZM24.7803-8.95996Q22.6318-8.95996 21.4966-10.0464Q20.3613-11.1328 20.3613-13.4033L20.3613-57.0068Q20.3613-59.3262 21.4966-60.3882Q22.6318-61.4502 24.7803-61.4502L86.3281-61.4502Q88.501-61.4502 89.624-60.3882Q90.7471-59.3262 90.7471-57.0068L90.7471-13.4033Q90.7471-11.1328 89.624-10.0464Q88.501-8.95996 86.3281-8.95996Z"/>
  </g>
  <g id="Semibold-S" transform="matrix(1 0 0 1 1987.89 696)">
   <path d="M27.7397-14.3257L83.004-14.3257Q85.4546-14.3257 85.4546-16.8915L85.4546-53.5187Q85.4546-56.0844 83.004-56.0844L27.7397-56.0844Q25.2892-56.0844 25.2892-53.5187L25.2892-16.8915Q25.2892-14.3257 27.7397-14.3257ZM23.1018 1.19781L87.6419 1.19781Q94.2207 1.19781 97.5994-2.18086Q100.978-5.55954 100.978-12.0384L100.978-58.3717Q100.978-64.8506 97.5994-68.2293Q94.2207-71.608 87.6419-71.608L23.1018-71.608Q16.5901-71.608 13.1779-68.2293Q9.76562-64.8506 9.76562-58.3717L9.76562-12.0384Q9.76562-5.55954 13.1779-2.18086Q16.5901 1.19781 23.1018 1.19781ZM23.8831-8.1337Q21.5569-8.1337 20.3102-9.3399Q19.0636-10.5461 19.0636-12.986L19.0636-57.4242Q19.0636-59.9129 20.3102-61.0947Q21.5569-62.2765 23.8831-62.2765L86.8614-62.2765Q89.2029-62.2765 90.4415-61.0947Q91.6801-59.9129 91.6801-57.4242L91.6801-12.986Q91.6801-10.5461 90.4415-9.3399Q89.2029-8.1337 86.8614-8.1337Z"/>
  </g>
  <g id="Medium-S" transform="matrix(1 0 0 1 1691.32 696)">
   <path d="M26.7624-13.4697L83.7051-13.4697Q86.3846-13.4697 86.3846-16.2781L86.3846-54.1321Q86.3846-56.9405 83.7051-56.9405L26.7624-56.9405Q24.0829-56.9405 24.0829-54.1321L24.0829-16.2781Q24.0829-13.4697 26.7624-13.4697ZM22.718 0.847626L87.7502 0.847626Q94.207 0.847626 97.4545-2.39983Q100.702-5.64728 100.702-11.9843L100.702-58.4259Q100.702-64.7629 97.4545-68.0103Q94.207-71.2578 87.7502-71.2578L22.718-71.2578Q16.3406-71.2578 13.0531-68.0103Q9.76562-64.7629 9.76562-58.4259L9.76562-11.9843Q9.76562-5.64728 13.0531-2.39983Q16.3406 0.847626 22.718 0.847626ZM23.2018-7.50656Q20.7413-7.50656 19.4107-8.80394Q18.0801-10.1013 18.0801-12.6686L18.0801-57.7415Q18.0801-60.3577 19.4107-61.6306Q20.7413-62.9036 23.2018-62.9036L87.2658-62.9036Q89.7354-62.9036 91.0614-61.6306Q92.3874-60.3577 92.3874-57.7415L92.3874-12.6686Q92.3874-10.1013 91.0614-8.80394Q89.7354-7.50656 87.2658-7.50656Z"/>
  </g>
  <g id="Regular-S" transform="matrix(1 0 0 1 1394.79 696)">
   <path d="M25.4883-12.3535L84.6191-12.3535Q87.5977-12.3535 87.5977-15.4785L87.5977-54.9316Q87.5977-58.0566 84.6191-58.0566L25.4883-58.0566Q22.5098-58.0566 22.5098-54.9316L22.5098-15.4785Q22.5098-12.3535 25.4883-12.3535ZM22.2168 0.390625L87.8906 0.390625Q94.1895 0.390625 97.2656-2.68555Q100.342-5.76172 100.342-11.9141L100.342-58.4961Q100.342-64.6484 97.2656-67.7246Q94.1895-70.8008 87.8906-70.8008L22.2168-70.8008Q16.0156-70.8008 12.8906-67.7246Q9.76562-64.6484 9.76562-58.4961L9.76562-11.9141Q9.76562-5.76172 12.8906-2.68555Q16.0156 0.390625 22.2168 0.390625ZM22.3145-6.68945Q19.6777-6.68945 18.2373-8.10547Q16.7969-9.52148 16.7969-12.2559L16.7969-58.1543Q16.7969-60.9375 18.2373-62.3291Q19.6777-63.7207 22.3145-63.7207L87.793-63.7207Q90.4297-63.7207 91.8701-62.3291Q93.3105-60.9375 93.3105-58.1543L93.3105-12.2559Q93.3105-9.52148 91.8701-8.10547Q90.4297-6.68945 87.793-6.68945Z"/>
  </g>
  <g id="Light-S" transform="matrix(1 0 0 1 1098.43 696)">
   <path d="M23.6565-10.537L85.7544-10.537Q89.399-10.537 89.399-14.283L89.399-56.1577Q89.399-59.903 85.7544-59.903L23.6565-59.903Q20.0119-59.903 20.0119-56.1577L20.0119-14.283Q20.0119-10.537 23.6565-10.537ZM21.3997-0.29068L88.0119-0.29068Q93.8568-0.29068 96.751-3.20015Q99.6452-6.10962 99.6452-11.8233L99.6452-58.6174Q99.6452-64.3303 96.751-67.2401Q93.8568-70.15 88.0119-70.15L21.3997-70.15Q15.6219-70.15 12.6938-67.2554Q9.76562-64.3608 9.76562-58.6174L9.76562-11.8233Q9.76562-6.07986 12.6938-3.18527Q15.6219-0.29068 21.3997-0.29068ZM21.4973-5.75104Q18.4364-5.75104 16.8144-7.35626Q15.1924-8.96149 15.1924-12.0895L15.1924-58.3511Q15.1924-61.5128 16.8144-63.1012Q18.4364-64.6896 21.4973-64.6896L87.9143-64.6896Q90.9294-64.6896 92.5739-63.1012Q94.2184-61.5128 94.2184-58.3511L94.2184-12.0895Q94.2184-8.96149 92.5739-7.35626Q90.9294-5.75104 87.9143-5.75104Z"/>
  </g>
  <g id="Thin-S" transform="matrix(1 0 0 1 802.177 696)">
   <path d="M21.2349-8.13522L87.2559-8.13522Q91.7809-8.13522 91.7809-12.7014L91.7809-57.7789Q91.7809-62.3459 87.2559-62.3459L21.2349-62.3459Q16.7091-62.3459 16.7091-57.7789L16.7091-12.7014Q16.7091-8.13522 21.2349-8.13522ZM20.3186-1.19171L88.1721-1.19171Q93.4158-1.19171 96.0701-3.88107Q98.7244-6.57043 98.7244-11.7035L98.7244-58.7776Q98.7244-63.9099 96.0701-66.5997Q93.4158-69.2894 88.1721-69.2894L20.3186-69.2894Q15.1016-69.2894 12.4336-66.6351Q9.76562-63.9809 9.76562-58.7776L9.76562-11.7035Q9.76562-6.50024 12.4336-3.84598Q15.1016-1.19171 20.3186-1.19171ZM20.4163-4.50974Q16.7953-4.50974 14.933-6.3652Q13.0707-8.22067 13.0707-11.869L13.0707-58.6113Q13.0707-62.2734 14.933-64.122Q16.7953-65.9706 20.4163-65.9706L88.0745-65.9706Q91.5901-65.9706 93.5051-64.122Q95.4201-62.2734 95.4201-58.6113L95.4201-11.869Q95.4201-8.22067 93.5051-6.3652Q91.5901-4.50974 88.0745-4.50974Z"/>
  </g>
  <g id="Ultralight-S" transform="matrix(1 0 0 1 505.702 696)">
   <path d="M19.9936-6.9046L88.0249-6.9046Q93.0016-6.9046 93.0016-11.8912L93.0016-58.6098Q93.0016-63.5963 88.0249-63.5963L19.9936-63.5963Q15.0169-63.5963 15.0169-58.6098L15.0169-11.8912Q15.0169-6.9046 19.9936-6.9046ZM19.7647-1.65253L88.2538-1.65253Q93.1908-1.65253 95.7218-4.22935Q98.2529-6.80618 98.2529-11.6417L98.2529-58.8593Q98.2529-63.6948 95.7218-66.2716Q93.1908-68.8484 88.2538-68.8484L19.7647-68.8484Q14.8346-68.8484 12.3001-66.317Q9.76562-63.7856 9.76562-58.8593L9.76562-11.6417Q9.76562-6.71539 12.3001-4.18396Q14.8346-1.65253 19.7647-1.65253ZM19.8624-3.87421Q15.9538-3.87421 13.9687-5.85785Q11.9835-7.84149 11.9835-11.7561L11.9835-58.7448Q11.9835-62.6633 13.9687-64.645Q15.9538-66.6267 19.8624-66.6267L88.1561-66.6267Q91.9281-66.6267 93.9816-64.645Q96.035-62.6633 96.035-58.7448L96.035-11.7561Q96.035-7.84149 93.9816-5.85785Q91.9281-3.87421 88.1561-3.87421Z"/>
  </g>
 </g>
</svg>
